SplineFontDB: 3.2
FontName: Monofoki-Bold
FullName: Monofoki Bold
FamilyName: Monofoki
Weight: Bold
Version: 3.3
ItalicAngle: 0
UnderlinePosition: -138
UnderlineWidth: 35
Ascent: 819
Descent: 205
InvalidEm: 1
UFOAscent: 750
UFODescent: -250
LayerCount: 2
Layer: 0 0 "Back" 1
Layer: 1 0 "Fore" 0
FSType: 0
OS2Version: 4
OS2_WeightWidthSlopeOnly: 0
OS2_UseTypoMetrics: 0
CreationTime: 1593379938
PfmFamily: 17
TTFWeight: 700
TTFWidth: 5
LineGap: 0
VLineGap: 0
OS2TypoAscent: 750
OS2TypoAOffset: 0
OS2TypoDescent: -250
OS2TypoDOffset: 0
OS2TypoLinegap: 230
OS2WinAscent: 910
OS2WinAOffset: 0
OS2WinDescent: 320
OS2WinDOffset: 0
HheadAscent: 910
HheadAOffset: 0
HheadDescent: -320
HheadDOffset: 0
OS2CapHeight: 700
OS2XHeight: 500
OS2Vendor: 'PfEd'
Lookup: 260 0 0 "'mark' Mark Positioning lookup 0" { "'mark' Mark Positioning lookup 0-1"  } ['mark' ('DFLT' <'dflt' > 'cyrl' <'dflt' > 'grek' <'dflt' > 'latn' <'dflt' > 'mong' <'dflt' > ) ]
MarkAttachClasses: 1
DEI: 91125
LangName: 1033
Encoding: UnicodeBmp
UnicodeInterp: none
NameList: Adobe Glyph List
BeginPrivate: 3
BlueValues 31 [-15 0 500 516 700 716 750 766]
StemSnapH 4 [97]
StemSnapV 5 [105]
EndPrivate
Grid
-650 272 m 25
 1300 272 l 1049
-651 349 m 1
 1300 349 l 1049
EndSplineSet
TeXData: 1 0 0 588800 294400 196266 512000 1048576 196266 783286 444596 497025 792723 393216 433062 380633 303038 157286 324010 404750 52429 2506097 1059062 262144
AnchorClass2: "mark-horn" "'mark' Mark Positioning lookup 0-1" "mark-denominator" "'mark' Mark Positioning lookup 0-1" "mark-numerator" "'mark' Mark Positioning lookup 0-1" "mark-centerright" "'mark' Mark Positioning lookup 0-1" "mark-topright" "'mark' Mark Positioning lookup 0-1" "mark-ogonek" "'mark' Mark Positioning lookup 0-1" "mark-bottom" "'mark' Mark Positioning lookup 0-1" "mark-top" "'mark' Mark Positioning lookup 0-1" "bottomright"""  "topright"""  "topleft"""  "center"""  "bottom"""  "top"""  "ogonek"""
BeginChars: 65593 1245

StartChar: A
Encoding: 65 65 0
GlifName: A_
Width: 575
VWidth: 0
Flags: MW
AnchorPoint: "mark-ogonek" 527 0 basechar 0
AnchorPoint: "mark-bottom" 288 0 basechar 0
AnchorPoint: "mark-top" 288 700 basechar 0
LayerCount: 2
Fore
SplineSet
569 39 m 2
 575 16 561 0 537 0 c 2
 502 0 l 2
 483 0 469 10 464 28 c 2
 416 210 l 1
 160 210 l 1
 112 28 l 2
 107 10 93 0 74 0 c 2
 39 0 l 2
 15 0 1 16 7 39 c 2
 155 616 l 2
 171 677 225 710 288 710 c 3
 350 710 406 677 421 616 c 2
 569 39 l 2
317 595 m 2
 314 606 302 614 288 614 c 3
 274 614 262 606 259 595 c 2
 184 306 l 1
 392 306 l 1
 317 595 l 2
EndSplineSet
PickledDataWithLists: "(dp0
Vcom.schriftgestaltung.Glyphs.lastChange\\u000d\\u000d\\u000d\\u000d\\u000d\\u000d
p1
V2016-06-09 18:44:34 +0000\\u000d\\u000d\\u000d\\u000d\\u000d\\u000d
p2
s."
EndChar

StartChar: A.hex
Encoding: 65537 -1 1
GlifName: A_.hex
Width: 575
VWidth: 0
Flags: MW
AnchorPoint: "ogonek" 517 10 basechar 0
AnchorPoint: "top" 288 700 basechar 0
LayerCount: 2
Fore
SplineSet
112.299505596 892.614380323 m 0
 120.429383125 886.024900642 124 875.92286565 124 865 c 2
 124 819 l 2
 124 807.680679758 120.49077603 797.434582054 112.147103874 790.935300585 c 0
 105.638298075 785.865283436 97.5384556952 784 89 784 c 2
 54 784 l 2
 42.6806797579 784 32.4345820537 787.50922397 25.9353005852 795.852896126 c 0
 20.8652834364 802.361701925 19 810.461544305 19 819 c 2
 19 865 l 2
 19 875.92286565 22.5706168755 886.024900642 30.700494404 892.614380323 c 0
 37.0967468189 897.798711228 45.2466187476 900 54 900 c 2
 89 900 l 2
 97.7533812524 900 105.903253181 897.798711228 112.299505596 892.614380323 c 0
404.614380323 888.299505596 m 0
 409.798711228 881.903253181 412 873.753381252 412 865 c 2
 412 819 l 2
 412 807.680679758 408.49077603 797.434582054 400.147103874 790.935300585 c 0
 393.638298075 785.865283436 385.538455695 784 377 784 c 2
 342 784 l 2
 330.680679758 784 320.434582054 787.50922397 313.935300585 795.852896126 c 0
 308.865283436 802.361701925 307 810.461544305 307 819 c 2
 307 865 l 2
 307 873.753381252 309.201288772 881.903253181 314.385619677 888.299505596 c 0
 320.975099358 896.429383125 331.07713435 900 342 900 c 2
 377 900 l 2
 387.92286565 900 398.024900642 896.429383125 404.614380323 888.299505596 c 0
111.753700532 19.7738998342 m 2
 108.136306639 2.18735431137 94.9719252401 -10 74 -10 c 2
 39 -10 l 2
 30.8760394109 -10 23.4289175655 -8.19956866081 17.4170396687 -3.87252695797 c 0
 9.68711854111 1.69107424175 5.99054230104 10.6026573418 5.99054230104 19.9170920104 c 0
 5.99054230104 23.326764852 6.38985946907 26.7920453584 7.2968037054 30.4259412509 c 2
 155.317554666 623.50760755 l 2
 171.589406632 686.425435151 225.436811698 720 288 720 c 0
 350.53378791 720 404.478599583 686.499270483 419.703196295 623.425941251 c 2
 567.656105623 30.6146221156 l 2
 568.776243109 26.744785792 569.375577146 22.9317716776 569.375577146 19.1696227449 c 0
 569.375577146 0.990785640356 554.619945701 -10 537 -10 c 2
 501 -10 l 2
 479.79755175 -10 467.859409735 2.45490630162 463.292062568 19.5931357528 c 2
 416.171171921 210 l 1
 159.790594513 210 l 1
 111.753700532 19.7738998342 l 2
317.234241218 604.823479495 m 2
 314.613168142 616.618308335 302.150332917 624 288 624 c 0
 273.849667083 624 261.70507344 616.543054606 258.765758782 604.823479495 c 2
 183.819677108 306 l 1
 392.180322892 306 l 1
 317.234241218 604.823479495 l 2
EndSplineSet
PickledDataWithLists: "(dp0
Vcom.schriftgestaltung.Glyphs.lastChange\\u000d\\u000d\\u000d\\u000d\\u000d\\u000d
p1
V2016-06-09 18:35:33 +0000\\u000d\\u000d\\u000d\\u000d\\u000d\\u000d
p2
s."
EndChar

StartChar: AE
Encoding: 198 198 2
GlifName: A_E_
Width: 575
VWidth: 0
GlyphClass: 2
Flags: MW
AnchorPoint: "mark-top" 288 700 basechar 0
LayerCount: 2
Fore
SplineSet
475 316 m 2
 383 316 l 1
 383 97 l 1
 493 97 l 2
 515 97 528 84 528 62 c 2
 528 35 l 2
 528 13 515 0 493 0 c 2
 313 0 l 2
 291 0 278 13 278 33 c 2
 278 160 l 1
 147 160 l 1
 112 28 l 2
 108 10 94 0 74 0 c 2
 39 0 l 2
 15 0 1 16 7 39 c 2
 155 616 l 2
 170 673 214 700 288 700 c 2
 482 700 l 2
 504 700 517 687 517 665 c 2
 517 639 l 2
 517 617 504 604 482 604 c 2
 383 604 l 1
 383 413 l 1
 475 413 l 2
 497 413 510 400 510 378 c 2
 510 351 l 2
 510 329 497 316 475 316 c 2
171 256 m 1
 278 256 l 1
 278 623 l 1
 268 621 262 615 259 605 c 2
 171 256 l 1
EndSplineSet
PickledDataWithLists: "(dp0
Vcom.schriftgestaltung.Glyphs.lastChange\\u000d\\u000d\\u000d\\u000d\\u000d\\u000d
p1
V2016-06-09 18:35:33 +0000\\u000d\\u000d\\u000d\\u000d\\u000d\\u000d
p2
s."
EndChar

StartChar: B
Encoding: 66 66 13
GlifName: B_
Width: 575
VWidth: 0
Flags: MW
AnchorPoint: "mark-top" 288 700 basechar 0
AnchorPoint: "mark-bottom" 288 0 basechar 0
LayerCount: 2
Fore
SplineSet
404.131800509 371.159033468 m 1
 477.721614004 338.233046505 523 271.747199723 523 200.277777778 c 3
 523 96.6296602787 428.044903808 0 264 0 c 2
 127 0 l 2
 105.688352043 0 92 13.3380563723 92 34.1043225327 c 2
 92 604 l 1
 64 604 l 2
 42.4845436844 604 29 617.484543684 29 639 c 2
 29 665 l 2
 29 686.515456316 42.4845436844 700 64 700 c 2
 244 700 l 2
 410.438371773 700 483 604.654222255 483 516.25 c 3
 483 454.201661534 447.652358957 400.643904764 404.131800509 371.159033468 c 1
197 604 m 1
 197 413 l 1
 244 413 l 2
 341.161603532 413 388 457.195250738 388 506.124378109 c 3
 388 550.439143675 350.017307488 604 244 604 c 2
 197 604 l 1
264 316 m 2
 197 316 l 1
 197 97 l 1
 264 97 l 2
 376.572903027 97 427 153.493440233 427 206.021834061 c 3
 427 258.615820309 376.477287283 316 264 316 c 2
EndSplineSet
PickledDataWithLists: "(dp0
Vcom.schriftgestaltung.Glyphs.lastChange\\u000d\\u000d\\u000d\\u000d\\u000d\\u000d
p1
V2016-06-09 18:35:33 +0000\\u000d\\u000d\\u000d\\u000d\\u000d\\u000d
p2
s."
EndChar

StartChar: B.hex
Encoding: 65538 -1 14
GlifName: B_.hex
Width: 575
VWidth: 0
Flags: MW
LayerCount: 2
Fore
SplineSet
112.299505596 892.614380323 m 0
 120.429383125 886.024900642 124 875.92286565 124 865 c 2
 124 819 l 2
 124 807.680679758 120.49077603 797.434582054 112.147103874 790.935300585 c 0
 105.638298075 785.865283436 97.5384556952 784 89 784 c 2
 54 784 l 2
 42.6806797579 784 32.4345820537 787.50922397 25.9353005852 795.852896126 c 0
 20.8652834364 802.361701925 19 810.461544305 19 819 c 2
 19 865 l 2
 19 875.92286565 22.5706168755 886.024900642 30.700494404 892.614380323 c 0
 37.0967468189 897.798711228 45.2466187476 900 54 900 c 2
 89 900 l 2
 97.7533812524 900 105.903253181 897.798711228 112.299505596 892.614380323 c 0
404.614380323 888.299505596 m 0
 409.798711228 881.903253181 412 873.753381252 412 865 c 2
 412 819 l 2
 412 807.680679758 408.49077603 797.434582054 400.147103874 790.935300585 c 0
 393.638298075 785.865283436 385.538455695 784 377 784 c 2
 342 784 l 2
 330.680679758 784 320.434582054 787.50922397 313.935300585 795.852896126 c 0
 308.865283436 802.361701925 307 810.461544305 307 819 c 2
 307 865 l 2
 307 873.753381252 309.201288772 881.903253181 314.385619677 888.299505596 c 0
 320.975099358 896.429383125 331.07713435 900 342 900 c 2
 377 900 l 2
 387.92286565 900 398.024900642 896.429383125 404.614380323 888.299505596 c 0
548.614380323 888.299505596 m 0
 553.798711228 881.903253181 556 873.753381252 556 865 c 2
 556 819 l 2
 556 807.680679758 552.49077603 797.434582054 544.147103874 790.935300585 c 0
 537.638298075 785.865283436 529.538455695 784 521 784 c 2
 486 784 l 2
 474.680679758 784 464.434582054 787.50922397 457.935300585 795.852896126 c 0
 452.865283436 802.361701925 451 810.461544305 451 819 c 2
 451 865 l 2
 451 873.753381252 453.201288772 881.903253181 458.385619677 888.299505596 c 0
 464.975099358 896.429383125 475.07713435 900 486 900 c 2
 521 900 l 2
 531.92286565 900 542.024900642 896.429383125 548.614380323 888.299505596 c 0
404.131800509 371.763577281 m 1
 477.721614004 337.896847834 523 269.511405429 523 196 c 0
 523 89.3905077152 428.044903808 -10 264 -10 c 2
 127 -10 l 2
 118.246618748 -10 110.096746819 -7.79871122811 103.700494404 -2.61438032336 c 0
 95.5706168755 3.97509935764 92 14.07713435 92 25 c 2
 92 614 l 1
 64 614 l 2
 52.6806797579 614 42.4345820537 617.50922397 35.9353005852 625.852896126 c 0
 30.8652834364 632.361701925 29 640.461544305 29 649 c 2
 29 675 l 2
 29 683.538455695 30.8652834364 691.638298075 35.9353005852 698.147103874 c 0
 42.4345820537 706.49077603 52.6806797579 710 64 710 c 2
 244 710 l 2
 410.438371773 710 483 611.930057176 483 521 c 0
 483 457.178851864 447.652358957 402.090873471 404.131800509 371.763577281 c 1
197 614 m 1
 197 413 l 1
 244 413 l 2
 341.161603532 413 388 459.509138211 388 511 c 0
 388 557.634910359 350.017307488 614 244 614 c 2
 197 614 l 1
264 316 m 2
 197 316 l 1
 197 87 l 1
 264 87 l 2
 376.572903027 87 427 146.073049376 427 201 c 0
 427 255.995538132 376.477287283 316 264 316 c 2
EndSplineSet
PickledDataWithLists: "(dp0
Vcom.schriftgestaltung.Glyphs.lastChange\\u000d\\u000d\\u000d\\u000d\\u000d\\u000d
p1
V2016-06-09 18:35:33 +0000\\u000d\\u000d\\u000d\\u000d\\u000d\\u000d
p2
s."
EndChar

StartChar: C
Encoding: 67 67 16
GlifName: C_
Width: 575
VWidth: 0
Flags: MW
AnchorPoint: "mark-top" 288 700 basechar 0
AnchorPoint: "mark-bottom" 288 0 basechar 0
LayerCount: 2
Fore
SplineSet
445 590 m 0
 402 606 367 612 338 612 c 3
 226 612 181 523 181 389 c 2
 181 311 l 2
 181 177 226 88 338 88 c 3
 367 88 402 94 445 110 c 0
 465 118 482 111 490 91 c 2
 500 67 l 2
 508 47 502 29 482 21 c 0
 434 1 386 -10 340 -10 c 3
 286 -10 227 4 179 42 c 0
 118 90 75 174 75 311 c 2
 75 389 l 2
 75 526 118 610 179 658 c 0
 227 696 286 710 340 710 c 3
 386 710 434 699 482 679 c 0
 502 671 508 653 500 633 c 2
 490 609 l 2
 482 589 465 582 445 590 c 0
EndSplineSet
EndChar

StartChar: C.hex
Encoding: 65539 -1 17
GlifName: C_.hex
Width: 575
VWidth: 0
Flags: MW
AnchorPoint: "top" 288 700 basechar 0
AnchorPoint: "bottom" 328 0 basechar 0
LayerCount: 2
Fore
SplineSet
112.299505596 892.614380323 m 0
 120.429383125 886.024900642 124 875.92286565 124 865 c 2
 124 809 l 2
 124 797.680679758 120.49077603 787.434582054 112.147103874 780.935300585 c 0
 105.638298075 775.865283436 97.5384556952 774 89 774 c 2
 54 774 l 2
 42.6806797579 774 32.4345820537 777.50922397 25.9353005852 785.852896126 c 0
 20.8652834364 792.361701925 19 800.461544305 19 809 c 2
 19 865 l 2
 19 875.92286565 22.5706168755 886.024900642 30.700494404 892.614380323 c 0
 37.0967468189 897.798711228 45.2466187476 900 54 900 c 2
 89 900 l 2
 97.7533812524 900 105.903253181 897.798711228 112.299505596 892.614380323 c 0
256.299505596 892.614380323 m 0
 264.429383125 886.024900642 268 875.92286565 268 865 c 2
 268 819 l 2
 268 807.680679758 264.49077603 797.434582054 256.147103874 790.935300585 c 0
 249.638298075 785.865283436 241.538455695 784 233 784 c 2
 198 784 l 2
 186.680679758 784 176.434582054 787.50922397 169.935300585 795.852896126 c 0
 164.865283436 802.361701925 163 810.461544305 163 819 c 2
 163 865 l 2
 163 875.92286565 166.570616875 886.024900642 174.700494404 892.614380323 c 0
 181.096746819 897.798711228 189.246618748 900 198 900 c 2
 233 900 l 2
 241.753381252 900 249.903253181 897.798711228 256.299505596 892.614380323 c 0
445.446188623 609.649687073 m 0
 402.256393947 625.342106525 367.424414158 631.999998834 338 632 c 0
 226.165139741 632 181 538.711980788 181 400 c 2
 181 320 l 2
 181 181.137841641 226.009821201 88 338 88 c 0
 367.424414121 88 402.256393227 94.6578920835 445.44618647 110.350312109 c 0
 450.446344666 112.333097395 455.448867897 113.475216648 460.49229045 113.475217796 c 0
 474.59206726 113.475217796 484.979745217 103.923089597 490.260993177 90.7776276658 c 2
 490.260993177 90.7776276658 500.235222386 66.8394775648 500.288869569 66.7080891091 c 0
 502.426800155 61.3632626423 503.673589889 55.9868201862 503.673589889 50.5607300001 c 0
 503.673589889 37.0422925531 495.133723979 26.1211996674 481.814294156 20.7537690187 c 0
 433.797253476 0.333777430261 386.487668605 -9.99999879316 340 -10 c 0
 285.837592595 -10 227.29475945 4.25889223976 178.831345688 43.3515628901 c 0
 118.081782708 92.3547690897 75 179.1227846 75 320 c 2
 75 400 l 2
 75 540.8772154 118.081782708 627.64523091 178.831345688 676.64843711 c 0
 227.29475945 715.74110776 285.837592595 730 340 730 c 0
 386.487668076 730 433.797251896 719.666224228 481.814290975 699.246232298 c 0
 495.133723126 693.878803318 503.673589889 682.957709763 503.673589889 669.43927 c 0
 503.673589889 664.013179814 502.503864519 658.605263556 500.235222386 653.160522435 c 2
 490.260993177 629.222372334 l 2
 484.979745217 616.076910403 474.59206726 606.524782204 460.49229045 606.524782204 c 0
 455.448868189 606.524782204 450.446345656 607.666901137 445.446188623 609.649687073 c 0
EndSplineSet
PickledDataWithLists: "(dp0
Vcom.schriftgestaltung.Glyphs.lastChange\\u000d\\u000d\\u000d\\u000d\\u000d\\u000d
p1
V2016-06-09 18:35:33 +0000\\u000d\\u000d\\u000d\\u000d\\u000d\\u000d
p2
s."
EndChar

StartChar: D
Encoding: 68 68 23
GlifName: D_
Width: 575
VWidth: 0
Flags: MW
AnchorPoint: "mark-top" 288 700 basechar 0
AnchorPoint: "mark-bottom" 288 0 basechar 0
LayerCount: 2
Back
SplineSet
64 700 m 2
 144 700 l 2
 255.359173712 700 343.249645153 686.894145753 407.273207684 648.294930434 c 0
 487.926303005 599.669923182 526.954763237 512.026218039 526.999960698 369.692039275 c 0
 527.666640465 356.728821576 528.333320233 343.765603876 529 330.802386177 c 2
 529 330.555555556 l 2
 529 231.130841891 512.623508596 154.501028052 470.356897563 99.7184453674 c 0
 417.252884611 30.8892937194 325.641110519 1.42108547152e-14 185 0 c 2
 127 0 l 2
 118.246618748 0 110.096746819 2.20128877189 103.700494404 7.38561967664 c 0
 95.5706168755 13.7613683812 92 23.5357420243 92 34.1043225327 c 2
 92 604 l 1
 64 604 l 2
 42.4845436844 604 29 617.484543684 29 639 c 2
 29 665 l 2
 29 686.515456316 42.4845436844 700 64 700 c 2
378.843662004 155.260064758 m 0
 407.813476789 193.088036436 422 249.698120865 422 330 c 2
 422 370 l 2
 422 442.72087135 409.216686068 498.655157074 380.96440435 537.991819393 c 0
 347.121767847 585.112132627 289.50556652 611.173392113 197 612.907444499 c 1
 197 87.0810901016 l 1
 286.206223442 88.54836003 344.163331447 109.975461738 378.843662004 155.260064758 c 0
EndSplineSet
Fore
SplineSet
64 700 m 2
 144 700 l 2
 255 700 343 687 407 648 c 0
 488 599 529 512 529 370 c 2
 529 331 l 2
 529 232 512 155 470 100 c 0
 417 31 326 0 185 0 c 2
 127 0 l 2
 106 0 92 13 92 34 c 2
 92 604 l 1
 64 604 l 2
 42 604 29 617 29 639 c 2
 29 665 l 2
 29 687 42 700 64 700 c 2
379 155 m 0
 408 193 422 250 422 330 c 2
 422 370 l 2
 422 443 409 499 381 538 c 0
 347 585 290 611 197 613 c 1
 197 87 l 1
 286 88 344 110 379 155 c 0
EndSplineSet
PickledDataWithLists: "(dp0
Vcom.schriftgestaltung.Glyphs.lastChange\\u000d\\u000d\\u000d\\u000d\\u000d\\u000d
p1
V2016-06-09 18:46:00 +0000\\u000d\\u000d\\u000d\\u000d\\u000d\\u000d
p2
s."
EndChar

StartChar: D.hex
Encoding: 65540 -1 24
GlifName: D_.hex
Width: 575
VWidth: 0
Flags: MW
AnchorPoint: "center" 288 350 basechar 0
AnchorPoint: "top" 288 700 basechar 0
LayerCount: 2
Fore
SplineSet
112.299505596 892.614380323 m 0
 120.429383125 886.024900642 124 875.92286565 124 865 c 2
 124 819 l 2
 124 807.680679758 120.49077603 797.434582054 112.147103874 790.935300585 c 0
 105.638298075 785.865283436 97.5384556952 784 89 784 c 2
 54 784 l 2
 42.6806797579 784 32.4345820537 787.50922397 25.9353005852 795.852896126 c 0
 20.8652834364 802.361701925 19 810.461544305 19 819 c 2
 19 865 l 2
 19 875.92286565 22.5706168755 886.024900642 30.700494404 892.614380323 c 0
 37.0967468189 897.798711228 45.2466187476 900 54 900 c 2
 89 900 l 2
 97.7533812524 900 105.903253181 897.798711228 112.299505596 892.614380323 c 0
256.299505596 892.614380323 m 0
 264.429383125 886.024900642 268 875.92286565 268 865 c 2
 268 819 l 2
 268 807.680679758 264.49077603 797.434582054 256.147103874 790.935300585 c 0
 249.638298075 785.865283436 241.538455695 784 233 784 c 2
 198 784 l 2
 186.680679758 784 176.434582054 787.50922397 169.935300585 795.852896126 c 0
 164.865283436 802.361701925 163 810.461544305 163 819 c 2
 163 865 l 2
 163 875.92286565 166.570616875 886.024900642 174.700494404 892.614380323 c 0
 181.096746819 897.798711228 189.246618748 900 198 900 c 2
 233 900 l 2
 241.753381252 900 249.903253181 897.798711228 256.299505596 892.614380323 c 0
548.614380323 888.299505596 m 0
 553.798711228 881.903253181 556 873.753381252 556 865 c 2
 556 819 l 2
 556 807.680679758 552.49077603 797.434582054 544.147103874 790.935300585 c 0
 537.638298075 785.865283436 529.538455695 784 521 784 c 2
 486 784 l 2
 474.680679758 784 464.434582054 787.50922397 457.935300585 795.852896126 c 0
 452.865283436 802.361701925 451 810.461544305 451 819 c 2
 451 865 l 2
 451 873.753381252 453.201288772 881.903253181 458.385619677 888.299505596 c 0
 464.975099358 896.429383125 475.07713435 900 486 900 c 2
 521 900 l 2
 531.92286565 900 542.024900642 896.429383125 548.614380323 888.299505596 c 0
35.9353005852 698.147103874 m 0
 42.4345820537 706.49077603 52.6806797579 710 64 710 c 2
 144 710 l 2
 255.359173712 710 343.249645153 696.519692774 407.273207684 656.817642732 c 0
 487.973058798 606.774355533 527 516.551005027 527 370 c 2
 527 330 l 2
 527 227.734580231 510.623508596 148.915343139 468.356897563 92.5675438065 c 0
 415.252884611 21.7718449685 323.641110519 -10 183 -10 c 2
 127 -10 l 2
 118.246618748 -10 110.096746819 -7.79871122811 103.700494404 -2.61438032336 c 0
 95.5706168755 3.97509935764 92 14.07713435 92 25 c 2
 92 614 l 1
 64 614 l 2
 52.6806797579 614 42.4345820537 617.50922397 35.9353005852 625.852896126 c 0
 30.8652834364 632.361701925 29 640.461544305 29 649 c 2
 29 675 l 2
 29 683.538455695 30.8652834364 691.638298075 35.9353005852 698.147103874 c 0
378.843662004 155.260064758 m 0
 407.813476789 193.088036436 422 249.698120865 422 330 c 2
 422 370 l 2
 422 442.725037389 409.225701524 497.614891582 381.008745306 536.284479393 c 0
 347.206866008 582.607857773 289.531369837 608.408056707 197 612.627864658 c 1
 197 87.0810901016 l 1
 286.206223442 88.54836003 344.163331447 109.975461738 378.843662004 155.260064758 c 0
EndSplineSet
PickledDataWithLists: "(dp0
Vcom.schriftgestaltung.Glyphs.lastChange\\u000d\\u000d\\u000d\\u000d\\u000d\\u000d
p1
V2016-06-09 18:35:33 +0000\\u000d\\u000d\\u000d\\u000d\\u000d\\u000d
p2
s."
EndChar

StartChar: E
Encoding: 69 69 27
GlifName: E_
Width: 575
VWidth: 0
Flags: MW
AnchorPoint: "mark-top" 288 700 basechar 0
AnchorPoint: "mark-ogonek" 483 0 basechar 0
AnchorPoint: "mark-bottom" 288 -0 basechar 0
LayerCount: 2
Fore
SplineSet
448 316 m 2
 180 316 l 1
 180 97 l 1
 491 97 l 2
 513 97 526 84 526 62 c 2
 526 35 l 2
 526 13 513 0 491 0 c 2
 110 0 l 2
 89 0 75 13 75 34 c 2
 75 666 l 2
 75 687 89 700 110 700 c 2
 469 700 l 2
 491 700 504 687 504 665 c 2
 504 639 l 2
 504 617 491 604 469 604 c 2
 180 604 l 1
 180 413 l 1
 448 413 l 2
 470 413 483 400 483 378 c 2
 483 351 l 2
 483 329 470 316 448 316 c 2
EndSplineSet
PickledDataWithLists: "(dp0
Vcom.schriftgestaltung.Glyphs.lastChange\\u000d\\u000d\\u000d\\u000d\\u000d\\u000d
p1
V2016-06-09 18:35:33 +0000\\u000d\\u000d\\u000d\\u000d\\u000d\\u000d
p2
s."
EndChar

StartChar: E.hex
Encoding: 65541 -1 28
GlifName: E_.hex
Width: 575
VWidth: 0
Flags: MW
AnchorPoint: "ogonek" 518 1 basechar 0
AnchorPoint: "bottom" 288 0 basechar 0
AnchorPoint: "top" 288 700 basechar 0
LayerCount: 2
Fore
SplineSet
19.0134745117 864.469190184 m 2
 18.9589976388 865.372410067 18.9313411796 866.269361583 18.9313411796 867.160333138 c 0
 18.9313411796 877.847456411 23.2199143349 887.454793867 31.3962123987 893.393845247 c 0
 37.782854803 898.032937058 45.6446973558 900 54 900 c 2
 89 900 l 2
 99.9632191279 900 109.86914695 896.310029826 116.278464135 888.205069659 c 0
 121.26800181 881.895504544 123.615614028 874.061773411 123.990432578 865.440946748 c 2
 125.987257186 819.513980769 l 2
 126.041203833 818.571559337 126.06865882 817.638584908 126.06865882 816.714233512 c 0
 126.06865882 805.732761369 121.81391621 796.003445202 113.436246079 790.176377683 c 0
 106.957184011 785.669882256 99.1580358694 784 91 784 c 2
 56 784 l 2
 44.6436082876 784 34.5900170888 787.62834668 28.2708250106 795.951719261 c 0
 23.3995833315 802.367912808 21.3753942045 810.145037251 21.0095674218 818.559053252 c 2
 19.0134745117 864.469190184 l 2
256.299505596 892.614380323 m 0
 264.429383125 886.024900642 268 875.92286565 268 865 c 2
 268 819 l 2
 268 807.680679758 264.49077603 797.434582054 256.147103874 790.935300585 c 0
 249.638298075 785.865283436 241.538455695 784 233 784 c 2
 198 784 l 2
 186.680679758 784 176.434582054 787.50922397 169.935300585 795.852896126 c 0
 164.865283436 802.361701925 163 810.461544305 163 819 c 2
 163 865 l 2
 163 875.92286565 166.570616875 886.024900642 174.700494404 892.614380323 c 0
 181.096746819 897.798711228 189.246618748 900 198 900 c 2
 233 900 l 2
 241.753381252 900 249.903253181 897.798711228 256.299505596 892.614380323 c 0
404.614380323 888.299505596 m 0
 409.798711228 881.903253181 412 873.753381252 412 865 c 2
 412 819 l 2
 412 807.680679758 408.49077603 797.434582054 400.147103874 790.935300585 c 0
 393.638298075 785.865283436 385.538455695 784 377 784 c 2
 342 784 l 2
 330.680679758 784 320.434582054 787.50922397 313.935300585 795.852896126 c 0
 308.865283436 802.361701925 307 810.461544305 307 819 c 2
 307 865 l 2
 307 873.753381252 309.201288772 881.903253181 314.385619677 888.299505596 c 0
 320.975099358 896.429383125 331.07713435 900 342 900 c 2
 377 900 l 2
 387.92286565 900 398.024900642 896.429383125 404.614380323 888.299505596 c 0
448 316 m 2
 180 316 l 1
 180 87 l 1
 491 87 l 2
 501.92286565 87 512.024900642 83.4293831245 518.614380323 75.299505596 c 0
 523.798711228 68.9032531811 526 60.7533812524 526 52 c 2
 526 25 l 2
 526 16.2466187476 523.798711228 8.09674681893 518.614380323 1.70049440398 c 0
 512.024900642 -6.42938312452 501.92286565 -10 491 -10 c 2
 110 -10 l 2
 101.246618748 -10 93.0967468189 -7.79871122811 86.700494404 -2.61438032336 c 0
 78.5706168755 3.97509935764 75 14.07713435 75 25 c 2
 75 675 l 2
 75 685.92286565 78.5706168755 696.024900642 86.700494404 702.614380323 c 0
 93.0967468189 707.798711228 101.246618748 710 110 710 c 2
 469 710 l 2
 477.538455695 710 485.638298075 708.134716564 492.147103874 703.064699415 c 0
 500.49077603 696.565417946 504 686.319320242 504 675 c 2
 504 649 l 2
 504 637.680679758 500.49077603 627.434582054 492.147103874 620.935300585 c 0
 485.638298075 615.865283436 477.538455695 614 469 614 c 2
 180 614 l 1
 180 413 l 1
 448 413 l 2
 458.92286565 413 469.024900642 409.429383125 475.614380323 401.299505596 c 0
 480.798711228 394.903253181 483 386.753381252 483 378 c 2
 483 351 l 2
 483 342.246618748 480.798711228 334.096746819 475.614380323 327.700494404 c 0
 469.024900642 319.570616875 458.92286565 316 448 316 c 2
EndSplineSet
PickledDataWithLists: "(dp0
Vcom.schriftgestaltung.Glyphs.lastChange\\u000d\\u000d\\u000d\\u000d\\u000d\\u000d
p1
V2016-06-09 18:35:33 +0000\\u000d\\u000d\\u000d\\u000d\\u000d\\u000d
p2
s."
EndChar

StartChar: Eth
Encoding: 208 208 39
GlifName: E_th
Width: 575
VWidth: 0
Flags: MW
LayerCount: 2
Fore
SplineSet
64 700 m 2
 144 700 l 2
 422 700 527 609 527 369 c 2
 527 331 l 2
 527 94 430 0 183 0 c 2
 127 0 l 2
 106 0 92 13 92 34 c 2
 92 302 l 1
 67 302 l 2
 45 302 32 315 32 337 c 2
 32 363 l 2
 32 385 45 399 67 399 c 2
 92 399 l 1
 92 604 l 1
 64 604 l 2
 42 604 29 617 29 639 c 2
 29 665 l 2
 29 687 42 700 64 700 c 2
290 302 m 2
 197 302 l 1
 197 87 l 1
 359 90 422 158 422 330 c 2
 422 370 l 2
 422 535 357 606 197 613 c 1
 197 399 l 1
 290 399 l 2
 312 399 325 386 325 364 c 2
 325 337 l 2
 325 315 312 302 290 302 c 2
EndSplineSet
PickledDataWithLists: "(dp0
Vcom.schriftgestaltung.Glyphs.lastChange\\u000d\\u000d\\u000d\\u000d\\u000d\\u000d
p1
V2016-06-09 18:35:33 +0000\\u000d\\u000d\\u000d\\u000d\\u000d\\u000d
p2
s."
EndChar

StartChar: Euro
Encoding: 8364 8364 40
GlifName: E_uro
Width: 575
VWidth: 0
Flags: MW
LayerCount: 2
Fore
SplineSet
448 375 m 2
 68 375 l 2
 46 375 33 388 33 410 c 2
 33 431 l 2
 33 453 46 466 68 466 c 2
 77 466 l 1
 91 638 180 720 351 720 c 3
 401 720 453 716 501 707 c 0
 523 703 534 687 529 666 c 2
 523 638 l 2
 519 619 501 608 481 612 c 0
 448 618 381 624 351 624 c 3
 239 624 191 579 182 466 c 1
 448 466 l 2
 470 466 483 453 483 431 c 2
 483 410 l 2
 483 388 470 375 448 375 c 2
351 77 m 3
 392 77 439 81 481 88 c 0
 503 92 518 82 523 61 c 2
 529 35 l 2
 534 14 523 -3 501 -7 c 0
 453 -16 405 -20 351 -20 c 3
 180 -20 90 63 77 234 c 1
 68 234 l 2
 46 234 33 247 33 269 c 2
 33 290 l 2
 33 312 46 325 68 325 c 2
 448 325 l 2
 470 325 483 312 483 290 c 2
 483 269 l 2
 483 247 470 234 448 234 c 2
 183 234 l 1
 194 119 239 77 351 77 c 3
EndSplineSet
PickledDataWithLists: "(dp0
Vcom.schriftgestaltung.Glyphs.lastChange\\u000d\\u000d\\u000d\\u000d\\u000d\\u000d
p1
V2015-12-22 14:04:06 +0000\\u000d\\u000d\\u000d\\u000d\\u000d\\u000d
p2
s."
EndChar

StartChar: F
Encoding: 70 70 41
GlifName: F_
Width: 575
VWidth: 0
Flags: MW
AnchorPoint: "mark-top" 288 700 basechar 0
AnchorPoint: "mark-bottom" 288 0 basechar 0
LayerCount: 2
Fore
SplineSet
110 700 m 2
 491 700 l 2
 513 700 526 687 526 665 c 2
 526 639 l 2
 526 617 513 604 491 604 c 2
 180 604 l 1
 180 379 l 1
 469 379 l 2
 491 379 504 366 504 344 c 2
 504 317 l 2
 504 295 491 282 469 282 c 2
 180 282 l 1
 180 34 l 2
 180 13 166 0 145 0 c 2
 110 0 l 2
 89 0 75 13 75 34 c 2
 75 666 l 2
 75 687 89 700 110 700 c 2
EndSplineSet
PickledDataWithLists: "(dp0
Vcom.schriftgestaltung.Glyphs.lastChange\\u000d\\u000d\\u000d\\u000d\\u000d\\u000d
p1
V2016-06-09 18:35:33 +0000\\u000d\\u000d\\u000d\\u000d\\u000d\\u000d
p2
s."
EndChar

StartChar: F.hex
Encoding: 65542 -1 42
GlifName: F_.hex
Width: 575
VWidth: 0
Flags: MW
LayerCount: 2
Fore
SplineSet
138.299505596 892.614380323 m 0
 146.429383125 886.024900642 150 875.92286565 150 865 c 2
 150 819 l 2
 150 807.680679758 146.49077603 797.434582054 138.147103874 790.935300585 c 0
 131.638298075 785.865283436 123.538455695 784 115 784 c 2
 80 784 l 2
 68.6806797579 784 58.4345820537 787.50922397 51.9353005852 795.852896126 c 0
 46.8652834364 802.361701925 45 810.461544305 45 819 c 2
 45 865 l 2
 45 875.92286565 48.5706168755 886.024900642 56.700494404 892.614380323 c 0
 63.0967468189 897.798711228 71.2466187476 900 80 900 c 2
 115 900 l 2
 123.753381252 900 131.903253181 897.798711228 138.299505596 892.614380323 c 0
262.299505596 892.614380323 m 0
 270.429383125 886.024900642 274 875.92286565 274 865 c 2
 274 819 l 2
 274 807.680679758 270.49077603 797.434582054 262.147103874 790.935300585 c 0
 255.638298075 785.865283436 247.538455695 784 239 784 c 2
 204 784 l 2
 192.680679758 784 182.434582054 787.50922397 175.935300585 795.852896126 c 0
 170.865283436 802.361701925 169 810.461544305 169 819 c 2
 169 865 l 2
 169 875.92286565 172.570616875 886.024900642 180.700494404 892.614380323 c 0
 187.096746819 897.798711228 195.246618748 900 204 900 c 2
 239 900 l 2
 247.753381252 900 255.903253181 897.798711228 262.299505596 892.614380323 c 0
390.614380323 888.299505596 m 0
 395.798711228 881.903253181 398 873.753381252 398 865 c 2
 398 819 l 2
 398 807.680679758 394.49077603 797.434582054 386.147103874 790.935300585 c 0
 379.638298075 785.865283436 371.538455695 784 363 784 c 2
 328 784 l 2
 316.680679758 784 306.434582054 787.50922397 299.935300585 795.852896126 c 0
 294.865283436 802.361701925 293 810.461544305 293 819 c 2
 293 865 l 2
 293 873.753381252 295.201288772 881.903253181 300.385619677 888.299505596 c 0
 306.975099358 896.429383125 317.07713435 900 328 900 c 2
 363 900 l 2
 373.92286565 900 384.024900642 896.429383125 390.614380323 888.299505596 c 0
514.614380323 888.299505596 m 0
 519.798711228 881.903253181 522 873.753381252 522 865 c 2
 522 819 l 2
 522 807.680679758 518.49077603 797.434582054 510.147103874 790.935300585 c 0
 503.638298075 785.865283436 495.538455695 784 487 784 c 2
 452 784 l 2
 440.680679758 784 430.434582054 787.50922397 423.935300585 795.852896126 c 0
 418.865283436 802.361701925 417 810.461544305 417 819 c 2
 417 865 l 2
 417 873.753381252 419.201288772 881.903253181 424.385619677 888.299505596 c 0
 430.975099358 896.429383125 441.07713435 900 452 900 c 2
 487 900 l 2
 497.92286565 900 508.024900642 896.429383125 514.614380323 888.299505596 c 0
86.700494404 702.614380323 m 0
 93.0967468189 707.798711228 101.246618748 710 110 710 c 2
 491 710 l 2
 499.538455695 710 507.638298075 708.134716564 514.147103874 703.064699415 c 0
 522.49077603 696.565417946 526 686.319320242 526 675 c 2
 526 649 l 2
 526 637.680679758 522.49077603 627.434582054 514.147103874 620.935300585 c 0
 507.638298075 615.865283436 499.538455695 614 491 614 c 2
 180 614 l 1
 180 378 l 1
 469 378 l 2
 479.92286565 378 490.024900642 374.429383125 496.614380323 366.299505596 c 0
 501.798711228 359.903253181 504 351.753381252 504 343 c 2
 504 316 l 2
 504 305.072680658 500.351393588 295.064392012 492.04159304 288.766437911 c 0
 485.572173511 283.8632989 477.54567858 282 469 282 c 2
 180 282 l 1
 180 25 l 2
 180 16.4615443048 178.134716564 8.36170192496 173.064699415 1.85289612578 c 0
 166.565417946 -6.49077602975 156.319320242 -10 145 -10 c 2
 110 -10 l 2
 101.246618748 -10 93.0967468189 -7.79871122811 86.700494404 -2.61438032336 c 0
 78.5706168755 3.97509935764 75 14.07713435 75 25 c 2
 75 675 l 2
 75 685.92286565 78.5706168755 696.024900642 86.700494404 702.614380323 c 0
EndSplineSet
PickledDataWithLists: "(dp0
Vcom.schriftgestaltung.Glyphs.lastChange\\u000d\\u000d\\u000d\\u000d\\u000d\\u000d
p1
V2016-06-09 18:35:33 +0000\\u000d\\u000d\\u000d\\u000d\\u000d\\u000d
p2
s."
EndChar

StartChar: G
Encoding: 71 71 43
GlifName: G_
Width: 575
VWidth: 0
Flags: MW
AnchorPoint: "mark-top" 288 700 basechar 0
AnchorPoint: "mark-bottom" 288 0 basechar 0
LayerCount: 2
Fore
SplineSet
181 388.529411765 m 2
 181 311.470588235 l 2
 181 177.713656286 226.009821201 88 338 88 c 3
 356.968060223 88 379.626483568 91.0410103232 405 97.2554237677 c 1
 405 302 l 1
 343 302 l 2
 321.484543684 302 308 315.484543684 308 337 c 2
 308 364 l 2
 308 385.515456316 321.484543684 399 343 399 c 2
 475 399 l 2
 496.515456315 399 510 385.837283133 510 364.835322196 c 2
 510 59.3054892601 l 2
 510 42.5998985974 501.440512775 27.9510567032 484.931953192 21.0448164682 c 0
 434.868536087 0.101136690962 386.517945723 -10 340 -10 c 3
 285.837592595 -10 227.29475945 3.87351677382 178.831345688 41.909628758 c 0
 118.081782708 89.5884239791 75 174.011357989 75 311.081081081 c 2
 75 388.918918919 l 2
 75 525.988642011 118.081782708 610.411576021 178.831345688 658.090371242 c 0
 227.29475945 696.126483226 285.837592595 710 340 710 c 3
 386.487668076 710 433.797251896 699.666224228 481.814290975 679.246232298 c 0
 501.316076338 671.387455232 508.585404961 653.200960621 500.235222386 633.160522435 c 2
 490.260993177 609.222372334 l 2
 482.230851708 589.234687647 465.223863708 581.806954185 445.446188623 589.649687073 c 0
 402.256393947 605.342106525 367.424414158 611.999998834 338 612 c 3
 226.165139741 612 181 522.141687377 181 388.529411765 c 2
EndSplineSet
EndChar

StartChar: Gamma
Encoding: 915 915 44
GlifName: G_amma
Width: 575
VWidth: 0
Flags: MW
AnchorPoint: "mark-top" 288 700 basechar 0
LayerCount: 2
Fore
SplineSet
95 700 m 2
 480 700 l 2
 503 700 515 688 515 665 c 2
 515 639 l 2
 515 616 503 604 480 604 c 2
 165 604 l 1
 165 34 l 2
 165 13 152 0 130 0 c 2
 95 0 l 2
 74 0 60 13 60 34 c 2
 60 666 l 2
 60 687 73 700 95 700 c 2
EndSplineSet
PickledDataWithLists: "(dp0
Vcom.schriftgestaltung.Glyphs.lastChange\\u000d\\u000d\\u000d\\u000d\\u000d\\u000d
p1
V2015-12-22 16:32:37 +0000\\u000d\\u000d\\u000d\\u000d\\u000d\\u000d
p2
s."
EndChar

StartChar: H
Encoding: 72 72 46
GlifName: H_
Width: 575
VWidth: 0
Flags: MW
AnchorPoint: "mark-bottom" 288 -0 basechar 0
AnchorPoint: "mark-top" 288 700 basechar 0
LayerCount: 2
Fore
SplineSet
447 700 m 2
 482 700 l 2
 504 700 517 687 517 666 c 2
 517 34 l 2
 517 13 504 0 482 0 c 2
 447 0 l 2
 425 0 412 13 412 34 c 2
 412 323 l 1
 163 323 l 1
 163 34 l 2
 163 13 149 0 128 0 c 2
 93 0 l 2
 72 0 58 13 58 34 c 2
 58 666 l 2
 58 687 72 700 93 700 c 2
 128 700 l 2
 149 700 163 687 163 666 c 2
 163 420 l 1
 412 420 l 1
 412 666 l 2
 412 687 425 700 447 700 c 2
EndSplineSet
PickledDataWithLists: "(dp0
Vcom.schriftgestaltung.Glyphs.lastChange\\u000d\\u000d\\u000d\\u000d\\u000d\\u000d
p1
V2016-06-09 18:35:33 +0000\\u000d\\u000d\\u000d\\u000d\\u000d\\u000d
p2
s."
EndChar

StartChar: I
Encoding: 73 73 48
GlifName: I_
Width: 575
VWidth: 0
Flags: MW
AnchorPoint: "mark-bottom" 288 0 basechar 0
AnchorPoint: "mark-top" 288 700 basechar 0
AnchorPoint: "mark-ogonek" 456 0 basechar 0
LayerCount: 2
Fore
SplineSet
120 700 m 2
 455 700 l 2
 477 700 490 687 490 665 c 2
 490 639 l 2
 490 617 477 604 455 604 c 2
 340 604 l 1
 340 97 l 1
 465 97 l 2
 487 97 500 84 500 62 c 2
 500 35 l 2
 500 13 487 0 465 0 c 2
 110 0 l 2
 88 0 75 13 75 35 c 2
 75 62 l 2
 75 84 88 97 110 97 c 2
 235 97 l 1
 235 604 l 1
 120 604 l 2
 98 604 85 617 85 639 c 2
 85 665 l 2
 85 687 98 700 120 700 c 2
EndSplineSet
PickledDataWithLists: "(dp0
Vcom.schriftgestaltung.Glyphs.lastChange\\u000d\\u000d\\u000d\\u000d\\u000d\\u000d
p1
V2016-06-09 18:35:33 +0000\\u000d\\u000d\\u000d\\u000d\\u000d\\u000d
p2
s."
EndChar

StartChar: IJ
Encoding: 306 306 49
GlifName: I_J_
Width: 575
VWidth: 0
Flags: MW
LayerCount: 2
Fore
SplineSet
90 700 m 2
 225 700 l 2
 247 700 260 687 260 665 c 2
 260 639 l 2
 260 617 247 604 225 604 c 2
 210 604 l 1
 210 97 l 1
 235 97 l 2
 257 97 270 84 270 62 c 2
 270 35 l 2
 270 13 257 0 235 0 c 2
 80 0 l 2
 58 0 45 13 45 35 c 2
 45 62 l 2
 45 84 58 97 80 97 c 2
 105 97 l 1
 105 604 l 1
 90 604 l 2
 68 604 55 617 55 639 c 2
 55 665 l 2
 55 687 68 700 90 700 c 2
352 700 m 2
 465 700 l 2
 487 700 500 688 500 666 c 2
 500 131 l 2
 500 37 456 1 341 1 c 3
 318 1 305 14 305 35 c 2
 305 62 l 2
 305 84 318 97 340 97 c 3
 380 97 395 108 395 134 c 2
 395 604 l 1
 352 604 l 2
 330 604 317 617 317 639 c 2
 317 665 l 2
 317 687 330 700 352 700 c 2
EndSplineSet
PickledDataWithLists: "(dp0
Vcom.schriftgestaltung.Glyphs.lastChange\\u000d\\u000d\\u000d\\u000d\\u000d\\u000d
p1
V2016-06-09 18:35:33 +0000\\u000d\\u000d\\u000d\\u000d\\u000d\\u000d
p2
s."
EndChar

StartChar: J
Encoding: 74 74 57
GlifName: J_
Width: 575
VWidth: 0
Flags: MW
AnchorPoint: "mark-top" 288 700 basechar 0
AnchorPoint: "mark-bottom" 288 0 basechar 0
LayerCount: 2
Fore
SplineSet
185 700 m 2
 465 700 l 2
 486 700 500 686 500 665 c 2
 500 272 l 2
 500 156 462 81 404 38 c 0
 358 3 300 -10 243 -10 c 3
 195 -10 141 0 93 21 c 0
 73 29 67 47 75 67 c 2
 85 91 l 2
 93 111 110 118 130 110 c 0
 173 94 208 88 237 88 c 3
 270 88 305 97 333 118 c 0
 368 144 394 192 394 273 c 2
 394 604 l 1
 185 604 l 2
 163 604 150 617 150 639 c 2
 150 665 l 2
 150 687 163 700 185 700 c 2
EndSplineSet
EndChar

StartChar: K
Encoding: 75 75 59
GlifName: K_
Width: 575
VWidth: 0
Flags: MW
AnchorPoint: "mark-bottom" 288 -0 basechar 0
AnchorPoint: "mark-top" 288 700 basechar 0
LayerCount: 2
Fore
SplineSet
495 0 m 2
 443 0 l 2
 427 0 415 6 405 20 c 2
 185 326 l 2
 183 329 180 330 180 330 c 1
 180 35 l 2
 180 13 167 0 145 0 c 2
 110 0 l 2
 89 0 75 13 75 34 c 2
 75 666 l 2
 75 687 89 700 110 700 c 2
 145 700 l 2
 167 700 180 687 180 665 c 2
 180 391 l 1
 180 391 183 392 185 395 c 2
 389 681 l 2
 398 694 411 700 427 700 c 2
 480 700 l 2
 509 700 521 678 503 655 c 2
 290 380 l 2
 284 373 277 366 269 361 c 1
 277 356 284 348 290 341 c 2
 518 46 l 2
 536 23 524 0 495 0 c 2
EndSplineSet
EndChar

StartChar: L
Encoding: 76 76 61
GlifName: L_
Width: 575
VWidth: 0
Flags: MW
AnchorPoint: "mark-centerright" 370 400 basechar 0
AnchorPoint: "mark-bottom" 288 0 basechar 0
AnchorPoint: "mark-topright" 390 700 basechar 0
AnchorPoint: "mark-top" 288 700 basechar 0
LayerCount: 2
Fore
SplineSet
180 666 m 2
 180 97 l 1
 529 97 l 2
 551 97 564 84 564 62 c 2
 564 35 l 2
 564 13 551 0 529 0 c 2
 110 0 l 2
 89 0 75 13 75 34 c 2
 75 666 l 2
 75 687 89 700 110 700 c 2
 145 700 l 2
 166 700 180 687 180 666 c 2
EndSplineSet
PickledDataWithLists: "(dp0
Vcom.schriftgestaltung.Glyphs.lastChange\\u000d\\u000d\\u000d\\u000d\\u000d\\u000d
p1
V2016-06-09 18:35:33 +0000\\u000d\\u000d\\u000d\\u000d\\u000d\\u000d
p2
s."
EndChar

StartChar: Lambda
Encoding: 923 923 63
GlifName: L_ambda
Width: 575
VWidth: 0
Flags: MW
AnchorPoint: "mark-top" 288 700 basechar 0
LayerCount: 2
Back
SplineSet
288 710 m 256
 352 710 396 679 410 621 c 258
 558 28 l 258
 563 11 554 0 537 0 c 258
 501 0 l 258
 486 0 477 7 473 22 c 258
 327 607 l 258
 323 624 309 634 288 634 c 256
 267 634 253 624 249 607 c 258
 102 22 l 258
 99 7 89 0 74 0 c 258
 39 0 l 258
 21 0 13 11 17 28 c 258
 165 621 l 258
 180 679 223 710 288 710 c 256
EndSplineSet
Fore
SplineSet
73 0 m 2
 39 0 l 2
 14 0 0 17 7 40 c 2
 185 617 l 2
 203 676 242 712 287 712 c 3
 332 712 372 675 390 617 c 2
 568 40 l 2
 575 18 561 0 537 0 c 2
 502 0 l 2
 483 0 468 11 463 29 c 2
 288 612 l 1
 112 29 l 2
 107 11 92 0 73 0 c 2
EndSplineSet
PickledDataWithLists: "(dp0
Vcom.schriftgestaltung.Glyphs.lastChange\\u000d\\u000d\\u000d\\u000d\\u000d\\u000d
p1
V2015-12-22 12:18:02 +0000\\u000d\\u000d\\u000d\\u000d\\u000d\\u000d
p2
s."
EndChar

StartChar: Lslash
Encoding: 321 321 66
GlifName: L_slash
Width: 575
VWidth: 0
Flags: MW
LayerCount: 2
Fore
SplineSet
180 340 m 1
 180 97 l 1
 529 97 l 2
 551 97 564 84 564 62 c 2
 564 35 l 2
 564 13 551 0 529 0 c 2
 110 0 l 2
 89 0 75 13 75 34 c 2
 75 262 l 1
 60 251 39 253 26 267 c 2
 6 289 l 2
 -8 304 -4 328 13 340 c 2
 75 386 l 1
 75 666 l 2
 75 687 89 700 110 700 c 2
 145 700 l 2
 167 700 180 688 180 666 c 2
 180 464 l 1
 252 516 l 2
 267 526 288 523 300 509 c 2
 319 487 l 2
 333 471 330 449 313 437 c 2
 180 340 l 1
EndSplineSet
PickledDataWithLists: "(dp0
Vcom.schriftgestaltung.Glyphs.lastChange\\u000d\\u000d\\u000d\\u000d\\u000d\\u000d
p1
V2016-06-09 18:35:33 +0000\\u000d\\u000d\\u000d\\u000d\\u000d\\u000d
p2
s."
EndChar

StartChar: M
Encoding: 77 77 67
GlifName: M_
Width: 575
VWidth: 0
Flags: MW
AnchorPoint: "mark-top" 288 700 basechar 0
AnchorPoint: "mark-bottom" 288 0 basechar 0
LayerCount: 2
Fore
SplineSet
481 700 m 2
 498 700 l 2
 521 700 535 687 535 666 c 2
 555 35 l 2
 555 15 539 0 519 0 c 2
 485 0 l 2
 465 0 451 15 450 35 c 2
 433 510 l 1
 340 324 l 2
 333 308 320 300 302 300 c 2
 274 300 l 2
 256 300 243 308 236 324 c 2
 143 510 l 1
 126 35 l 2
 125 15 111 0 91 0 c 2
 57 0 l 2
 37 0 21 15 21 35 c 2
 41 666 l 2
 41 687 55 700 78 700 c 2
 95 700 l 2
 127 700 150 686 163 658 c 2
 288 411 l 1
 413 658 l 2
 426 686 449 700 481 700 c 2
EndSplineSet
EndChar

StartChar: N
Encoding: 78 78 69
GlifName: N_
Width: 575
VWidth: 0
Flags: MW
AnchorPoint: "mark-top" 288 700 basechar 0
AnchorPoint: "mark-bottom" 288 0 basechar 0
LayerCount: 2
Fore
SplineSet
446 700 m 2
 481 700 l 2
 503 700 516 687 516 666 c 2
 516 34 l 2
 516 13 503 0 481 0 c 2
 463 0 l 2
 432 0 409 13 395 41 c 2
 164 495 l 1
 164 35 l 2
 164 13 151 0 129 0 c 2
 94 0 l 2
 73 0 59 13 59 34 c 2
 59 666 l 2
 59 687 73 700 94 700 c 2
 112 700 l 2
 147 700 168 688 180 663 c 2
 411 201 l 1
 411 665 l 2
 411 687 424 700 446 700 c 2
EndSplineSet
EndChar

StartChar: O
Encoding: 79 79 74
GlifName: O_
Width: 575
VWidth: 0
Flags: MW
AnchorPoint: "mark-horn" 390 670 basechar 0
AnchorPoint: "mark-top" 288 700 basechar 0
AnchorPoint: "mark-bottom" 288 0 basechar 0
LayerCount: 2
Fore
SplineSet
65 245.891891892 m 2
 65 454.108108108 l 2
 65 620.779325116 164.069074608 710 288 710 c 3
 412.053460483 710 510 618.754846742 510 454.108108108 c 2
 510 245.891891892 l 2
 510 81.2451532579 412.053460483 -10 288 -10 c 3
 164.069074608 -10 65 79.2206748845 65 245.891891892 c 2
170 453.106032907 m 2
 170 247.893967093 l 2
 170 143.193240342 230.408277586 87 288 87 c 3
 345.524922907 87 405 143.101591102 405 247.893967093 c 2
 405 453.106032907 l 2
 405 557.898408898 345.524922907 614 288 614 c 3
 230.408277586 614 170 557.806759658 170 453.106032907 c 2
EndSplineSet
PickledDataWithLists: "(dp0
Vcom.schriftgestaltung.Glyphs.lastChange\\u000d\\u000d\\u000d\\u000d\\u000d\\u000d
p1
V2016-06-09 18:35:33 +0000\\u000d\\u000d\\u000d\\u000d\\u000d\\u000d
p2
s."
EndChar

StartChar: OE
Encoding: 338 338 75
GlifName: O_E_
Width: 575
VWidth: 0
Flags: MW
LayerCount: 2
Fore
SplineSet
475 316 m 2
 383 316 l 1
 383 97 l 1
 493 97 l 2
 515 97 528 84 528 62 c 2
 528 35 l 2
 528 13 515 0 493 0 c 2
 288 0 l 2
 152 0 75 93 75 256 c 2
 75 444 l 2
 75 607 152 700 288 700 c 2
 482 700 l 2
 504 700 517 687 517 665 c 2
 517 639 l 2
 517 617 504 604 482 604 c 2
 383 604 l 1
 383 413 l 1
 475 413 l 2
 497 413 510 400 510 378 c 2
 510 351 l 2
 510 329 497 316 475 316 c 2
278 614 m 1
 213 609 180 552 180 447 c 2
 180 253 l 2
 180 148 213 92 278 87 c 1
 278 614 l 1
EndSplineSet
PickledDataWithLists: "(dp0
Vcom.schriftgestaltung.Glyphs.lastChange\\u000d\\u000d\\u000d\\u000d\\u000d\\u000d
p1
V2016-06-09 18:35:33 +0000\\u000d\\u000d\\u000d\\u000d\\u000d\\u000d
p2
s."
EndChar

StartChar: Oslash
Encoding: 216 216 83
GlifName: O_slash
Width: 575
VWidth: 0
Flags: MW
LayerCount: 2
Fore
SplineSet
524 766 m 2
 543 757 549 739 540 720 c 2
 474 591 l 1
 491 552 500 506 500 454 c 2
 500 246 l 2
 500 89 418 -10 288 -10 c 3
 247 -10 211 -1 180 18 c 1
 127 -86 l 2
 118 -105 100 -111 81 -102 c 2
 49 -86 l 2
 30 -77 24 -59 33 -40 c 2
 105 100 l 1
 85 140 75 188 75 245 c 2
 75 454 l 2
 75 612 157 710 288 710 c 3
 331 710 369 699 401 677 c 1
 446 766 l 2
 455 785 473 791 492 782 c 2
 524 766 l 2
288 614 m 3
 224 614 180 546 180 447 c 2
 180 234 l 1
 354 583 l 1
 335 604 313 614 288 614 c 3
288 86 m 3
 352 86 395 154 395 253 c 2
 395 450 l 1
 226 112 l 1
 243 95 265 86 288 86 c 3
EndSplineSet
PickledDataWithLists: "(dp0
Vcom.schriftgestaltung.Glyphs.lastChange\\u000d\\u000d\\u000d\\u000d\\u000d\\u000d
p1
V2016-06-09 18:35:33 +0000\\u000d\\u000d\\u000d\\u000d\\u000d\\u000d
p2
s."
EndChar

StartChar: P
Encoding: 80 80 85
GlifName: P_
Width: 575
VWidth: 0
Flags: MW
AnchorPoint: "mark-top" 288 700 basechar 0
AnchorPoint: "mark-bottom" 288 0 basechar 0
LayerCount: 2
Fore
SplineSet
110 700 m 2
 245 700 l 2
 431.210682281 700 527 594.473439403 527 475 c 3
 527 352.499775785 429.082675583 250 245 250 c 2
 180 250 l 1
 180 33.90685636 l 2
 180 13.3056456063 166.265385641 0 145 0 c 2
 110 0 l 2
 88.6622045124 0 75 13.3565097344 75 34.2168674375 c 2
 75 665.783132562 l 2
 75 686.643490265 88.6622045126 700 110 700 c 2
245 604 m 2
 180 604 l 1
 180 347 l 1
 245 347 l 2
 369.235821981 347 422 408.050057246 422 475.018726592 c 3
 422 541.990163903 368.166708532 604 245 604 c 2
EndSplineSet
PickledDataWithLists: "(dp0
Vcom.schriftgestaltung.Glyphs.lastChange\\u000d\\u000d\\u000d\\u000d\\u000d\\u000d
p1
V2016-06-09 18:35:33 +0000\\u000d\\u000d\\u000d\\u000d\\u000d\\u000d
p2
s."
EndChar

StartChar: Phi
Encoding: 934 934 86
GlifName: P_hi
Width: 575
VWidth: 0
Flags: MW
AnchorPoint: "mark-top" 288 700 basechar 0
LayerCount: 2
Back
SplineSet
288 658 m 3
 352 658 413 632 457 588 c 0
 501 544 526 485 526 424 c 3
 526 363 501 304 457 260 c 0
 413 216 352 190 288 190 c 3
 224 190 163 216 119 260 c 0
 75 304 51 363 51 424 c 3
 51 485 75 544 119 588 c 0
 163 632 224 658 288 658 c 3
288 580 m 3
 250 580 209 564 181 536 c 0
 153 508 136 465 136 424 c 3
 136 383 153 340 181 312 c 0
 209 284 250 268 288 268 c 3
 326 268 367 284 395 312 c 0
 423 340 441 383 441 424 c 3
 441 465 423 508 395 536 c 0
 367 564 326 580 288 580 c 3
270 700 m 258
 305 700 l 258
 321 700 330 691 330 675 c 256
 330 25 l 258
 330 9 321 0 305 0 c 258
 270 0 l 258
 254 0 245 9 245 25 c 258
 245 675 l 258
 245 691 254 700 270 700 c 258
554 649 m 258
 554 633 545 624 529 624 c 258
 330 624 l 257
 330 550 l 257
 454 537 530 463 530 350 c 256
 530 239 454 165 330 150 c 257
 330 76 l 257
 529 76 l 258
 545 76 554 67 554 51 c 258
 554 25 l 258
 554 8 545 0 529 0 c 258
 47 0 l 258
 30 0 22 9 22 25 c 258
 22 51 l 258
 22 67 30 76 46 76 c 258
 245 76 l 257
 245 150 l 257
 121 163 45 238 45 350 c 256
 45 461 120 535 245 549 c 257
 245 624 l 257
 46 624 l 258
 30 624 22 633 22 649 c 258
 22 675 l 258
 22 691 30 700 47 700 c 258
 529 700 l 258
 545 700 554 692 554 675 c 258
 554 649 l 258
245 472 m 257
 173 459 130 415 130 350 c 256
 130 285 173 240 245 228 c 257
 245 472 l 257
330 228 m 257
 402 241 445 285 445 350 c 256
 445 415 402 460 330 472 c 257
 330 228 l 257
EndSplineSet
Fore
SplineSet
287 59 m 0
 143 59 33 185 33 350 c 0
 33 515 144 641 288 641 c 0
 431 641 538 516 538 350 c 0
 538 184 430 59 287 59 c 0
286 545 m 0
 205 545 138 457 138 350 c 0
 138 242 204 155 285 155 c 0
 366 155 433 243 433 350 c 0
 433 458 367 545 286 545 c 0
270 700 m 2
 305 700 l 2
 327 700 340 687 340 666 c 2
 340 34 l 2
 340 13 327 0 305 0 c 2
 270 0 l 2
 249 0 235 13 235 34 c 2
 235 666 l 2
 235 687 249 700 270 700 c 2
EndSplineSet
PickledDataWithLists: "(dp0
Vcom.schriftgestaltung.Glyphs.lastChange\\u000d\\u000d\\u000d\\u000d\\u000d\\u000d
p1
V2015-12-22 12:22:42 +0000\\u000d\\u000d\\u000d\\u000d\\u000d\\u000d
p2
s."
EndChar

StartChar: Pi
Encoding: 928 928 87
GlifName: P_i
Width: 575
VWidth: 0
Flags: MW
AnchorPoint: "mark-top" 288 700 basechar 0
LayerCount: 2
Fore
SplineSet
47 700 m 2
 529 700 l 2
 551 700 564 687 564 665 c 2
 564 639 l 2
 564 617 551 604 529 604 c 2
 480 604 l 1
 480 34 l 2
 480 13 467 0 445 0 c 2
 410 0 l 2
 388 0 375 13 375 34 c 2
 375 604 l 1
 200 604 l 1
 200 34 l 2
 200 13 186 0 165 0 c 2
 130 0 l 2
 109 0 95 13 95 34 c 2
 95 604 l 1
 47 604 l 2
 25 604 12 617 12 639 c 2
 12 665 l 2
 12 687 25 700 47 700 c 2
EndSplineSet
PickledDataWithLists: "(dp0
Vcom.schriftgestaltung.Glyphs.lastChange\\u000d\\u000d\\u000d\\u000d\\u000d\\u000d
p1
V2015-12-22 12:20:26 +0000\\u000d\\u000d\\u000d\\u000d\\u000d\\u000d
p2
s."
EndChar

StartChar: Psi
Encoding: 936 936 88
GlifName: P_si
Width: 575
VWidth: 0
Flags: MW
AnchorPoint: "mark-top" 288 700 basechar 0
LayerCount: 2
Back
SplineSet
460 700 m 258
 495 700 l 258
 512 700 520 692 520 675 c 258
 520 433 l 258
 520 309 456 235 330 222 c 257
 330 25 l 258
 330 9 322 0 305 0 c 258
 270 0 l 258
 254 0 245 9 245 25 c 258
 245 222 l 257
 119 236 55 310 55 433 c 258
 55 675 l 258
 55 691 64 700 80 700 c 258
 115 700 l 258
 131 700 140 692 140 675 c 258
 140 433 l 258
 140 363 173 314 245 301 c 257
 245 675 l 258
 245 691 254 700 270 700 c 258
 305 700 l 258
 322 700 330 691 330 675 c 258
 330 301 l 257
 402 314 435 363 435 433 c 258
 435 675 l 258
 435 691 444 700 460 700 c 258
EndSplineSet
Fore
SplineSet
480 700 m 2
 515 700 l 2
 537 700 550 688 550 666 c 2
 550 408 l 2
 550 261 487 198 340 195 c 1
 340 34 l 2
 340 12 327 0 305 0 c 2
 270 0 l 2
 248 0 235 13 235 34 c 2
 235 195 l 1
 88 198 25 261 25 408 c 2
 25 666 l 2
 25 687 38 700 60 700 c 2
 95 700 l 2
 118 700 130 688 130 665 c 2
 130 400 l 2
 130 315 160 280 235 277 c 1
 235 665 l 2
 235 687 248 700 270 700 c 2
 305 700 l 2
 328 700 340 688 340 665 c 2
 340 277 l 1
 415 280 445 315 445 400 c 2
 445 665 l 2
 445 687 458 700 480 700 c 2
EndSplineSet
PickledDataWithLists: "(dp0
Vcom.schriftgestaltung.Glyphs.lastChange\\u000d\\u000d\\u000d\\u000d\\u000d\\u000d
p1
V2015-12-22 12:24:48 +0000\\u000d\\u000d\\u000d\\u000d\\u000d\\u000d
p2
s."
EndChar

StartChar: Q
Encoding: 81 81 89
GlifName: Q_
Width: 575
VWidth: 0
Flags: MW
AnchorPoint: "mark-top" 288 700 basechar 0
LayerCount: 2
Fore
SplineSet
235 5 m 2
 235 15 l 1
 341 15 l 1
 341 5 l 2
 341 -42 348 -72 360 -91 c 0
 374 -114 397 -122 427 -122 c 3
 451 -122 472 -119 498 -109 c 0
 518 -101 536 -108 544 -128 c 2
 555 -154 l 2
 564 -174 556 -192 535 -199 c 0
 501 -211 463 -220 427 -220 c 3
 372 -220 319 -202 282 -157 c 0
 253 -121 235 -68 235 5 c 2
EndSplineSet
Refer: 74 79 N 1 0 0 1 0 0 2
EndChar

StartChar: R
Encoding: 82 82 90
GlifName: R_
Width: 575
VWidth: 0
Flags: MW
AnchorPoint: "mark-bottom" 288 0 basechar 0
AnchorPoint: "mark-top" 288 700 basechar 0
LayerCount: 2
Fore
SplineSet
309 302 m 1
 180 302 l 1
 180 34 l 2
 180 13 166 0 145 0 c 2
 110 0 l 2
 89 0 75 13 75 34 c 2
 75 666 l 2
 75 687 89 700 110 700 c 2
 268 700 l 2
 425 700 510 614 510 502 c 3
 510 432 474 365 411 331 c 1
 560 43 l 2
 572 20 560 0 533 0 c 2
 491 0 l 2
 474 0 461 8 453 23 c 2
 309 302 l 1
268 604 m 2
 180 604 l 1
 180 399 l 1
 268 399 l 2
 365 399 405 451 405 501 c 3
 405 551 363 604 268 604 c 2
EndSplineSet
EndChar

StartChar: S
Encoding: 83 83 94
GlifName: S_
Width: 575
VWidth: 0
Flags: MW
AnchorPoint: "mark-bottom" 288 0 basechar 0
AnchorPoint: "mark-top" 288 700 basechar 0
LayerCount: 2
Back
SplineSet
467 652 m 258
 458 625 l 258
 453 610 442 605 427 611 c 256
 392 624 354 634 316 634 c 256
 239 634 168 593 168 524 c 256
 168 474 206 421 292 403 c 256
 441 372 514 291 514 195 c 256
 514 69 387 -10 250 -10 c 256
 202 -10 147 0 101 20 c 256
 86 26 82 38 88 53 c 258
 98 77 l 258
 104 92 115 97 130 91 c 256
 169 75 221 69 255 69 c 256
 348 69 428 113 428 190 c 256
 428 246 385 297 284 318 c 256
 138 349 82 434 82 521 c 256
 82 646 196 710 316 710 c 256
 359 710 415 701 456 683 c 256
 471 676 472 668 467 652 c 258
EndSplineSet
Fore
SplineSet
97 21 m 0
 78 29 71 47 79 67 c 2
 89 92 l 2
 97 112 114 119 134 111 c 0
 171 96 222 89 255 89 c 3
 346 89 418 131 418 197 c 3
 418 266 356 287 276 312 c 0
 183 341 72 376 72 517 c 3
 72 646 193 710 316 710 c 3
 360 710 417 701 460 682 c 0
 478 674 483 660 476 639 c 2
 467 611 l 2
 460 591 443 584 423 592 c 0
 389 605 352 614 316 614 c 3
 241 614 178 576 178 517 c 3
 178 447 242 424 323 398 c 0
 415 368 524 333 524 198 c 3
 524 63 392 -10 250 -10 c 3
 201 -10 144 0 97 21 c 0
EndSplineSet
EndChar

StartChar: Sigma
Encoding: 931 931 99
GlifName: S_igma
Width: 575
VWidth: 0
Flags: MW
AnchorPoint: "mark-top" 288 700 basechar 0
LayerCount: 2
Back
SplineSet
525 674 m 257
 525 647 l 257
 525 631 516 622 500 622 c 258
 173 622 l 257
 429 367 l 258
 441 356 441 344 429 332 c 258
 173 77 l 257
 500 77 l 258
 516 77 525 68 525 52 c 258
 525 25 l 258
 525 9 516 0 500 0 c 258
 77 0 l 258
 61 0 52 9 52 26 c 258
 52 43 l 258
 52 57 54 65 61 73 c 257
 337 349 l 257
 61 626 l 257
 54 634 52 642 52 656 c 258
 52 673 l 258
 52 690 61 699 77 699 c 258
 500 699 l 258
 516 699 525 690 525 674 c 257
469 624 m 258
 106 624 l 258
 90 624 81 632 81 649 c 258
 81 675 l 258
 81 692 90 700 106 700 c 258
 469 700 l 258
 485 700 494 692 494 675 c 258
 494 649 l 258
 494 632 485 624 469 624 c 258
127 403 m 258
 448 403 l 258
 464 403 473 394 473 378 c 258
 473 351 l 258
 473 335 464 326 448 326 c 258
 127 326 l 258
 111 326 102 335 102 351 c 258
 102 378 l 258
 102 394 111 403 127 403 c 258
84 77 m 258
 491 77 l 258
 507 77 516 68 516 52 c 258
 516 25 l 258
 516 9 507 0 491 0 c 258
 84 0 l 258
 68 0 59 9 59 25 c 258
 59 52 l 258
 59 68 68 77 84 77 c 258
EndSplineSet
Fore
SplineSet
535 665 m 2
 535 638 l 2
 535 616 522 603 500 603 c 2
 190 603 l 1
 391 383 l 2
 399 376 403 367 403 359 c 0
 403 351 399 344 391 336 c 2
 187 97 l 1
 500 97 l 2
 522 97 535 84 535 62 c 2
 535 35 l 2
 535 13 522 0 500 0 c 2
 77 0 l 2
 55 0 42 13 42 35 c 2
 42 52 l 2
 42 68 45 78 53 87 c 2
 284 359 l 1
 53 613 l 2
 45 622 42 632 42 648 c 2
 42 665 l 2
 42 687 55 700 77 700 c 2
 500 700 l 2
 522 700 535 687 535 665 c 2
EndSplineSet
PickledDataWithLists: "(dp0
Vcom.schriftgestaltung.Glyphs.lastChange\\u000d\\u000d\\u000d\\u000d\\u000d\\u000d
p1
V2016-05-30 08:32:22 +0000\\u000d\\u000d\\u000d\\u000d\\u000d\\u000d
p2
s."
EndChar

StartChar: T
Encoding: 84 84 100
GlifName: T_
Width: 575
VWidth: 0
Flags: MW
AnchorPoint: "mark-bottom" 288 -0 basechar 0
AnchorPoint: "mark-top" 288 700 basechar 0
LayerCount: 2
Fore
SplineSet
564 665 m 2
 564 639 l 2
 564 617 551 604 529 604 c 2
 340 604 l 1
 340 34 l 2
 340 13 327 0 305 0 c 2
 270 0 l 2
 249 0 235 13 235 34 c 2
 235 604 l 1
 47 604 l 2
 25 604 12 617 12 639 c 2
 12 665 l 2
 12 687 25 700 47 700 c 2
 529 700 l 2
 551 700 564 687 564 665 c 2
EndSplineSet
PickledDataWithLists: "(dp0
Vcom.schriftgestaltung.Glyphs.lastChange\\u000d\\u000d\\u000d\\u000d\\u000d\\u000d
p1
V2016-06-09 18:35:33 +0000\\u000d\\u000d\\u000d\\u000d\\u000d\\u000d
p2
s."
EndChar

StartChar: Theta
Encoding: 920 920 104
GlifName: T_heta
Width: 575
VWidth: 0
Flags: MW
AnchorPoint: "mark-top" 288 700 basechar 0
LayerCount: 2
Fore
SplineSet
216 337 m 2
 216 364 l 2
 216 386 229 399 251 399 c 2
 320 399 l 2
 342 399 355 386 355 364 c 2
 355 337 l 2
 355 315 342 302 320 302 c 2
 251 302 l 2
 229 302 216 315 216 337 c 2
EndSplineSet
Refer: 74 79 N 1 0 0 1 0 0 2
PickledDataWithLists: "(dp0
Vcom.schriftgestaltung.Glyphs.lastChange\\u000d\\u000d\\u000d\\u000d\\u000d\\u000d
p1
V2016-05-30 08:32:14 +0000\\u000d\\u000d\\u000d\\u000d\\u000d\\u000d
p2
s."
EndChar

StartChar: Thorn
Encoding: 222 222 105
GlifName: T_horn
Width: 575
VWidth: 0
Flags: MW
LayerCount: 2
Fore
SplineSet
180 122 m 1
 180 34 l 2
 180 13 166 0 145 0 c 2
 110 0 l 2
 89 0 75 13 75 34 c 2
 75 666 l 2
 75 687 89 700 110 700 c 2
 145 700 l 2
 166 700 180 687 180 666 c 2
 180 640 l 1
 206 643 233 643 259 643 c 3
 430 643 500 567 500 381 c 3
 500 194 430 118 259 118 c 3
 235 118 208 119 180 122 c 1
395 382 m 3
 395 514 363 555 259 555 c 3
 234 555 205 553 180 553 c 1
 180 211 l 1
 199 210 244 208 259 208 c 3
 363 208 395 249 395 382 c 3
EndSplineSet
PickledDataWithLists: "(dp0
Vcom.schriftgestaltung.Glyphs.lastChange\\u000d\\u000d\\u000d\\u000d\\u000d\\u000d
p1
V2016-06-09 18:35:33 +0000\\u000d\\u000d\\u000d\\u000d\\u000d\\u000d
p2
s."
EndChar

StartChar: U
Encoding: 85 85 106
GlifName: U_
Width: 575
VWidth: 0
Flags: MW
AnchorPoint: "mark-horn" 455 670 basechar 0
AnchorPoint: "mark-top" 288 700 basechar 0
AnchorPoint: "mark-bottom" 288 0 basechar 0
AnchorPoint: "mark-ogonek" 355 5 basechar 0
AnchorPoint: "topright" 555 700 basechar 0
LayerCount: 2
Fore
SplineSet
382 121 m 0
 397 141 405 173 405 219 c 2
 405 666 l 2
 405 687 418 700 440 700 c 2
 475 700 l 2
 497 700 510 687 510 666 c 2
 510 217 l 2
 510 125 480 64 431 29 c 0
 392 1 342 -10 288 -10 c 3
 234 -10 184 1 145 29 c 0
 96 64 65 125 65 217 c 2
 65 666 l 2
 65 687 79 700 100 700 c 2
 135 700 l 2
 156 700 170 687 170 666 c 2
 170 219 l 2
 170 173 178 141 193 121 c 0
 211 96 242 86 288 86 c 3
 333 86 364 96 382 121 c 0
EndSplineSet
EndChar

StartChar: V
Encoding: 86 86 117
GlifName: V_
Width: 575
VWidth: 0
Flags: MW
AnchorPoint: "mark-bottom" 288 0 basechar 0
AnchorPoint: "mark-top" 288 700 basechar 0
LayerCount: 2
Fore
SplineSet
259 105 m 2
 262 94 274 86 288 86 c 3
 302 86 314 94 317 105 c 2
 463 672 l 2
 468 690 482 700 501 700 c 2
 537 700 l 2
 561 700 575 682 568 660 c 2
 420 84 l 2
 405 23 351 -10 288 -10 c 3
 225 -10 171 23 155 84 c 2
 7 661 l 2
 1 684 15 700 39 700 c 2
 74 700 l 2
 94 700 108 689 112 671 c 2
 259 105 l 2
EndSplineSet
EndChar

StartChar: W
Encoding: 87 87 118
GlifName: W_
Width: 575
VWidth: 0
Flags: MW
AnchorPoint: "mark-top" 288 700 basechar 0
AnchorPoint: "mark-bottom" 288 0 basechar 0
LayerCount: 2
Back
SplineSet
545 675 m 258
 525 20 l 258
 525 4 516 -5 498 -5 c 258
 482 -5 l 258
 454 -5 435 6 423 31 c 258
 288 301 l 257
 153 31 l 258
 141 6 122 -5 94 -5 c 258
 78 -5 l 258
 60 -5 51 4 51 20 c 258
 31 675 l 258
 31 690 42 700 57 700 c 258
 91 700 l 258
 106 700 115 690 116 675 c 258
 134 160 l 257
 245 382 l 258
 251 395 260 400 274 400 c 258
 302 400 l 258
 316 400 325 395 331 382 c 258
 442 160 l 257
 460 675 l 258
 461 690 470 700 485 700 c 258
 519 700 l 258
 534 700 545 690 545 675 c 258
EndSplineSet
Fore
Refer: 67 77 N 1 0 0 -1 0 700 2
EndChar

StartChar: X
Encoding: 88 88 123
GlifName: X_
Width: 575
VWidth: 0
Flags: MW
AnchorPoint: "mark-top" 288 700 basechar 0
AnchorPoint: "mark-bottom" 288 0 basechar 0
LayerCount: 2
Fore
SplineSet
440 677 m 2
 447 692 461 700 479 700 c 2
 510 700 l 2
 536 700 548 681 537 658 c 2
 402 385 l 1
 396 374 387 364 376 357 c 1
 387 350 396 340 402 330 c 2
 544 43 l 2
 555 19 543 0 517 0 c 2
 486 0 l 2
 469 0 455 8 447 23 c 2
 309 291 l 2
 302 305 293 315 288 315 c 3
 282 315 274 306 267 291 c 2
 128 23 l 2
 120 8 107 0 90 0 c 2
 59 0 l 2
 33 0 20 19 31 43 c 2
 174 330 l 2
 179 340 188 350 199 357 c 1
 188 364 179 374 174 385 c 2
 38 658 l 2
 27 681 39 700 66 700 c 2
 97 700 l 2
 115 700 128 692 135 677 c 2
 267 423 l 2
 274 409 282 400 288 400 c 3
 294 400 302 409 309 423 c 2
 440 677 l 2
EndSplineSet
EndChar

StartChar: Xi
Encoding: 926 926 124
GlifName: X_i
Width: 575
VWidth: 0
Flags: MW
AnchorPoint: "mark-top" 288 700 basechar 0
LayerCount: 2
Fore
SplineSet
469 604 m 2
 106 604 l 2
 84 604 71 617 71 639 c 2
 71 665 l 2
 71 687 84 700 106 700 c 2
 469 700 l 2
 491 700 504 687 504 665 c 2
 504 639 l 2
 504 617 491 604 469 604 c 2
127 399 m 2
 448 399 l 2
 470 399 483 386 483 364 c 2
 483 337 l 2
 483 315 470 302 448 302 c 2
 127 302 l 2
 105 302 92 315 92 337 c 2
 92 364 l 2
 92 386 105 399 127 399 c 2
84 97 m 2
 491 97 l 2
 513 97 526 84 526 62 c 2
 526 35 l 2
 526 13 513 0 491 0 c 2
 84 0 l 2
 62 0 49 13 49 35 c 2
 49 62 l 2
 49 84 62 97 84 97 c 2
EndSplineSet
PickledDataWithLists: "(dp0
Vcom.schriftgestaltung.Glyphs.lastChange\\u000d\\u000d\\u000d\\u000d\\u000d\\u000d
p1
V2015-12-22 12:18:54 +0000\\u000d\\u000d\\u000d\\u000d\\u000d\\u000d
p2
s."
EndChar

StartChar: Y
Encoding: 89 89 125
GlifName: Y_
Width: 575
VWidth: 0
Flags: MW
AnchorPoint: "mark-top" 288 700 basechar 0
AnchorPoint: "mark-bottom" 288 0 basechar 0
LayerCount: 2
Fore
SplineSet
457 676 m 2
 464 691 478 700 496 700 c 2
 532 700 l 2
 559 700 571 681 559 658 c 2
 414 375 l 2
 398 343 372 320 340 309 c 1
 340 34 l 2
 340 13 327 0 305 0 c 2
 270 0 l 2
 249 0 235 13 235 34 c 2
 235 309 l 1
 203 320 177 343 161 375 c 2
 16 658 l 2
 4 681 16 700 43 700 c 2
 80 700 l 2
 98 700 111 692 118 676 c 2
 254 405 l 2
 263 389 274 380 288 380 c 3
 302 380 313 388 321 404 c 2
 457 676 l 2
EndSplineSet
EndChar

StartChar: Z
Encoding: 90 90 130
GlifName: Z_
Width: 575
VWidth: 0
Flags: MW
AnchorPoint: "mark-top" 288 700 basechar 0
AnchorPoint: "mark-bottom" 288 0 basechar 0
LayerCount: 2
Fore
SplineSet
161 97 m 1
 485 97 l 2
 507 97 520 84 520 62 c 2
 520 35 l 2
 520 13 507 0 485 0 c 2
 90 0 l 2
 69 0 55 13 55 34 c 2
 55 63 l 2
 55 149 83 223 134 273 c 2
 373 504 l 2
 394 524 409 559 413 604 c 1
 121 604 l 2
 99 604 86 617 86 639 c 2
 86 665 l 2
 86 687 99 700 121 700 c 2
 485 700 l 2
 507 700 520 687 520 666 c 2
 520 637 l 2
 520 564 492 495 441 446 c 2
 203 216 l 2
 180 194 165 153 161 97 c 1
EndSplineSet
EndChar

StartChar: a
Encoding: 97 97 135
GlifName: a
Width: 575
VWidth: 0
Flags: MW
AnchorPoint: "mark-bottom" 288 0 basechar 0
AnchorPoint: "mark-ogonek" 445 5 basechar 0
AnchorPoint: "mark-top" 288 500 basechar 0
LayerCount: 2
Fore
SplineSet
486 317 m 2
 486 38 l 2
 486 18 474 5 453 2 c 0
 385 -6 332 -10 288 -10 c 3
 164 -10 67 64 67 159 c 3
 67 253 156 314 291 314 c 2
 381 314 l 1
 379 388 345 416 257 416 c 3
 229 416 198 412 166 406 c 0
 144 402 128 411 124 432 c 2
 119 458 l 2
 115 480 125 495 146 499 c 0
 188 507 235 512 276 512 c 3
 416 512 486 447 486 317 c 2
381 90 m 1
 381 237 l 1
 291 237 l 2
 226 237 173 202 173 158 c 3
 173 118 228 85 294 85 c 3
 315 85 340 87 381 90 c 1
EndSplineSet
EndChar

StartChar: a.hex
Encoding: 65543 -1 136
GlifName: a.hex
Width: 575
VWidth: 0
Flags: MW
AnchorPoint: "ogonek" 518 5 basechar 0
AnchorPoint: "top" 288 550 basechar 0
LayerCount: 2
Fore
SplineSet
112.299505596 892.614380323 m 0
 120.429383125 886.024900642 124 875.92286565 124 865 c 2
 124 819 l 2
 124 807.680679758 120.49077603 797.434582054 112.147103874 790.935300585 c 0
 105.638298075 785.865283436 97.5384556952 784 89 784 c 2
 54 784 l 2
 42.6806797579 784 32.4345820537 787.50922397 25.9353005852 795.852896126 c 0
 20.8652834364 802.361701925 19 810.461544305 19 819 c 2
 19 865 l 2
 19 875.92286565 22.5706168755 886.024900642 30.700494404 892.614380323 c 0
 37.0967468189 897.798711228 45.2466187476 900 54 900 c 2
 89 900 l 2
 97.7533812524 900 105.903253181 897.798711228 112.299505596 892.614380323 c 0
404.614380323 888.299505596 m 0
 409.798711228 881.903253181 412 873.753381252 412 865 c 2
 412 819 l 2
 412 807.680679758 408.49077603 797.434582054 400.147103874 790.935300585 c 0
 393.638298075 785.865283436 385.538455695 784 377 784 c 2
 342 784 l 2
 330.680679758 784 320.434582054 787.50922397 313.935300585 795.852896126 c 0
 308.865283436 802.361701925 307 810.461544305 307 819 c 2
 307 865 l 2
 307 873.753381252 309.201288772 881.903253181 314.385619677 888.299505596 c 0
 320.975099358 896.429383125 331.07713435 900 342 900 c 2
 377 900 l 2
 387.92286565 900 398.024900642 896.429383125 404.614380323 888.299505596 c 0
412.921039072 485.008460178 m 0
 457.35132433 452.781664969 480 398.716262548 480 321.382022472 c 2
 480 37.8988764045 l 2
 480 29.5229919209 478.089917074 21.7276139399 473.35177393 15.3590704162 c 0
 467.333557891 7.26997947715 457.812773418 3.09687773892 447.208571717 1.80113960976 c 0
 389.036527843 -5.06185433051 334.689066923 -10 285 -10 c 0
 146.115112633 -10 67 58.1676645558 67 139.01618123 c 0
 67 219.819504046 145.117047376 289 288 289 c 2
 375 289 l 1
 375 319 l 2
 375 365.868920513 360.956418888 392.061800094 337.050709763 407.132531433 c 0
 317.508464422 419.45243074 289.520360135 425 254 425 c 0
 223.879822294 425 194.555621858 421.198855536 164.851291709 415.392211429 c 0
 161.643861397 414.804332699 158.480551788 414.491573034 155.361111111 414.491573034 c 0
 139.350601083 414.491573034 125.434482142 424.225234479 123.088095797 441.66808192 c 0
 121.832146791 450.670757591 121.073035367 459.781935812 120.068835142 468.819737834 c 0
 119.755764163 471.344096691 119.582429649 473.81594699 119.582429649 476.255308316 c 0
 119.582429649 483.068918683 120.951755674 489.776867701 124.832992817 495.546713405 c 0
 129.77073682 502.887161816 137.821336687 507.067888879 147.086751126 508.817000099 c 0
 190.767659476 517.549714068 269.916925123 522.025688602 273.131246944 522.020200123 c 0
 330.286551263 522.003363578 377.648319662 510.96541296 412.921039072 485.008460178 c 0
375 89.6940919624 m 1
 375 192 l 1
 288 192 l 2
 206.055914518 192 173 163.464921445 173 138.042735043 c 0
 173 112.80007487 205.742355349 85 291 85 c 0
 316.699773806 85 345.253016371 87.2286075684 375 89.6940919624 c 1
EndSplineSet
PickledDataWithLists: "(dp0
Vcom.schriftgestaltung.Glyphs.lastChange\\u000d\\u000d\\u000d\\u000d\\u000d\\u000d
p1
V2016-06-09 18:35:34 +0000\\u000d\\u000d\\u000d\\u000d\\u000d\\u000d
p2
s."
EndChar

StartChar: ae
Encoding: 230 230 142
GlifName: ae
Width: 575
VWidth: 0
Flags: MW
AnchorPoint: "mark-top" 288 500 basechar 0
LayerCount: 2
Fore
SplineSet
135 499 m 0
 173 506 215 510 252 510 c 3
 409 510 494 425 494 268 c 2
 494 246 l 2
 494 225 481 212 459 212 c 2
 335 212 l 1
 335 84 l 1
 357 85 383 88 410 92 c 0
 431 96 447 86 452 66 c 2
 458 41 l 2
 463 21 452 5 430 1 c 0
 381 -8 368 -9 290 -10 c 3
 130 -10 57 40 55 151 c 3
 55 241 114 292 230 302 c 1
 230 413 l 1
 202 412 179 408 157 405 c 0
 136 401 120 410 115 430 c 2
 108 458 l 2
 103 479 113 495 135 499 c 0
335 401 m 1
 335 309 l 1
 388 309 l 1
 383 356 365 388 335 401 c 1
230 79 m 1
 230 209 l 1
 182 201 160 180 160 140 c 3
 160 109 186 87 230 79 c 1
EndSplineSet
PickledDataWithLists: "(dp0
Vcom.schriftgestaltung.Glyphs.lastChange\\u000d\\u000d\\u000d\\u000d\\u000d\\u000d
p1
V2016-06-09 18:35:33 +0000\\u000d\\u000d\\u000d\\u000d\\u000d\\u000d
p2
s."
EndChar

StartChar: alpha
Encoding: 945 945 144
GlifName: alpha
Width: 575
VWidth: 0
Flags: MW
AnchorPoint: "mark-top" 288 500 basechar 0
LayerCount: 2
Back
SplineSet
610 250 m 259
 610 430 716 510 826 510 c 259
 930 510 1007 430 1014 250 c 257
 1010 64.9775390625 924 -10 826 -10 c 259
 716 -10 610 70 610 250 c 259
695 250 m 259
 695 132 753 66 823 66 c 259
 893 66 950 132 950 250 c 259
 950 368 893 434 823 434 c 259
 753 434 695 368 695 250 c 259
1096 0 m 259
 950 0 950 128 950 250 c 3
 950 291.122070312 962.838867188 370.517578125 976 410 c 0
 982 430 991 458 997 478 c 1
 1002 495 1011 500 1027 500 c 258
 1065 500 l 258
 1082 500 1088 487 1083 471 c 0
 1066.1796875 417.950195312 1026 334.5546875 1026 250 c 3
 1026 127 1026 77 1096 77 c 259
 1112 77 1121 68 1121 52 c 258
 1121 25 l 258
 1121 9 1112 0 1096 0 c 259
38 250 m 259
 38 430 144 510 254 510 c 259
 358 510 435 430 442 250 c 257
 429 69.9777791494 349 -10 254 -10 c 259
 144 -10 38 70 38 250 c 259
123 250 m 259
 123 132 181 66 251 66 c 259
 321 66 378 132 378 250 c 259
 378 368 321 434 251 434 c 259
 181 434 123 368 123 250 c 259
533 0 m 259
 425 0 378 72 378 179 c 3
 378 243 383 301 397 354 c 0
 402 374 407 392 413 410 c 0
 419 430 428 458 434 478 c 1
 439 495 448 500 464 500 c 258
 502 500 l 258
 519 500 525 487 520 471 c 1
 507 430 494 388 483 346 c 0
 471 299 463 237 463 179 c 3
 463 120 474 77 533 77 c 259
 549 77 558 68 558 52 c 258
 558 25 l 258
 558 9 549 0 533 0 c 259
378 250 m 0
 378 132 320 66 250 66 c 3
 180 66 123 132 123 250 c 3
 123 368 180 434 250 434 c 3
 320 434 378 368 378 250 c 0
378 59 m 1
 378 -210 l 2
 378 -226 387 -235 403 -235 c 2
 438 -235 l 2
 454 -235 463 -226 463 -210 c 2
 463 250 l 2
 463 430 357 510 247 510 c 3
 137 510 38 430 38 250 c 3
 38 70 137 -10 247 -10 c 3
 310 -10 349 22 378 59 c 1
-46 471 m 0
 -60.037109375 393.008789062 -74.765625 341.299804688 -94.3740234375 272.5625 c 1
 -70.775390625 194.745117188 -48.66796875 99.5849609375 -41 29 c 8
 -39.47265625 14.9423828125 -46 -0 -64 0 c 258
 -101 0 l 258
 -116 0 -124.448242188 4.609375 -126 22 c 0
 -129.022460938 55.865234375 -132.98046875 83.62890625 -142.4765625 125.8125 c 1
 -167.209960938 78.8828125 -204.672851562 33.2919921875 -254.8828125 8.9453125 c 0
 -278.813476562 -2.658203125 -304.767578125 -9.5341796875 -333.92578125 -9.5341796875 c 0
 -366.174804688 -9.5341796875 -396.971679688 -0.5908203125 -423.497070312 14.8408203125 c 0
 -450.946289062 30.810546875 -472.624023438 52.740234375 -489.09375 76.6748046875 c 0
 -524.106445312 127.557617188 -537.5 187.587890625 -537.5 245.196289062 c 0
 -537.5 312.912109375 -519.712890625 384.479492188 -473.061523438 441.017578125 c 0
 -443.3125 477.071289062 -394.451171875 511.942382812 -330.66796875 511.499023438 c 0
 -296.962890625 511.264648438 -265.637695312 500.865234375 -239.25 484.620117188 c 0
 -213.092773438 468.517578125 -192.629882812 447.584960938 -176.038085938 425.883789062 c 0
 -166.569335938 413.499023438 -157.92578125 400.739257812 -149.994140625 387.689453125 c 1
 -141.502929688 427.077148438 -132 478 -132 478 c 2
 -128.668945312 494.670898438 -122 500 -106 500 c 258
 -69 500 l 258
 -52 500 -43.166015625 486.747070312 -46 471 c 0
-294.908203125 76.87890625 m 0
 -282.631835938 82.83203125 -268.569335938 91.720703125 -257.560546875 102.774414062 c 0
 -220.252929688 140.232421875 -192.858398438 199.11328125 -175.765625 258.03125 c 1
 -191.189453125 303.661132812 -215.439453125 347.118164062 -242.961914062 383.116210938 c 0
 -255.424804688 399.416015625 -272.36328125 412.915039062 -286.94140625 420.889648438 c 0
 -314.267578125 435.836914062 -341.807617188 439.485351562 -369.716796875 424.658203125 c 0
 -382.247070312 418.000976562 -394.403320312 407.75 -404.938476562 394.982421875 c 0
 -462.071289062 325.740234375 -470.233398438 194.823242188 -416.90625 117.325195312 c 0
 -405.842773438 101.24609375 -392.188476562 88.1337890625 -377.654296875 79.6787109375 c 0
 -351.4765625 64.44921875 -322.55859375 63.4716796875 -294.908203125 76.87890625 c 0
-671 500 m 258
 -644 500 l 258
 -626 500 -617 492 -621 471 c 256
 -624 455 -632 355 -667 250 c 257
 -632 145 -624 45 -621 29 c 256
 -617 8 -626 0 -644 0 c 258
 -671 0 l 258
 -686 0 -693 5 -697 22 c 256
 -699 32 -703 71 -712 121 c 257
 -753 47 -812 -10 -898 -10 c 259
 -991 -10 -1105 39 -1105 250 c 259
 -1105 461 -991 510 -898 510 c 259
 -812 510 -753 453 -712 379 c 257
 -703 429 -699 468 -697 478 c 256
 -693 495 -686 500 -671 500 c 258
  Spiro
    -671 500 [
    -644 500 ]
    -629.16 497.154 o
    -621.181 487.839 o
    -621 471 o
    -626.473 429.989 o
    -640.205 350.315 o
    -667 250 v
    -640.205 149.685 o
    -626.473 70.0109 o
    -621 29 o
    -621.181 12.161 o
    -629.16 2.84597 o
    -644 0 [
    -671 0 ]
    -683.508 1.92182 o
    -691.821 8.75052 o
    -697 22 o
    -699.774 40.9727 o
    -704.562 75.374 o
    -712 121 v
    -759.279 54.2064 o
    -820.736 7.48498 o
    -898 -10 o
    -992.908 10.4733 o
    -1072.06 88.9304 o
    -1105 250 o
    -1072.06 411.07 o
    -992.908 489.527 o
    -898 510 o
    -820.736 492.515 o
    -759.279 445.794 o
    -712 379 v
    -704.562 424.626 o
    -699.774 459.027 o
    -697 478 o
    -691.821 491.249 o
    -683.508 498.078 o
    0 0 z
  EndSpiro
-1020 250 m 259
 -1020 96 -944 67 -898 67 c 259
 -819 67 -771 155 -729 250 c 257
 -771 345 -819 433 -898 433 c 259
 -944 433 -1020 404 -1020 250 c 259
  Spiro
    -1020 250 o
    -998.631 134.192 o
    -950.02 80.1922 o
    -898 67 o
    -828.469 93.2837 o
    -773.877 160.415 o
    -729 250 v
    -773.877 339.585 o
    -828.469 406.716 o
    -898 433 o
    -950.02 419.808 o
    -998.631 365.808 o
    0 0 z
  EndSpiro
EndSplineSet
Fore
SplineSet
458 495 m 0
 463 499 470 500 479 500 c 2
 506 500 l 2
 515 500 522 499 528 495 c 0
 536 490 540 482 540 471 c 0
 540 470 540 470 537 446 c 0
 527 367 514 308 494 250 c 1
 514 192 527 133 537 54 c 0
 538 45 539 41 539 39 c 0
 540 35 540 32 540 29 c 0
 540 18 536 10 528 5 c 0
 522 1 515 0 506 0 c 2
 479 0 l 2
 470 0 463 1 458 5 c 0
 451 10 445 18 443 30 c 0
 442 33 442 36 440 51 c 0
 437 74 435 87 433 103 c 1
 385 28 324 -10 252 -10 c 3
 113 -10 35 84 35 250 c 3
 35 416 113 510 252 510 c 3
 324 510 385 472 433 397 c 1
 435 413 437 426 440 449 c 0
 443 472 442 467 443 470 c 0
 446 482 451 490 458 495 c 0
140 250 m 3
 140 147 181 87 252 87 c 3
 310 87 355 134 410 250 c 1
 355 366 310 413 252 413 c 3
 181 413 140 353 140 250 c 3
EndSplineSet
PickledDataWithLists: "(dp0
Vcom.schriftgestaltung.Glyphs.lastChange\\u000d\\u000d\\u000d\\u000d\\u000d\\u000d
p1
V2015-12-22 12:26:38 +0000\\u000d\\u000d\\u000d\\u000d\\u000d\\u000d
p2
s."
EndChar

StartChar: ampersand
Encoding: 38 38 146
GlifName: ampersand
Width: 575
VWidth: 0
Flags: MW
LayerCount: 2
Back
SplineSet
503 0 m 2
 471 0 l 2
 460.92578125 0 451.89453125 2.806640625 445.030273438 9.1201171875 c 0
 439.674804688 14.044921875 435.619140625 20.7939453125 433.419921875 28.1259765625 c 0
 428.749023438 43.6943359375 422.166015625 59.9765625 413.083007812 77.541015625 c 1
 360.000976562 19.1953125 295.244140625 -7 233 -7 c 3
 115.5078125 -7 42 73.2626953125 42 190 c 3
 42 259.537109375 74.183853123 323.515415654 149.906956756 381.293162196 c 1
 98.1993507823 436.542139801 73 490.857738315 73 541 c 3
 73 635.86723587 149.087875918 707 248 707 c 3
 349.133929455 707 426 632.633955354 426 534 c 3
 426 489.277673978 407.906239613 443.766877113 372.06968125 407.93031875 c 0
 365.958239164 401.818876664 358.223374932 397.732930994 349.534138012 397.732930994 c 0
 340.042020954 397.732930994 331.378090337 402.482547163 323.93031875 409.93031875 c 2
 303.93031875 429.93031875 l 2
 296.482547163 437.378090337 291.732930994 446.042020954 291.732930994 455.534138012 c 0
 291.732930994 464.223374932 295.818876664 471.958239164 301.93031875 478.06968125 c 0
 317.103489392 493.242851892 325 512.752844239 325 532 c 3
 325 575.399012801 291.804461859 608 247 608 c 3
 207.100535417 608 178 579.286311365 178 542 c 3
 178 514.988284541 193.972730756 479.166631744 238.06968125 435.06968125 c 0
 297.098853269 376.040509231 351.49609375 319.266601562 398.00390625 262.004882812 c 1
 400.575195312 271.051757812 402.655273438 280.525390625 405.336914062 290.580078125 c 0
 409.541015625 306.34765625 421.181640625 317.681640625 438.106445312 317.681640625 c 0
 440.973632812 317.681640625 443.829101562 317.395507812 446.797851562 316.838867188 c 2
 479.8515625 310.829101562 l 2
 496.352539062 307.734375 508.103515625 295.96484375 508.103515625 279.344726562 c 0
 508.103515625 275.795898438 507.625 272.263671875 506.715820312 268.625976562 c 0
 497.096679688 229.186523438 487.720703125 200.206054688 473.404296875 169.685546875 c 1
 502.245117188 123.84765625 522.696289062 81.4697265625 534.680664062 39.5234375 c 0
 535.475585938 36.1474609375 535.942382812 32.74609375 535.942382812 29.447265625 c 0
 535.942382812 19.876953125 531.8359375 11.078125 524.088867188 5.7783203125 c 0
 518.080078125 1.66796875 510.797851562 0 503 0 c 2
233 89 m 3
 270.658203125 89 315.899414062 110.090820312 354.68359375 166.56640625 c 1
 319.810546875 211.276367188 275.315639792 252.186082437 218.807631444 310.844348372 c 1
 168.114624634 273.068574025 146 233.51171875 146 190 c 3
 146 159.44921875 152.827148438 136.1328125 164.4921875 119.911132812 c 0
 178.907226562 99.86328125 201.517578125 89 233 89 c 3
534.680664062 39.5234375 m 1024
EndSplineSet
Fore
SplineSet
503 0 m 2
 471 0 l 2
 452 0 438 10 433 28 c 0
 428 44 422 60 413 78 c 1
 360 20 295 -7 233 -7 c 3
 116 -7 42 73 42 190 c 3
 42 260 74 323 150 381 c 1
 98 436 73 491 73 541 c 3
 73 636 149 707 248 707 c 3
 349 707 426 633 426 534 c 3
 426 489 408 444 372 408 c 0
 358 394 340 394 324 410 c 2
 304 430 l 2
 288 446 288 464 302 478 c 0
 317 493 325 513 325 532 c 3
 325 575 292 608 247 608 c 3
 207 608 178 579 178 542 c 3
 178 515 194 479 238 435 c 0
 297 376 351 319 398 262 c 1
 401 271 402 281 405 291 c 0
 410 311 427 321 447 317 c 2
 480 311 l 2
 501 307 512 290 507 269 c 0
 497 230 487 201 473 170 c 1
 502 124 523 82 535 40 c 0
 540 17 527 0 503 0 c 2
233 89 m 3
 271 89 316 111 355 167 c 1
 320 212 276 252 219 311 c 1
 168 273 146 234 146 190 c 3
 146 130 172 89 233 89 c 3
EndSplineSet
EndChar

StartChar: asciicircum
Encoding: 94 94 150
GlifName: asciicircum
Width: 575
VWidth: 0
Flags: MW
LayerCount: 2
Fore
SplineSet
288 729 m 3
 314 729 332 720 364 689 c 2
 553 506 l 2
 569 490 569 470 552 455 c 2
 530 436 l 2
 514 421 495 421 480 437 c 2
 297 626 l 2
 292 631 290 632 288 632 c 0
 286 632 284 631 279 626 c 2
 95 437 l 2
 81 422 63 422 46 436 c 2
 23 456 l 2
 6 471 6 491 22 506 c 2
 211 689 l 2
 243 719 261 729 288 729 c 3
EndSplineSet
PickledDataWithLists: "(dp0
Vcom.schriftgestaltung.Glyphs.lastChange\\u000d\\u000d\\u000d\\u000d\\u000d\\u000d
p1
V2015-12-22 14:26:04 +0000\\u000d\\u000d\\u000d\\u000d\\u000d\\u000d
p2
s."
EndChar

StartChar: asciitilde
Encoding: 126 126 151
GlifName: asciitilde
Width: 575
VWidth: 0
Flags: MW
LayerCount: 2
Fore
SplineSet
486 378 m 2
 515 378 l 2
 536 378 548 364 548 342 c 3
 548 245 499 190 412 190 c 3
 365 190 310 220 254 276 c 0
 218 312 184 334 164 334 c 3
 139 334 126 314 126 275 c 3
 126 255 112 243 89 243 c 2
 61 243 l 2
 40 243 27 257 27 279 c 3
 27 376 77 431 164 431 c 3
 210 431 266 400 322 344 c 0
 358 308 392 286 412 286 c 3
 436 286 449 306 449 346 c 3
 449 366 463 378 486 378 c 2
EndSplineSet
EndChar

StartChar: asterisk
Encoding: 42 42 152
GlifName: asterisk
Width: 575
VWidth: 0
Flags: MW
LayerCount: 2
Fore
SplineSet
517 320 m 2
 389 279 l 1
 481 150 l 2
 493 132 491 113 474 101 c 2
 445 81 l 2
 427 69 408 71 396 88 c 2
 287 239 l 1
 179 88 l 2
 167 71 146 68 129 80 c 2
 100 101 l 2
 83 113 80 133 93 150 c 2
 187 279 l 1
 58 320 l 2
 37 326 28 344 35 364 c 2
 47 398 l 2
 54 418 71 427 91 420 c 2
 235 373 l 1
 235 525 l 2
 235 547 248 560 270 560 c 2
 305 560 l 2
 327 560 340 547 340 525 c 2
 340 373 l 1
 484 421 l 2
 505 427 522 418 529 398 c 2
 539 364 l 2
 546 344 538 326 517 320 c 2
EndSplineSet
EndChar

StartChar: at
Encoding: 64 64 153
GlifName: at
Width: 575
VWidth: 0
Flags: MW
LayerCount: 2
Back
SplineSet
41 88 m 2
 41 464 l 2
 41 537.841118774 57.0680524324 596.840381195 90.2256650749 639.767647563 c 0
 131.842584927 693.646695585 198.907961518 720 288 720 c 0
 376.553270438 720 443.372735885 693.632487687 484.870455452 639.75684931 c 0
 517.932042875 596.833668307 534 537.841929546 534 464 c 2
 534 112 l 2
 534 103.246618748 531.798711228 95.0967468189 526.614380323 88.700494404 c 0
 520.024900642 80.5706168755 509.92286565 77 499 77 c 2
 439 77 l 2
 373.570939752 77 326.869172707 98.1637341358 299.216454395 140.717863288 c 0
 277.330400561 174.397805742 268 219.842117112 268 276 c 0
 268 332.157882888 277.330400561 377.602194258 299.216454395 411.282136712 c 0
 325.418968208 451.604579676 368.724925263 472.721370316 428.860583575 474.82534634 c 1
 427.602559596 518.479997943 417.859903013 551.967992414 400.819358572 575.74985114 c 0
 378.16132879 607.371497099 341.476094079 624 288 624 c 0
 233.940481067 624 197.02449774 607.353467882 174.269881192 575.580405115 c 0
 155.891795625 549.918444825 146 512.946243874 146 464 c 2
 146 88 l 2
 146 39.0537561263 155.891795625 2.08155517512 174.269881192 -23.5804051148 c 0
 197.02449774 -55.3534678823 233.940481067 -72 288 -72 c 0
 319.664572347 -72 345.127787574 -66.3913270232 377.446184762 -54.649687665 c 0
 382.446343432 -52.6669020323 387.448867133 -51.5247825625 392.49229045 -51.5247822044 c 0
 406.616917571 -51.5247822044 416.992664168 -61.0519399567 422.265184289 -74.2332402602 c 2
 433.17666237 -101.015959185 l 2
 435.684635792 -106.459194015 437.114026314 -111.982619223 437.114026314 -117.548203435 c 0
 437.114026314 -131.438946253 427.576561424 -141.975426292 414.274776949 -146.451184769 c 0
 374.352263425 -160.77079436 335.004962735 -167.999999913 288 -168 c 0
 198.907961518 -168 131.842584927 -141.646695585 90.2256650749 -87.7676475626 c 0
 57.0680524324 -44.8403811951 41 14.1588812259 41 88 c 2
EndSplineSet
Fore
SplineSet
343 276 m 3
 343 216 374 178 429 174 c 1
 429 378 l 1
 374 374 343 336 343 276 c 3
238 276 m 3
 238 396 310 471 429 475 c 1
 426 575 379 624 288 624 c 3
 193 624 146 571 146 464 c 2
 146 88 l 2
 146 -44 217 -72 288 -72 c 3
 320 -72 345 -67 377 -55 c 0
 397 -47 414 -54 422 -74 c 2
 433 -101 l 2
 441 -122 434 -139 414 -146 c 0
 374 -160 335 -168 288 -168 c 3
 165 -168 41 -117 41 88 c 2
 41 464 l 2
 41 633 125 720 288 720 c 3
 450 720 534 632 534 464 c 2
 534 112 l 2
 534 90 521 77 499 77 c 2
 439 77 l 2
 314 77 238 153 238 276 c 3
EndSplineSet
EndChar

StartChar: b
Encoding: 98 98 155
GlifName: b
Width: 575
VWidth: 0
Flags: MW
AnchorPoint: "mark-bottom" 288 0 basechar 0
LayerCount: 2
Fore
SplineSet
94 19 m 0
 83 24 75 35 75 48 c 2
 75 715 l 2
 75 737 88 750 110 750 c 2
 145 750 l 2
 167 750 180 737 180 715 c 2
 180 504 l 1
 203 508 225 510 247 510 c 3
 405 510 500 413 500 250 c 3
 500 87 405 -10 247 -10 c 3
 193 -10 140 0 94 19 c 0
180 95 m 1
 203 90 224 88 247 88 c 3
 345 88 394 142 394 250 c 3
 394 360 341 416 237 416 c 3
 220 416 202 414 180 411 c 1
 180 95 l 1
EndSplineSet
EndChar

StartChar: b.hex
Encoding: 65545 -1 156
GlifName: b.hex
Width: 575
VWidth: 0
Flags: MW
LayerCount: 2
Fore
SplineSet
112.299505596 892.614380323 m 0
 120.429383125 886.024900642 124 875.92286565 124 865 c 2
 124 819 l 2
 124 807.680679758 120.49077603 797.434582054 112.147103874 790.935300585 c 0
 105.638298075 785.865283436 97.5384556952 784 89 784 c 2
 54 784 l 2
 42.6806797579 784 32.4345820537 787.50922397 25.9353005852 795.852896126 c 0
 20.8652834364 802.361701925 19 810.461544305 19 819 c 2
 19 865 l 2
 19 875.92286565 22.5706168755 886.024900642 30.700494404 892.614380323 c 0
 37.0967468189 897.798711228 45.2466187476 900 54 900 c 2
 89 900 l 2
 97.7533812524 900 105.903253181 897.798711228 112.299505596 892.614380323 c 0
404.614380323 888.299505596 m 0
 409.798711228 881.903253181 412 873.753381252 412 865 c 2
 412 819 l 2
 412 807.680679758 408.49077603 797.434582054 400.147103874 790.935300585 c 0
 393.638298075 785.865283436 385.538455695 784 377 784 c 2
 342 784 l 2
 330.680679758 784 320.434582054 787.50922397 313.935300585 795.852896126 c 0
 308.865283436 802.361701925 307 810.461544305 307 819 c 2
 307 865 l 2
 307 873.753381252 309.201288772 881.903253181 314.385619677 888.299505596 c 0
 320.975099358 896.429383125 331.07713435 900 342 900 c 2
 377 900 l 2
 387.92286565 900 398.024900642 896.429383125 404.614380323 888.299505596 c 0
548.614380323 888.299505596 m 0
 553.798711228 881.903253181 556 873.753381252 556 865 c 2
 556 819 l 2
 556 807.680679758 552.49077603 797.434582054 544.147103874 790.935300585 c 0
 537.638298075 785.865283436 529.538455695 784 521 784 c 2
 486 784 l 2
 474.680679758 784 464.434582054 787.50922397 457.935300585 795.852896126 c 0
 452.865283436 802.361701925 451 810.461544305 451 819 c 2
 451 865 l 2
 451 873.753381252 453.201288772 881.903253181 458.385619677 888.299505596 c 0
 464.975099358 896.429383125 475.07713435 900 486 900 c 2
 521 900 l 2
 531.92286565 900 542.024900642 896.429383125 548.614380323 888.299505596 c 0
93.8916008628 19.0995924578 m 0
 82.0584725362 23.9717145135 75 35.7560771823 75 48.4468319118 c 2
 75 715.714829572 l 2
 75 726.354944449 78.5706168755 736.195476802 86.700494404 742.614380323 c 0
 93.0967468189 747.798711228 101.246618748 750 110 750 c 2
 145 750 l 2
 153.753381252 750 161.903253181 747.798711228 168.299505596 742.614380323 c 0
 176.429383125 736.308179762 180 726.640427249 180 716.187131264 c 2
 180 514.034367879 l 1
 201.850420758 517.79864749 224.372725779 520 247 520 c 0
 304.615066842 520 361.021385352 506.0755912 406.155368845 473.035832979 c 0
 462.788635689 431.578170727 500 360.875805988 500 255 c 0
 500 149.124194012 462.788635689 78.421829273 406.155368845 36.964167021 c 0
 361.021385352 3.92440880007 304.615066842 -10 247 -10 c 0
 194.517164253 -10 141.808177231 -0.629375412302 93.8916008628 19.0995924578 c 0
180 94.8332466433 m 1
 202.427425648 90.2547730251 223.451242479 88 247 88 c 0
 347.826099798 88 394 146.856886673 394 255.057471264 c 0
 394 331.401635288 370.460682167 374.858646553 336.92104362 398.925883324 c 0
 309.869276537 418.337579801 274.792875191 426 237 426 c 0
 218.569299206 426 199.082606133 423.846601526 180 420.749098177 c 1
 180 94.8332466433 l 1
EndSplineSet
PickledDataWithLists: "(dp0
Vcom.schriftgestaltung.Glyphs.lastChange\\u000d\\u000d\\u000d\\u000d\\u000d\\u000d
p1
V2016-06-09 18:35:34 +0000\\u000d\\u000d\\u000d\\u000d\\u000d\\u000d
p2
s."
EndChar

StartChar: backslash
Encoding: 92 92 157
GlifName: backslash
Width: 575
VWidth: 0
Flags: MW
LayerCount: 2
Fore
SplineSet
79 704 m 2
 106 717 l 2
 125 726 143 720 152 701 c 2
 504 -21 l 2
 513 -40 506 -58 487 -67 c 2
 460 -80 l 2
 441 -89 423 -83 414 -64 c 2
 62 658 l 2
 53 677 60 695 79 704 c 2
EndSplineSet
PickledDataWithLists: "(dp0
Vcom.schriftgestaltung.Glyphs.lastChange\\u000d\\u000d\\u000d\\u000d\\u000d\\u000d
p1
V2015-12-22 16:32:37 +0000\\u000d\\u000d\\u000d\\u000d\\u000d\\u000d
p2
s."
EndChar

StartChar: bar
Encoding: 124 124 158
GlifName: bar
Width: 575
VWidth: 0
Flags: MW
LayerCount: 2
Fore
SplineSet
270 710 m 2
 305 710 l 2
 327 710 340 697 340 675 c 2
 340 -38 l 2
 340 -60 327 -73 305 -73 c 2
 270 -73 l 2
 248 -73 235 -60 235 -38 c 2
 235 675 l 2
 235 697 248 710 270 710 c 2
EndSplineSet
PickledDataWithLists: "(dp0
Vcom.schriftgestaltung.Glyphs.lastChange\\u000d\\u000d\\u000d\\u000d\\u000d\\u000d
p1
V2015-12-22 16:32:56 +0000\\u000d\\u000d\\u000d\\u000d\\u000d\\u000d
p2
s."
EndChar

StartChar: beta
Encoding: 946 946 159
GlifName: beta
Width: 575
VWidth: 0
Flags: MW
AnchorPoint: "mark-top" 288 700 basechar 0
LayerCount: 2
Back
SplineSet
102 -210 m 2
 102 510 l 2
 102 530 102 552 108 575 c 0
 128.276114013 652.725103716 200.246541383 710.102143105 286.675200309 710.102143105 c 3
 392.22473209 710.102143105 475 627.941469853 475 523 c 3
 475 431.978024631 410.66796875 393.66796875 365 372 c 1
 418.071289062 355.252929688 513.700946072 318.029003257 513.700946072 192.250873896 c 3
 513.700946072 95.9369601668 447.928997492 29.5941045591 371 8 c 0
 342 0 315 0 291 -0 c 2
 186 -0 l 1
 187 -210 l 2
 187 -226 179 -235 162 -235 c 258
 127 -235 l 258
 111 -235 102 -226 102 -210 c 2
257 404 m 2
 264 404 l 2
 343.504139322 404 390 448.547134617 390 523 c 3
 390 582.954343517 346.747668346 634.045272166 288.185464199 634.045272166 c 3
 244.262732409 634.045272166 200.244582433 601.141384688 191 558 c 0
 188 545 186 528 186 510 c 0
 186 76 l 1
 291 76 l 2
 358.341352027 76 399.640944451 98.0175641187 420 145 c 0
 427.211989023 160.866375851 430.352308901 176.973103788 430.352308901 192.701006778 c 3
 430.352308901 294.027308324 327 328 294 328 c 2
 257 328 l 2
 241 328 232 337 232 353 c 10
 232 379 l 18
 232 395 241 404 257 404 c 2
653 171 m 258
 646 144 l 257
 643 128 649 116 666 114 c 257
 703 108 752 105 802 105 c 259
 972 105 1059 152 1059 245 c 259
 1059 307 1009 348 924 367 c 257
 1009 385 1049 426 1049 488 c 259
 1049 574 960 628 802 628 c 259
 752 628 703 625 666 619 c 257
 649 617 643 605 646 589 c 257
 653 562 l 258
 657 547 667 541 683 543 c 257
 708 548 750 551 802 552 c 256
 908 552 964 527 964 488 c 259
 964 447 908 405 802 405 c 259
 786 405 777 396 777 380 c 258
 777 353 l 258
 777 337 786 328 802 328 c 259
 908 328 974 286 974 245 c 259
 974 203 916 181 802 181 c 259
 749.990234375 181 708 185 683 190 c 257
 667 192 657 186 653 171 c 258
-489 498 m 258
 -489 635 -421 704 -297 704 c 256
 -181 704 -118 648 -118 545 c 256
 -118 502 -142 463 -163 431 c 256
 -177 408 -189 389 -189 374 c 256
 -189 352 -170 336 -148 318 c 256
 -116 292 -77 260 -78 196 c 256
 -79 72 -213 -68 -404 20 c 257
 -404 -206 l 258
 -404 -222 -412 -231 -429 -231 c 258
 -464 -231 l 258
 -480 -231 -489 -222 -489 -206 c 258
 -489 498 l 258
-198 537 m 256
 -198 596 -233 628 -297 628 c 256
 -366 628 -404 585 -404 498 c 258
 -404 90 l 257
 -222 8 -159 122 -159 201 c 256
 -159 242 -188 262 -216 283 c 257
 -245 303 -274 324 -274 367 c 256
 -274 406 -250 441 -229 472 c 256
 -213 496 -198 517 -198 537 c 256
  Spiro
    -198 537 o
    -209.422 586.774 o
    -242.933 617.539 o
    -297 628 o
    -355.36 613.658 o
    -391.617 570.313 o
    -404 498 [
    -404 90 v
    -259.702 64.7548 o
    -182.026 118.966 o
    -159 201 o
    -167.54 235.785 o
    -188.803 261.541 o
    -216 283 v
    -243.9 304.088 o
    -265.424 330.586 o
    -274 367 o
    -267.013 404.63 o
    -249.98 439.7 o
    -229 472 o
    -213.866 495.052 o
    -202.473 516.613 o
    0 0 z
  EndSpiro
EndSplineSet
Fore
SplineSet
91 -200 m 2
 91 500 l 2
 91 624 172 710 288 710 c 3
 400 710 485 624 485 510 c 3
 485 444 452 391 390 355 c 1
 476 325 518 270 518 185 c 3
 518 69 432 0 288 0 c 2
 196 0 l 1
 196 -200 l 2
 196 -222 183 -235 161 -235 c 2
 126 -235 l 2
 104 -235 91 -222 91 -200 c 2
257 399 m 2
 264 399 l 2
 335 399 380 442 380 510 c 3
 380 571 342 614 288 614 c 3
 231 614 196 571 196 500 c 2
 196 96 l 1
 288 96 l 2
 367 96 414 131 414 189 c 3
 414 254 362 303 294 303 c 2
 257 303 l 2
 235 303 222 316 222 338 c 2
 222 364 l 2
 222 386 235 399 257 399 c 2
EndSplineSet
PickledDataWithLists: "(dp0
Vcom.schriftgestaltung.Glyphs.lastChange\\u000d\\u000d\\u000d\\u000d\\u000d\\u000d
p1
V2015-12-22 12:27:37 +0000\\u000d\\u000d\\u000d\\u000d\\u000d\\u000d
p2
s."
EndChar

StartChar: block
Encoding: 9608 9608 160
GlifName: block
Width: 575
Flags: MW
LayerCount: 2
Fore
SplineSet
-10 -330 m 1
 -10 920 l 1
 585 920 l 1
 585 -330 l 1
 -10 -330 l 1
EndSplineSet
PickledDataWithLists: "(dp0
Vcom.schriftgestaltung.Glyphs.lastChange\\u000d\\u000d\\u000d\\u000d\\u000d\\u000d
p1
V2016-06-10 08:26:49 +0000\\u000d\\u000d\\u000d\\u000d\\u000d\\u000d
p2
s."
EndChar

StartChar: braceleft
Encoding: 123 123 161
GlifName: braceleft
Width: 575
VWidth: 0
Flags: MW
LayerCount: 2
Fore
SplineSet
340 585 m 2
 340 409 l 2
 340 345 325 311 285 286 c 1
 324 262 340 227 340 164 c 2
 340 -13 l 2
 340 -72 358 -92 410 -92 c 2
 491 -92 l 2
 513 -92 526 -105 526 -127 c 2
 526 -153 l 2
 526 -175 513 -188 491 -188 c 2
 410 -188 l 2
 286 -188 235 -137 235 -13 c 2
 235 164 l 2
 235 219 217 238 165 238 c 2
 85 238 l 2
 63 238 50 251 50 273 c 2
 50 299 l 2
 50 321 63 334 85 334 c 2
 165 334 l 2
 217 334 235 354 235 409 c 2
 235 585 l 2
 235 708 287 760 410 760 c 2
 491 760 l 2
 513 760 526 747 526 725 c 2
 526 699 l 2
 526 677 513 664 491 664 c 2
 410 664 l 2
 358 664 340 643 340 585 c 2
EndSplineSet
EndChar

StartChar: bracketleft
Encoding: 91 91 163
GlifName: bracketleft
Width: 575
VWidth: 0
Flags: MW
LayerCount: 2
Fore
SplineSet
245 664 m 1
 245 -92 l 1
 470 -92 l 2
 492 -92 505 -105 505 -127 c 2
 505 -153 l 2
 505 -175 492 -188 470 -188 c 2
 175 -188 l 2
 153 -188 140 -175 140 -153 c 2
 140 725 l 2
 140 747 153 760 175 760 c 2
 470 760 l 2
 492 760 505 747 505 725 c 2
 505 699 l 2
 505 677 492 664 470 664 c 2
 245 664 l 1
EndSplineSet
PickledDataWithLists: "(dp0
Vcom.schriftgestaltung.Glyphs.lastChange\\u000d\\u000d\\u000d\\u000d\\u000d\\u000d
p1
V2015-12-22 13:51:23 +0000\\u000d\\u000d\\u000d\\u000d\\u000d\\u000d
p2
s."
EndChar

StartChar: breve
Encoding: 728 728 165
GlifName: breve
Width: 575
VWidth: 0
GlyphClass: 2
Flags: MW
LayerCount: 2
Fore
SplineSet
480 659 m 0
 457 575 387 528 288 528 c 3
 189 528 118 575 95 659 c 0
 90 680 101 697 123 701 c 2
 151 706 l 2
 170 710 185 700 192 679 c 0
 206 632 239 608 288 608 c 3
 336 608 369 632 384 679 c 0
 389 700 405 710 425 706 c 2
 453 701 l 2
 475 697 486 680 480 659 c 0
EndSplineSet
PickledDataWithLists: "(dp0
Vcom.schriftgestaltung.Glyphs.lastChange\\u000d\\u000d\\u000d\\u000d\\u000d\\u000d
p1
V2015-12-22 16:32:39 +0000\\u000d\\u000d\\u000d\\u000d\\u000d\\u000d
p2
s."
EndChar

StartChar: brokenbar
Encoding: 166 166 166
GlifName: brokenbar
Width: 575
VWidth: 0
Flags: MW
LayerCount: 2
Fore
SplineSet
270 203 m 2
 305 203 l 2
 327 203 340 190 340 168 c 2
 340 -153 l 2
 340 -175 327 -188 305 -188 c 2
 270 -188 l 2
 248 -188 235 -175 235 -153 c 2
 235 168 l 2
 235 190 248 203 270 203 c 2
270 760 m 2
 305 760 l 2
 327 760 340 747 340 725 c 2
 340 404 l 2
 340 382 327 369 305 369 c 2
 270 369 l 2
 248 369 235 382 235 404 c 2
 235 725 l 2
 235 747 248 760 270 760 c 2
EndSplineSet
PickledDataWithLists: "(dp0
Vcom.schriftgestaltung.Glyphs.lastChange\\u000d\\u000d\\u000d\\u000d\\u000d\\u000d
p1
V2015-12-22 14:22:08 +0000\\u000d\\u000d\\u000d\\u000d\\u000d\\u000d
p2
s."
EndChar

StartChar: bullet
Encoding: 8226 8226 167
GlifName: bullet
Width: 575
VWidth: 0
Flags: MW
LayerCount: 2
Fore
SplineSet
470 311 m 3
 470 207.668731366 389.60564691 126 288 126 c 3
 185.43910777 126 105 207.64200859 105 311 c 3
 105 414.35799141 185.43910777 496 288 496 c 3
 389.60564691 496 470 414.331268634 470 311 c 3
EndSplineSet
PickledDataWithLists: "(dp0
Vcom.schriftgestaltung.Glyphs.lastChange\\u000d\\u000d\\u000d\\u000d\\u000d\\u000d
p1
V2015-12-22 16:32:38 +0000\\u000d\\u000d\\u000d\\u000d\\u000d\\u000d
p2
s."
EndChar

StartChar: c
Encoding: 99 99 168
GlifName: c
Width: 575
VWidth: 0
Flags: MW
AnchorPoint: "mark-bottom" 288 -0 basechar 0
AnchorPoint: "mark-top" 288 500 basechar 0
LayerCount: 2
Back
SplineSet
328 412 m 3
 227.173900202 412 181 354.924937335 181 250 c 3
 181 145.015509291 227.121503689 88 328 88 c 0
 368.14230514 88 401.377886259 92.7232597158 445.291910891 110.288869569 c 0
 450.343449348 112.309484951 455.396997223 113.475217796 460.49229045 113.475217796 c 0
 474.59206726 113.475217796 484.979745217 103.923089597 490.260993177 90.7776276658 c 2
 490.260993177 90.7776276658 500.235222386 66.8394775648 500.288869569 66.7080891091 c 0
 502.426800155 61.3632626423 503.673589889 55.9868201862 503.673589889 50.5607300001 c 0
 503.673589889 37.0422908181 495.133721787 26.1211968641 481.814288498 20.7537682649 c 0
 436.973260228 1.68746269276 334.16553885 -10.2149646269 327.703196734 -10.2149646269 c 1
 327.785774649 -10.1956361137 327.884611835 -10.0230708143 328 -10 c 1
 270.384933158 -10 213.978614648 3.66168410573 168.844631155 36.0780506621 c 0
 112.211364311 76.7534928717 75 146.121850729 75 250 c 3
 75 353.878149271 112.211364311 423.246507128 168.844631155 463.921949338 c 0
 213.978614648 496.338315894 270.384933158 510 328 510 c 3
 380.287141825 510 433.511735393 499.784369898 481.814288778 479.246231619 c 0
 495.133721861 473.878802874 503.673589843 462.957708979 503.673589889 449.43927 c 0
 503.673589889 444.013179814 502.503864519 438.605263556 500.235222386 433.160522435 c 2
 490.260993177 409.222372334 l 2
 484.979745217 396.076910403 474.59206726 386.524782204 460.49229045 386.524782204 c 0
 455.448868422 386.524782204 450.446346118 387.666901031 445.446189394 389.649686992 c 0
 402.261391539 405.3405488 367.751552019 411.99999864 328 412 c 3
EndSplineSet
Fore
SplineSet
328 412 m 3
 230 412 181 358 181 250 c 3
 181 142 230 88 328 88 c 3
 372 88 405 94 445 110 c 0
 465 118 482 111 490 91 c 2
 500 67 l 2
 508 47 501 29 482 21 c 0
 448 7 366 -10 328 -10 c 3
 170 -10 75 87 75 250 c 3
 75 413 170 510 328 510 c 3
 381 510 435 499 482 479 c 0
 502 471 508 453 500 433 c 2
 490 409 l 2
 482 389 465 382 445 390 c 0
 402 406 368 412 328 412 c 3
EndSplineSet
EndChar

StartChar: c.hex
Encoding: 65548 -1 169
GlifName: c.hex
Width: 575
VWidth: 0
Flags: MW
AnchorPoint: "top" 288 550 basechar 0
AnchorPoint: "bottom" 288 0 basechar 0
LayerCount: 2
Fore
SplineSet
112.299505596 892.614380323 m 0
 120.429383125 886.024900642 124 875.92286565 124 865 c 2
 124 819 l 2
 124 807.680679758 120.49077603 797.434582054 112.147103874 790.935300585 c 0
 105.638298075 785.865283436 97.5384556952 784 89 784 c 2
 54 784 l 2
 42.6806797579 784 32.4345820537 787.50922397 25.9353005852 795.852896126 c 0
 20.8652834364 802.361701925 19 810.461544305 19 819 c 2
 19 865 l 2
 19 875.92286565 22.5706168755 886.024900642 30.700494404 892.614380323 c 0
 37.0967468189 897.798711228 45.2466187476 900 54 900 c 2
 89 900 l 2
 97.7533812524 900 105.903253181 897.798711228 112.299505596 892.614380323 c 0
256.299505596 892.614380323 m 0
 264.429383125 886.024900642 268 875.92286565 268 865 c 2
 268 819 l 2
 268 807.680679758 264.49077603 797.434582054 256.147103874 790.935300585 c 0
 249.638298075 785.865283436 241.538455695 784 233 784 c 2
 198 784 l 2
 186.680679758 784 176.434582054 787.50922397 169.935300585 795.852896126 c 0
 164.865283436 802.361701925 163 810.461544305 163 819 c 2
 163 865 l 2
 163 875.92286565 166.570616875 886.024900642 174.700494404 892.614380323 c 0
 181.096746819 897.798711228 189.246618748 900 198 900 c 2
 233 900 l 2
 241.753381252 900 249.903253181 897.798711228 256.299505596 892.614380323 c 0
328 422 m 0
 227.173900202 422 181 363.163361327 181 255 c 0
 181 146.775247233 227.121503689 88 328 88 c 0
 367.731468005 88 401.212951923 94.6379713855 445.480691675 110.363984607 c 0
 450.129266676 112.203750268 460.016884457 113.475904292 460.49229045 113.475217796 c 0
 474.59161639 113.454858058 484.979745217 103.923089597 490.260993177 90.7776276658 c 2
 490.260993177 90.7776276658 500.235222386 66.8394775648 500.288869569 66.7080891091 c 0
 502.426800155 61.3632626423 503.673589889 55.9868201862 503.673589889 50.5607300001 c 0
 503.673589889 37.0422908181 495.133721787 26.1211968641 481.814288498 20.7537682649 c 0
 436.973260228 1.68746269276 334.16553885 -10.2149646269 327.703196734 -10.2149646269 c 1
 327.785774649 -10.1956361137 327.884611835 -10.0230708143 328 -10 c 1
 270.384933158 -10 213.978614648 3.92440880007 168.844631155 36.964167021 c 0
 112.211364311 78.421829273 75 149.124194012 75 255 c 0
 75 360.875805988 112.211364311 431.578170727 168.844631155 473.035832979 c 0
 213.978614648 506.0755912 270.384933158 520 328 520 c 0
 380.287141825 520 433.511735393 509.784369898 481.814288778 489.246231619 c 0
 495.133721861 483.878802874 503.673589843 472.957708979 503.673589889 459.43927 c 0
 503.673589889 454.013179814 502.503864519 448.605263556 500.235222386 443.160522435 c 2
 490.260993177 419.222372334 l 2
 484.979745217 406.076910403 474.59206726 396.524782204 460.49229045 396.524782204 c 0
 455.448868422 396.524782204 450.446346118 397.666901031 445.446189394 399.649686992 c 0
 402.261391539 415.3405488 367.751552019 421.99999864 328 422 c 0
EndSplineSet
PickledDataWithLists: "(dp0
Vcom.schriftgestaltung.Glyphs.lastChange\\u000d\\u000d\\u000d\\u000d\\u000d\\u000d
p1
V2016-06-09 18:35:34 +0000\\u000d\\u000d\\u000d\\u000d\\u000d\\u000d
p2
s."
EndChar

StartChar: caron
Encoding: 711 711 171
GlifName: caron
Width: 575
VWidth: 0
GlyphClass: 2
Flags: MW
LayerCount: 2
Back
SplineSet
288 532 m 0
 262.235147475 532 240.232445759 542.191314717 218.652256554 555.550479463 c 2
 114.602839714 621.582043419 l 2
 104.346165204 628.17561989 97.1116066278 637.973514445 97.1116066278 649.777592546 c 0
 97.1116066278 657.352644104 100.075851865 664.569496488 105.007270308 671.008282958 c 2
 105.007270308 671.008282958 121.953287397 693.935247255 122.069378039 694.08919864 c 0
 129.150737084 703.294965399 138.564820757 709.522727273 149.615984222 709.522727273 c 0
 157.111223748 709.522727273 164.209967833 706.708490158 170.703405708 702.213033168 c 0
 204.798007587 678.47547703 238.904523121 654.749834549 272.991600964 631.004754376 c 0
 273.716640793 630.460974504 274.391874415 629.948665335 275.020936933 629.471434113 c 0
 281.741337004 624.373077995 281.255330809 624 288 624 c 0
 293.343086796 624 293.623910508 624.637024651 298.684046821 628.138124679 c 0
 334.295510414 652.777638025 369.799468202 677.504223522 405.31756829 702.227593137 c 0
 411.807984447 706.720958169 418.862003862 709.522727273 426.315552216 709.522727273 c 0
 437.307855902 709.522727273 446.601795184 703.185282082 453.133843551 693.817364207 c 2
 469.992458848 671.008649394 l 2
 475.083768434 664.3633394 478.25 656.926961125 478.25 649.039351852 c 0
 478.25 637.681242928 471.552433782 627.928131042 461.289404988 621.513738046 c 2
 357.364248829 556.560515447 l 2
 336.755930625 543.173931777 313.971110461 532 288 532 c 0
EndSplineSet
Fore
SplineSet
454 695 m 2
 470 671 l 2
 483 652 479 634 460 622 c 2
 356 556 l 2
 329 538 309 531 287 531 c 3
 266 531 244 538 218 555 c 2
 114 622 l 2
 95 634 92 653 105 671 c 2
 122 694 l 2
 134 711 153 714 170 702 c 2
 276 627 l 2
 285 621 289 621 298 627 c 2
 404 702 l 2
 421 714 443 711 454 695 c 2
EndSplineSet
PickledDataWithLists: "(dp0
Vcom.schriftgestaltung.Glyphs.lastChange\\u000d\\u000d\\u000d\\u000d\\u000d\\u000d
p1
V2016-05-18 20:16:32 +0000\\u000d\\u000d\\u000d\\u000d\\u000d\\u000d
p2
s."
EndChar

StartChar: cedilla
Encoding: 184 184 175
GlifName: cedilla
Width: 575
VWidth: 0
GlyphClass: 2
Flags: MW
LayerCount: 2
Fore
SplineSet
296 23 m 2
 315 22 326 12 326 -4 c 3
 326 -9 325 -15 322 -21 c 2
 307 -55 l 1
 322 -53 337 -51 351 -51 c 3
 424 -51 473 -85 473 -135 c 3
 473 -204 389 -256 275 -256 c 3
 251 -256 225 -253 194 -245 c 0
 178 -240 169 -228 169 -214 c 0
 169 -207 169 -208 176 -189 c 0
 182 -170 198 -161 218 -165 c 0
 237 -169 259 -171 275 -171 c 3
 318 -171 356 -157 356 -142 c 3
 356 -134 341 -129 321 -129 c 3
 309 -129 293 -132 286 -132 c 3
 274 -132 263 -127 254 -118 c 2
 226 -89 l 2
 213 -76 210 -61 218 -44 c 2
 238 -1 l 2
 245 15 258 23 274 23 c 2
 296 23 l 2
EndSplineSet
PickledDataWithLists: "(dp0
Vcom.schriftgestaltung.Glyphs.lastChange\\u000d\\u000d\\u000d\\u000d\\u000d\\u000d
p1
V2015-12-22 16:32:40 +0000\\u000d\\u000d\\u000d\\u000d\\u000d\\u000d
p2
s."
EndChar

StartChar: cent
Encoding: 162 162 176
GlifName: cent
Width: 575
VWidth: 0
Flags: MW
LayerCount: 2
Fore
SplineSet
353 40 m 1
 353 -153 l 2
 353 -175 340 -188 318 -188 c 2
 283 -188 l 2
 261 -188 248 -175 248 -153 c 2
 248 56 l 1
 353 40 l 1
248 455 m 1
 248 653 l 2
 248 675 261 688 283 688 c 2
 318 688 l 2
 340 688 353 675 353 653 c 2
 353 471 l 1
 248 455 l 1
EndSplineSet
Refer: 168 99 N 1 0 0 1 0 0 2
PickledDataWithLists: "(dp0
Vcom.schriftgestaltung.Glyphs.lastChange\\u000d\\u000d\\u000d\\u000d\\u000d\\u000d
p1
V2015-12-22 14:01:47 +0000\\u000d\\u000d\\u000d\\u000d\\u000d\\u000d
p2
s."
EndChar

StartChar: chi
Encoding: 967 967 177
GlifName: chi
Width: 575
VWidth: 0
Flags: MW
AnchorPoint: "mark-top" 288 500 basechar 0
LayerCount: 2
Fore
SplineSet
85 501 m 0
 93 502 95 502 112 502 c 3
 157 502 193 487 225 453 c 0
 257 420 286 369 314 297 c 1
 432 479 l 2
 441 492 454 500 470 500 c 2
 509 500 l 2
 537 500 548 479 533 456 c 2
 357 197 l 1
 389 118 l 2
 428 22 461 -22 494 -22 c 3
 501 -22 508 -21 515 -21 c 0
 538 -20 545 -31 551 -76 c 0
 553 -95 543 -109 521 -115 c 0
 518 -116 507 -116 494 -116 c 3
 449 -116 413 -101 381 -67 c 0
 349 -34 320 17 292 89 c 2
 288 100 l 1
 145 -117 l 2
 133 -135 115 -138 97 -126 c 2
 77 -114 l 2
 59 -103 56 -82 68 -65 c 2
 245 198 l 1
 217 268 l 2
 178 364 145 408 112 408 c 3
 105 408 100 407 93 407 c 3
 82 407 73 410 67 417 c 0
 60 425 60 426 55 462 c 0
 52 485 63 498 85 501 c 0
EndSplineSet
PickledDataWithLists: "(dp0
Vcom.schriftgestaltung.Glyphs.lastChange\\u000d\\u000d\\u000d\\u000d\\u000d\\u000d
p1
V2015-12-22 12:54:05 +0000\\u000d\\u000d\\u000d\\u000d\\u000d\\u000d
p2
s."
EndChar

StartChar: circumflex
Encoding: 710 710 178
GlifName: circumflex
Width: 575
VWidth: 0
GlyphClass: 2
Flags: MW
LayerCount: 2
Fore
SplineSet
121 546 m 2
 105 570 l 2
 92 589 96 607 115 619 c 2
 219 685 l 2
 246 703 266 710 288 710 c 3
 309 710 331 703 357 686 c 2
 461 619 l 2
 480 607 483 588 470 570 c 2
 453 547 l 2
 441 530 422 527 405 539 c 2
 299 614 l 2
 290 620 286 620 277 614 c 2
 171 539 l 2
 154 527 132 530 121 546 c 2
EndSplineSet
PickledDataWithLists: "(dp0
Vcom.schriftgestaltung.Glyphs.lastChange\\u000d\\u000d\\u000d\\u000d\\u000d\\u000d
p1
V2015-12-22 16:32:40 +0000\\u000d\\u000d\\u000d\\u000d\\u000d\\u000d
p2
s."
EndChar

StartChar: colon
Encoding: 58 58 179
GlifName: colon
Width: 575
VWidth: 0
Flags: MW
LayerCount: 2
Fore
SplineSet
237 560 m 2
 337 560 l 2
 359 560 372 547 372 525 c 2
 372 435 l 2
 372 413 359 400 337 400 c 2
 237 400 l 2
 215 400 202 413 202 435 c 2
 202 525 l 2
 202 547 215 560 237 560 c 2
237 150 m 2
 337 150 l 2
 359 150 372 137 372 115 c 2
 372 25 l 2
 372 3 359 -10 337 -10 c 2
 237 -10 l 2
 215 -10 202 3 202 25 c 2
 202 115 l 2
 202 137 215 150 237 150 c 2
EndSplineSet
PickledDataWithLists: "(dp0
Vcom.schriftgestaltung.Glyphs.lastChange\\u000d\\u000d\\u000d\\u000d\\u000d\\u000d
p1
V2015-12-22 20:53:35 +0000\\u000d\\u000d\\u000d\\u000d\\u000d\\u000d
p2
s."
EndChar

StartChar: comma
Encoding: 44 44 180
GlifName: comma
Width: 575
VWidth: 0
Flags: MW
LayerCount: 2
Fore
SplineSet
372 -2 m 2
 372 -82 359 -142 327 -184 c 0
 286 -237 217 -257 117 -257 c 3
 95 -257 82 -244 82 -222 c 2
 82 -196 l 2
 82 -174 95 -161 117 -161 c 3
 181 -161 219 -148 241 -118 c 0
 258 -95 266 -60 267 -10 c 1
 237 -10 l 2
 215 -10 202 3 202 25 c 2
 202 115 l 2
 202 137 215 150 237 150 c 2
 337 150 l 2
 359 150 372 137 372 115 c 2
 372 -2 l 2
EndSplineSet
PickledDataWithLists: "(dp0
Vcom.schriftgestaltung.Glyphs.lastChange\\u000d\\u000d\\u000d\\u000d\\u000d\\u000d
p1
V2015-12-22 20:53:49 +0000\\u000d\\u000d\\u000d\\u000d\\u000d\\u000d
p2
s."
EndChar

StartChar: copyright
Encoding: 169 169 181
GlifName: copyright
Width: 575
VWidth: 0
Flags: MW
LayerCount: 2
Fore
SplineSet
371 452 m 2
 362 444 l 2
 348 432 339 431 320 442 c 0
 310 448 297 451 286 451 c 2
 285 451 l 2
 249 451 216 415 216 375 c 3
 216 333 247 299 285 299 c 2
 286 299 l 2
 296 299 306 302 320 309 c 0
 334 319 349 318 362 306 c 2
 371 298 l 2
 387 284 386 264 369 253 c 0
 345 236 315 226 286 226 c 2
 284 226 l 2
 207 226 141 294 141 375 c 3
 141 455 208 525 283 525 c 2
 287 525 l 2
 315 525 345 515 369 497 c 0
 386 486 387 466 371 452 c 2
16 375 m 3
 16 526 137 647 288 647 c 3
 438 647 560 525 560 375 c 3
 560 226 437 103 288 103 c 3
 138 103 16 225 16 375 c 3
477 375 m 3
 477 479 392 565 288 565 c 3
 185 565 98 478 98 375 c 3
 98 271 184 186 288 186 c 3
 393 186 477 270 477 375 c 3
EndSplineSet
PickledDataWithLists: "(dp0
Vcom.schriftgestaltung.Glyphs.lastChange\\u000d\\u000d\\u000d\\u000d\\u000d\\u000d
p1
V2015-12-22 14:24:21 +0000\\u000d\\u000d\\u000d\\u000d\\u000d\\u000d
p2
s."
EndChar

StartChar: currency
Encoding: 164 164 182
GlifName: currency
Width: 575
VWidth: 0
Flags: MW
LayerCount: 2
Fore
SplineSet
497 250 m 3
 497 213 487 175 467 142 c 1
 543 66 l 2
 559 50 559 31 542 16 c 2
 519 -4 l 2
 503 -19 485 -19 470 -3 c 1
 396 71 l 1
 351 48 324 41 287 41 c 3
 249 41 216 50 180 71 c 1
 106 -3 l 2
 90 -19 72 -19 56 -4 c 2
 33 17 l 2
 17 32 17 50 32 66 c 1
 108 142 l 1
 89 174 79 212 79 250 c 3
 79 288 89 325 108 358 c 1
 32 435 l 2
 17 450 17 471 33 485 c 2
 56 504 l 2
 72 519 91 519 106 504 c 2
 180 430 l 1
 213 449 250 459 288 459 c 3
 326 459 364 449 396 430 c 1
 470 504 l 2
 485 519 504 519 519 505 c 2
 542 485 l 2
 559 470 559 450 543 435 c 2
 467 359 l 1
 487 325 497 287 497 250 c 3
175 250 m 3
 175 188 225 138 288 138 c 3
 351 138 400 187 400 250 c 3
 400 313 350 363 288 363 c 3
 226 363 175 312 175 250 c 3
EndSplineSet
PickledDataWithLists: "(dp0
Vcom.schriftgestaltung.Glyphs.lastChange\\u000d\\u000d\\u000d\\u000d\\u000d\\u000d
p1
V2015-12-22 14:02:18 +0000\\u000d\\u000d\\u000d\\u000d\\u000d\\u000d
p2
s."
EndChar

StartChar: d
Encoding: 100 100 183
GlifName: d
Width: 575
VWidth: 0
Flags: MW
AnchorPoint: "mark-topright" 490 700 basechar 0
AnchorPoint: "mark-bottom" 288 0 basechar 0
LayerCount: 2
Back
SplineSet
490 725 m 258
 490 40 l 258
 490 31 485 23 477 19 c 257
 430 0 379 -10 328 -10 c 256
 202 -10 85 60 85 250 c 256
 85 440 202 510 328 510 c 256
 354 510 380 507 405 502 c 257
 405 725 l 258
 405 741 414 750 430 750 c 258
 465 750 l 258
 481 750 490 741 490 725 c 258
405 77 m 257
 405 429 l 257
 383 433 360 436 338 436 c 256
 250 436 171 395 171 250 c 256
 171 114 239 68 328 68 c 256
 355 68 379 71 405 77 c 257
EndSplineSet
Fore
Refer: 155 98 N -1 0 0 1 575 0 2
EndChar

StartChar: d.hex
Encoding: 65549 -1 184
GlifName: d.hex
Width: 575
VWidth: 0
Flags: MW
AnchorPoint: "center" 288 250 basechar 0
AnchorPoint: "top" 409 520 basechar 0
AnchorPoint: "topright" 565 500 basechar 0
LayerCount: 2
Fore
SplineSet
112.299505596 892.614380323 m 0
 120.429383125 886.024900642 124 875.92286565 124 865 c 2
 124 819 l 2
 124 807.680679758 120.49077603 797.434582054 112.147103874 790.935300585 c 0
 105.638298075 785.865283436 97.5384556952 784 89 784 c 2
 54 784 l 2
 42.6806797579 784 32.4345820537 787.50922397 25.9353005852 795.852896126 c 0
 20.8652834364 802.361701925 19 810.461544305 19 819 c 2
 19 865 l 2
 19 875.92286565 22.5706168755 886.024900642 30.700494404 892.614380323 c 0
 37.0967468189 897.798711228 45.2466187476 900 54 900 c 2
 89 900 l 2
 97.7533812524 900 105.903253181 897.798711228 112.299505596 892.614380323 c 0
256.299505596 892.614380323 m 0
 264.429383125 886.024900642 268 875.92286565 268 865 c 2
 268 819 l 2
 268 807.680679758 264.49077603 797.434582054 256.147103874 790.935300585 c 0
 249.638298075 785.865283436 241.538455695 784 233 784 c 2
 198 784 l 2
 186.680679758 784 176.434582054 787.50922397 169.935300585 795.852896126 c 0
 164.865283436 802.361701925 163 810.461544305 163 819 c 2
 163 865 l 2
 163 875.92286565 166.570616875 886.024900642 174.700494404 892.614380323 c 0
 181.096746819 897.798711228 189.246618748 900 198 900 c 2
 233 900 l 2
 241.753381252 900 249.903253181 897.798711228 256.299505596 892.614380323 c 0
548.614380323 888.299505596 m 0
 553.798711228 881.903253181 556 873.753381252 556 865 c 2
 556 819 l 2
 556 807.680679758 552.49077603 797.434582054 544.147103874 790.935300585 c 0
 537.638298075 785.865283436 529.538455695 784 521 784 c 2
 486 784 l 2
 474.680679758 784 464.434582054 787.50922397 457.935300585 795.852896126 c 0
 452.865283436 802.361701925 451 810.461544305 451 819 c 2
 451 865 l 2
 451 873.753381252 453.201288772 881.903253181 458.385619677 888.299505596 c 0
 464.975099358 896.429383125 475.07713435 900 486 900 c 2
 521 900 l 2
 531.92286565 900 542.024900642 896.429383125 548.614380323 888.299505596 c 0
492.614380323 738.599518273 m 0
 497.798711228 732.36727233 500 724.426371477 500 715.897435897 c 2
 500 48.4615384615 l 2
 500 35.7687529575 492.941277876 23.9801561239 481.108399137 19.1069145759 c 0
 433.191812626 -0.627006930026 380.482926956 -10 328 -10 c 0
 270.384933158 -10 213.978614648 3.92440880007 168.844631155 36.964167021 c 0
 112.211364311 78.421829273 75 149.124194012 75 255 c 0
 75 360.875805988 112.211364311 431.578170727 168.844631155 473.035832979 c 0
 213.978614648 506.0755912 270.384933158 520 328 520 c 0
 350.627274221 520 373.149579242 517.79864749 395 514.034367879 c 1
 395 716.458333333 l 2
 395 724.846990367 397.201288772 732.657284299 402.385619677 738.787026196 c 0
 408.975099358 746.578158828 419.07713435 750 430 750 c 2
 465 750 l 2
 475.92286565 750 486.024900642 746.520937403 492.614380323 738.599518273 c 0
238.07895638 408.124873954 m 0
 204.539317833 383.345588759 181 338.602867101 181 260 c 0
 181 148.534985174 227.121503689 88 328 88 c 0
 351.548757521 88 372.572574352 90.3214822862 395 95.0354137038 c 1
 395 430.593746052 l 1
 375.917393867 433.782891512 339.739936172 435.992766426 338 436 c 0
 300.214557777 436.157088396 265.130723463 428.110880978 238.07895638 408.124873954 c 0
EndSplineSet
PickledDataWithLists: "(dp0
Vcom.schriftgestaltung.Glyphs.lastChange\\u000d\\u000d\\u000d\\u000d\\u000d\\u000d
p1
V2016-06-09 18:35:34 +0000\\u000d\\u000d\\u000d\\u000d\\u000d\\u000d
p2
s."
EndChar

StartChar: dagger
Encoding: 8224 8224 185
GlifName: dagger
Width: 575
VWidth: 0
Flags: MW
LayerCount: 2
Fore
SplineSet
534 564 m 2
 534 537 l 2
 534 515 521 502 499 502 c 2
 340 502 l 1
 340 -124 l 2
 340 -146 327 -159 305 -159 c 2
 270 -159 l 2
 248 -159 235 -146 235 -124 c 2
 235 502 l 1
 76 502 l 2
 54 502 41 515 41 537 c 2
 41 563 l 2
 41 585 54 599 76 599 c 2
 235 599 l 1
 235 774 l 2
 235 796 248 809 270 809 c 2
 305 809 l 2
 328 809 340 797 340 774 c 2
 340 599 l 1
 499 599 l 2
 521 599 534 586 534 564 c 2
EndSplineSet
PickledDataWithLists: "(dp0
Vcom.schriftgestaltung.Glyphs.lastChange\\u000d\\u000d\\u000d\\u000d\\u000d\\u000d
p1
V2015-12-22 14:26:24 +0000\\u000d\\u000d\\u000d\\u000d\\u000d\\u000d
p2
s."
EndChar

StartChar: daggerdbl
Encoding: 8225 8225 186
GlifName: daggerdbl
Width: 575
VWidth: 0
Flags: MW
LayerCount: 2
Fore
SplineSet
340 599 m 1
 499 599 l 2
 521 599 534 586 534 564 c 2
 534 537 l 2
 534 515 521 502 499 502 c 2
 340 502 l 1
 340 148 l 1
 499 148 l 2
 522 148 534 136 534 113 c 2
 534 87 l 2
 534 65 521 52 499 52 c 2
 340 52 l 1
 340 -124 l 2
 340 -147 328 -159 305 -159 c 2
 270 -159 l 2
 248 -159 235 -146 235 -124 c 2
 235 52 l 1
 76 52 l 2
 54 52 41 65 41 87 c 2
 41 113 l 2
 41 135 54 148 76 148 c 2
 235 148 l 1
 235 502 l 1
 76 502 l 2
 54 502 41 515 41 537 c 2
 41 563 l 2
 41 585 54 599 76 599 c 2
 235 599 l 1
 235 774 l 2
 235 796 248 809 270 809 c 2
 305 809 l 2
 328 809 340 797 340 774 c 2
 340 599 l 1
EndSplineSet
PickledDataWithLists: "(dp0
Vcom.schriftgestaltung.Glyphs.lastChange\\u000d\\u000d\\u000d\\u000d\\u000d\\u000d
p1
V2015-12-22 14:32:11 +0000\\u000d\\u000d\\u000d\\u000d\\u000d\\u000d
p2
s."
EndChar

StartChar: degree
Encoding: 176 176 189
GlifName: degree
Width: 575
VWidth: 0
GlyphClass: 2
Flags: MW
LayerCount: 2
Fore
SplineSet
95 528 m 3
 95 637 179 720 291 720 c 3
 399 720 480 637 480 528 c 3
 480 419 399 336 291 336 c 3
 179 336 95 419 95 528 c 3
200 528 m 3
 200 473 237 433 288 433 c 3
 338 433 375 474 375 528 c 3
 375 582 338 623 288 623 c 3
 237 623 200 583 200 528 c 3
EndSplineSet
PickledDataWithLists: "(dp0
Vcom.schriftgestaltung.Glyphs.lastChange\\u000d\\u000d\\u000d\\u000d\\u000d\\u000d
p1
V2016-05-30 08:37:06 +0000\\u000d\\u000d\\u000d\\u000d\\u000d\\u000d
p2
s."
EndChar

StartChar: delta
Encoding: 948 948 190
GlifName: delta
Width: 575
VWidth: 0
Flags: MW
AnchorPoint: "mark-top" 288 700 basechar 0
LayerCount: 2
Back
SplineSet
-321.7734375 395.434570312 m 0
 -363.395507812 391.161132812 -392.948242188 375.365234375 -415.780273438 350.243164062 c 0
 -444.194335938 318.977539062 -460.294921875 273.19921875 -460.294921875 227.1953125 c 0
 -460.294921875 182.228515625 -445.3046875 141.59375 -419.12109375 113.504882812 c 0
 -373.051757812 64.08203125 -284.552734375 50.98828125 -227.036132812 95.0859375 c 0
 -209.563476562 108.482421875 -194.763671875 127.920898438 -185.056640625 150.32421875 c 0
 -175.258789062 172.940429688 -170.140625 198.693359375 -169.076171875 225.115234375 c 0
 -167.37890625 267.20703125 -174.9609375 305.206054688 -190.368164062 342.077148438 c 0
 -198.260742188 360.966796875 -208.329101562 379.287109375 -219.8984375 397.188476562 c 1
 -258.604492188 397.188476562 l 2
 -280.30078125 397.188476562 -302.916015625 397.37109375 -321.7734375 395.434570312 c 0
-322.260742188 624.688476562 m 1
 -303.444335938 610.592773438 -285.40625 595.586914062 -268.15625 579.538085938 c 0
 -233.427734375 547.224609375 -201.911132812 511.875976562 -173.541992188 474.440429688 c 0
 -149.537109375 442.763671875 -127.045898438 408.08203125 -110.840820312 369.299804688 c 0
 -79.0263671875 293.159179688 -72.30078125 199.787109375 -105.899414062 122.235351562 c 0
 -120.026367188 89.6279296875 -142.068359375 59.3720703125 -172.172851562 36.291015625 c 0
 -266.666015625 -36.15625 -407.998046875 -17.7548828125 -484.087890625 63.8720703125 c 0
 -526.229492188 109.081054688 -545.294921875 165.57421875 -545.294921875 227.1953125 c 0
 -545.294921875 288.478515625 -525.068359375 351.116210938 -481.428710938 399.133789062 c 0
 -462.463867188 420.001953125 -439.29296875 437.514648438 -413 450 c 0
 -372.329101562 469.311523438 -332.192382812 474.049804688 -278.950195312 474.196289062 c 1
 -306.87890625 505.997070312 -338.001953125 535.870117188 -371.96875 562.061523438 c 0
 -397.4921875 581.221679688 -425.4140625 599.184570312 -455.604492188 615.688476562 c 0
 -467.604492188 621.688476562 -473.604492188 630.688476562 -473.604492188 644.688476562 c 2
 -473.604492188 676.688476562 l 2
 -473.604492188 692.688476562 -464.604492188 701.688476562 -448.604492188 701.688476562 c 2
 -138.604492188 701.688476562 l 2
 -122.604492188 701.688476562 -113.604492188 692.688476562 -113.604492188 676.688476562 c 2
 -113.604492188 649.688476562 l 2
 -113.604492188 633.688476562 -122.604492188 624.688476562 -138.604492188 624.688476562 c 2
 -322.260742188 624.688476562 l 1
718 625 m 0
 753.813476562 603.17578125 787.295898438 577.568359375 818 549 c 0
 850.87109375 518.416015625 880.881835938 484.784179688 908 449 c 0
 930.814453125 418.893554688 951.436523438 386.853515625 966 352 c 0
 983.37890625 310.407226562 991.815429688 265.041015625 990 220 c 0
 988.79296875 190.047851562 983.04296875 160.09765625 971.125976562 132.591796875 c 0
 959.209960938 105.0859375 940.7890625 80.2392578125 917 62 c 0
 885.041992188 37.498046875 844.268554688 25.609375 804 26 c 0
 752.265625 26.501953125 700.27734375 47.1552734375 665 85 c 0
 632.795898438 119.548828125 615.89453125 166.807617188 614 214 c 0
 611.723632812 270.688476562 629.842773438 329.014648438 668 371 c 0
 683.556640625 388.1171875 702.3984375 402.267578125 723.291992188 412.188476562 c 0
 744.186523438 422.110351562 766.991210938 427.63671875 790 430 c 0
 812.568359375 432.317382812 835.313476562 432 858 432 c 2
 904 432 l 1025
  Spiro
    718 625 {
    818 549 o
    908 449 o
    966 352 o
    990 220 o
    917 62 o
    804 26 o
    665 85 o
    614 214 o
    668 371 o
    790 430 o
    858 432 [
    904 432 v
    0 0 z
  EndSpiro
150 238 m 256
 150 130 202 62 285 62 c 256
 378 62 425 123 425 243 c 256
 425 289 414 336 392 382 c 257
 356 389 321 393 285 393 c 256
 202 393 150 333 150 238 c 256
  Spiro
    150 238 o
    166.523 144.449 o
    213.171 83.5874 o
    285 62 o
    362.567 82.2188 o
    409.402 142.821 o
    425 243 o
    421.341 289.213 o
    410.319 335.787 o
    392 382 v
    356.295 387.958 o
    320.705 391.706 o
    285 393 o
    213.171 373.963 o
    166.523 320.339 o
    0 0 z
  EndSpiro
477 623 m 258
 264 623 l 257
 425 515 510 365 510 241 c 256
 510 72 434 -15 285 -15 c 256
 149 -15 65 82 65 238 c 256
 65 382 149 471 285 471 c 256
 305 471 322 470 338 467 c 257
 294 522 235 573 160 614 c 256
 148 620 142 629 142 643 c 258
 142 675 l 258
 142 691 151 700 167 700 c 258
 477 700 l 258
 493 700 502 691 502 675 c 258
 502 648 l 258
 502 632 493 623 477 623 c 258
  Spiro
    477 623 [
    264 623 v
    399.224 503.647 o
    482.056 371.014 o
    510 241 o
    484.828 99.6323 o
    409.456 13.7574 o
    285 -15 o
    167.616 15.8655 o
    91.7624 103.187 o
    65 238 o
    91.7624 362.304 o
    167.616 442.648 o
    285 471 o
    304.056 470.63 o
    321.609 469.369 o
    338 467 v
    289.017 520.393 o
    229.639 569.936 o
    160 614 o
    150.008 621.066 o
    143.996 630.603 o
    142 643 [
    142 675 ]
    144.92 688.581 o
    153.419 697.08 o
    167 700 [
    477 700 ]
    490.581 697.08 o
    499.08 688.581 o
    502 675 [
    502 648 ]
    499.08 634.419 o
    490.581 625.92 o
    0 0 z
  EndSpiro
EndSplineSet
Fore
SplineSet
285 393 m 3
 207 393 160 338 160 248 c 3
 160 145 208 82 285 82 c 3
 372 82 415 138 415 253 c 3
 415 296 405 340 385 383 c 1
 365 387 303 393 285 393 c 3
155 595 m 0
 140 603 132 616 132 633 c 2
 132 665 l 2
 132 687 145 700 167 700 c 2
 477 700 l 2
 499 700 512 687 512 665 c 2
 512 638 l 2
 512 616 499 603 477 603 c 2
 296 603 l 1
 435 504 520 367 520 243 c 3
 520 74 439 -15 285 -15 c 3
 144 -15 55 84 55 240 c 3
 55 384 144 475 285 475 c 3
 296 475 305 475 314 474 c 1
 271 522 217 562 155 595 c 0
EndSplineSet
PickledDataWithLists: "(dp0
Vcom.schriftgestaltung.Glyphs.lastChange\\u000d\\u000d\\u000d\\u000d\\u000d\\u000d
p1
V2016-05-30 08:32:37 +0000\\u000d\\u000d\\u000d\\u000d\\u000d\\u000d
p2
s."
EndChar

StartChar: dieresis
Encoding: 168 168 191
GlifName: dieresis
Width: 575
VWidth: 0
GlyphClass: 2
Flags: MW
LayerCount: 2
Fore
SplineSet
237 675 m 2
 237 629 l 2
 237 607 224 594 202 594 c 2
 167 594 l 2
 145 594 132 607 132 629 c 2
 132 675 l 2
 132 697 145 710 167 710 c 2
 202 710 l 2
 224 710 237 697 237 675 c 2
444 675 m 2
 444 629 l 2
 444 607 431 594 409 594 c 2
 374 594 l 2
 352 594 339 607 339 629 c 2
 339 675 l 2
 339 697 352 710 374 710 c 2
 409 710 l 2
 431 710 444 697 444 675 c 2
EndSplineSet
PickledDataWithLists: "(dp0
Vcom.schriftgestaltung.Glyphs.lastChange\\u000d\\u000d\\u000d\\u000d\\u000d\\u000d
p1
V2015-12-22 16:32:41 +0000\\u000d\\u000d\\u000d\\u000d\\u000d\\u000d
p2
s."
EndChar

StartChar: divide
Encoding: 247 247 192
GlifName: divide
Width: 575
VWidth: 0
Flags: MW
LayerCount: 2
Fore
SplineSet
340 545 m 2
 340 499 l 2
 340 477 327 464 305 464 c 2
 270 464 l 2
 248 464 235 477 235 499 c 2
 235 545 l 2
 235 567 248 580 270 580 c 2
 305 580 l 2
 327 580 340 567 340 545 c 2
340 122 m 2
 340 75 l 2
 340 53 327 40 305 40 c 2
 270 40 l 2
 248 40 235 53 235 75 c 2
 235 122 l 2
 235 144 248 157 270 157 c 2
 305 157 l 2
 327 157 340 144 340 122 c 2
75 297 m 2
 75 323 l 2
 75 345 89 359 110 359 c 2
 465 359 l 2
 487 359 500 346 500 324 c 2
 500 297 l 2
 500 275 487 262 465 262 c 2
 110 262 l 2
 88 262 75 275 75 297 c 2
EndSplineSet
PickledDataWithLists: "(dp0
Vcom.schriftgestaltung.Glyphs.lastChange\\u000d\\u000d\\u000d\\u000d\\u000d\\u000d
p1
V2015-12-22 14:06:58 +0000\\u000d\\u000d\\u000d\\u000d\\u000d\\u000d
p2
s."
EndChar

StartChar: dkshade
Encoding: 9619 9619 193
GlifName: dkshade
Width: 575
Flags: MW
LayerCount: 2
Fore
SplineSet
494 -330 m 1
 466 -330 l 1
 459.818686443 -330 l 1
 -10 609.637372887 l 1
 -10 710.362627113 l 1
 510.181313557 -330 l 1
 494 -330 l 1
423 -330 m 1
 395 -330 l 1
 388.818686443 -330 l 1
 -10 467.637372887 l 1
 -10 568.362627113 l 1
 439.181313557 -330 l 1
 423 -330 l 1
352 -330 m 1
 324 -330 l 1
 317.818686443 -330 l 1
 -10 325.637372887 l 1
 -10 426.362627113 l 1
 368.181313557 -330 l 1
 352 -330 l 1
281 -330 m 2
 269.606228814 -330 258.212457629 -330 246.818686443 -330 c 1
 -10 183.637372887 l 1
 -10 284.362627113 l 1
 297.181313557 -330 l 1
 281 -330 l 2
226.181313557 -330 m 1
 175.818686443 -330 l 1
 -10 41.637372887 l 1
 -10 142.362627113 l 1
 226.181313557 -330 l 1
155.181313557 -330 m 1
 104.818686443 -330 l 1
 -10 -100.362627113 l 1
 -10 0.362627113022 l 1
 155.181313557 -330 l 1
84.1813135565 -330 m 1
 33.8186864435 -330 l 1
 -10 -242.362627113 l 1
 -10 -141.637372887 l 1
 84.1813135565 -330 l 1
537 -330 m 1
 530.818686443 -330 l 1
 -10 751.637372887 l 1
 -10 852.362627113 l 1
 581.181313557 -330 l 1
 565 -330 l 1
 537 -330 l 1
585 812.362627113 m 1
 585 711.637372887 l 1
 480.818686443 920 l 1
 495.545790962 920 510.272895481 920 525 920 c 2
 531.181313557 920 l 1
 585 812.362627113 l 1
585 670.362627113 m 1
 585 569.637372887 l 1
 409.818686443 920 l 1
 460.181313557 920 l 1
 585 670.362627113 l 1
585 528.362627113 m 1
 585 427.637372887 l 1
 338.818686443 920 l 1
 389.181313557 920 l 1
 585 528.362627113 l 1
585 386.362627113 m 1
 585 285.637372887 l 1
 267.818686443 920 l 1
 318.181313557 920 l 1
 585 386.362627113 l 1
585 244.362627113 m 1
 585 143.637372887 l 1
 196.818686443 920 l 1
 213 920 l 1
 241 920 l 1
 247.181313557 920 l 1
 585 244.362627113 l 1
585 102.362627113 m 1
 585 1.63737288698 l 1
 125.818686443 920 l 1
 142 920 l 2
 153.393771186 920 164.787542371 920 176.181313557 920 c 1
 585 102.362627113 l 1
585 -39.637372887 m 1
 585 -140.362627113 l 1
 54.8186864435 920 l 1
 71 920 l 1
 99 920 l 1
 105.181313557 920 l 1
 585 -39.637372887 l 1
585 -181.637372887 m 1
 585 -282.362627113 l 1
 -16.1813135565 920 l 1
 0 920 l 1
 28 920 l 1
 34.1813135565 920 l 1
 585 -181.637372887 l 1
EndSplineSet
PickledDataWithLists: "(dp0
Vcom.schriftgestaltung.Glyphs.lastChange\\u000d\\u000d\\u000d\\u000d\\u000d\\u000d
p1
V2016-06-10 08:26:49 +0000\\u000d\\u000d\\u000d\\u000d\\u000d\\u000d
p2
s."
EndChar

StartChar: dnblock
Encoding: 9604 9604 194
GlifName: dnblock
Width: 575
Flags: MW
LayerCount: 2
Fore
SplineSet
-10 -330 m 1
 -10 305 l 1
 585 305 l 1
 585 -330 l 1
 -10 -330 l 1
EndSplineSet
PickledDataWithLists: "(dp0
Vcom.schriftgestaltung.Glyphs.lastChange\\u000d\\u000d\\u000d\\u000d\\u000d\\u000d
p1
V2016-06-10 08:26:49 +0000\\u000d\\u000d\\u000d\\u000d\\u000d\\u000d
p2
s."
EndChar

StartChar: dollar
Encoding: 36 36 195
GlifName: dollar
Width: 575
VWidth: 0
Flags: MW
LayerCount: 2
Back
SplineSet
235 48 m 1
 340 48 l 1
 340 -130 l 2
 340 -151.515456316 326.515456316 -165 305 -165 c 2
 270 -165 l 2
 248.484543684 -165 235 -151.515456316 235 -130 c 2
 235 48 l 1
340 765 m 2
 340 581 l 1
 235 581 l 1
 235 765 l 2
 235 786.515456316 248.484543684 800 270 800 c 2
 305 800 l 2
 326.515456316 800 340 786.515456316 340 765 c 2
97.1478955852 20.7690271986 m 0
 83.8501163916 26.1418772959 75.3264101108 37.0550887868 75.3264101108 50.5607300001 c 0
 75.3264101108 55.9868201862 76.5731998446 61.3632626423 78.7111304313 66.7080891091 c 2
 88.7111304313 91.7080891091 l 2
 93.9836505527 104.889389413 104.383082429 114.475217796 118.50770955 114.475217796 c 0
 123.603002777 114.475217796 128.737669582 113.276622107 133.789208039 111.256006724 c 0
 170.966634644 96.0037291422 222.276453956 89 255 89 c 3
 346.228065436 89 418 131.669660725 418 200 c 3
 418 245.846443625 363.641975625 261.710809771 287.341788948 280.945827626 c 0
 192.497306719 304.85579939 72 334.571748506 72 469 c 3
 72 601.782689853 193.340544228 668 316 668 c 3
 360.386032139 668 417.275265615 658.923888008 460.116673751 640.115464924 c 0
 471.768674647 634.677864505 480.149105056 625.777988959 480.149105056 613.344713459 c 0
 480.149105056 607.627541884 478.630668161 602.199100238 476.399743454 596.570361282 c 0
 473.385930058 587.528921094 470.822624735 578.126298805 467.288869569 569.291910891 c 0
 462.168877032 556.491929548 452.440246899 546.524782204 438.305578111 546.524782204 c 0
 433.269522111 546.524782204 428.301600606 547.707254546 423.291776526 549.711184178 c 0
 389.558372144 563.205116057 352.377323037 572 316 572 c 3
 241.288030557 572 178 532.654251801 178 472 c 3
 178 414.539919604 241.73484408 395.462059743 323.584737152 373.381532512 c 0
 414.415436963 348.87826604 524 320.355122458 524 205 c 3
 524 66.0460983407 391.566710842 -10 250 -10 c 3
 200.672038036 -10 144.634031146 0.148319939277 97.1478955852 20.7690271986 c 0
330 -175 m 258
 330 -191 321 -200 305 -200 c 258
 270 -200 l 258
 254 -200 245 -191 245 -175 c 1282
EndSplineSet
Fore
SplineSet
235 48 m 1
 340 48 l 1
 340 -130 l 2
 340 -152 327 -165 305 -165 c 2
 270 -165 l 2
 248 -165 235 -152 235 -130 c 2
 235 48 l 1
340 765 m 2
 340 581 l 1
 235 581 l 1
 235 765 l 2
 235 787 248 800 270 800 c 2
 305 800 l 2
 327 800 340 787 340 765 c 2
97 21 m 0
 76 30 72 49 79 67 c 2
 89 92 l 2
 96 109 112 120 134 111 c 0
 171 96 222 89 255 89 c 3
 346 89 418 132 418 200 c 3
 418 246 363 262 287 281 c 0
 192 305 72 335 72 469 c 3
 72 602 193 668 316 668 c 3
 360 668 417 659 460 640 c 0
 474 634 486 623 477 598 c 2
 467 569 l 2
 464 559 452 538 423 550 c 0
 389 564 352 572 316 572 c 3
 241 572 178 533 178 472 c 3
 178 415 242 395 324 373 c 0
 415 348 524 320 524 205 c 3
 524 66 392 -10 250 -10 c 3
 201 -10 144 0 97 21 c 0
EndSplineSet
EndChar

StartChar: dotaccent
Encoding: 729 729 196
GlifName: dotaccent
Width: 575
VWidth: 0
GlyphClass: 2
Flags: MW
LayerCount: 2
Fore
SplineSet
337 675 m 2
 337 629 l 2
 337 606 325 594 302 594 c 2
 267 594 l 2
 245 594 232 607 232 629 c 2
 232 675 l 2
 232 697 245 710 267 710 c 2
 302 710 l 2
 324 710 337 697 337 675 c 2
EndSplineSet
PickledDataWithLists: "(dp0
Vcom.schriftgestaltung.Glyphs.lastChange\\u000d\\u000d\\u000d\\u000d\\u000d\\u000d
p1
V2015-12-22 16:32:41 +0000\\u000d\\u000d\\u000d\\u000d\\u000d\\u000d
p2
s."
EndChar

StartChar: dotlessi
Encoding: 305 305 198
GlifName: dotlessi
Width: 575
VWidth: 0
Flags: MW
AnchorPoint: "mark-bottom" 288 0 basechar 0
AnchorPoint: "mark-ogonek" 460 25 basechar 0
AnchorPoint: "mark-top" 268 550 basechar 0
LayerCount: 2
Back
SplineSet
330 77 m 257
 465 77 l 258
 481 77 490 68 490 52 c 258
 490 25 l 258
 490 9 481 0 465 0 c 258
 110 0 l 258
 94 0 85 9 85 25 c 258
 85 52 l 258
 85 68 94 77 110 77 c 258
 245 77 l 257
 245 424 l 257
 143 424 l 258
 127 424 118 433 118 449 c 258
 118 475 l 258
 118 492 127 500 143 500 c 258
 305 500 l 258
 321 500 330 492 330 475 c 258
 330 77 l 257
EndSplineSet
Fore
SplineSet
504 42 m 2
 511 21 501 5 479 0 c 0
 450 -7 422 -10 389 -10 c 3
 270 -10 215 41 215 152 c 2
 215 404 l 1
 113 404 l 2
 91 404 78 417 78 439 c 2
 78 465 l 2
 78 487 91 500 113 500 c 2
 285 500 l 2
 307 500 320 487 320 466 c 2
 320 154 l 2
 320 101 337 84 389 84 c 3
 412 84 433 86 452 90 c 0
 473 95 490 87 496 67 c 2
 504 42 l 2
EndSplineSet
EndChar

StartChar: e
Encoding: 101 101 199
GlifName: e
Width: 575
VWidth: 0
Flags: MW
AnchorPoint: "mark-top" 288 500 basechar 0
AnchorPoint: "mark-bottom" 288 0 basechar 0
AnchorPoint: "mark-ogonek" 464 25 basechar 0
LayerCount: 2
Back
SplineSet
171.525236317 227 m 1
 179.530323911 122.698914935 257.880086617 88 332 88 c 0
 363.991538299 88 406.777254843 92.8830071496 450.291910891 110.288869569 c 0
 455.343449348 112.309484951 460.396997223 113.475217796 465.49229045 113.475217796 c 0
 479.59206726 113.475217796 489.979745217 103.923089597 495.260993177 90.7776276658 c 2
 495.260993177 90.7776276658 505.235222386 66.8394775648 505.288869569 66.7080891091 c 0
 507.426800155 61.3632626423 508.673589889 55.9868201862 508.673589889 50.5607300001 c 0
 508.673589889 37.0422894318 500.133720035 26.1211946243 486.814283978 20.7537676626 c 0
 441.641219904 1.54872530301 334.429924644 -10.1941166345 327.764749472 -10.1941166345 c 1
 327.832407729 -10.1791614015 327.910773203 -10.0172784217 328 -10 c 1
 270.383476712 -10 212.136546329 3.64309313809 164.866999292 35.9432057439 c 0
 105.546467797 76.4779679155 65 145.866209438 65 250 c 0
 65 416.143456045 174.912640675 510 292 510 c 0
 398.162497938 510 510 429.449361564 510 283.020477816 c 2
 510 260.805460751 l 2
 510 252.350829712 507.798711228 244.479110409 502.614380323 238.301160124 c 0
 496.024900642 230.448752818 485.92286565 227 475 227 c 2
 171.525236317 227 l 1
404.463379373 324 m 1
 398.152512212 383.90983569 338.572100313 414 293 414 c 0
 247.19366253 414 190.624369968 382.785888903 179.380706074 324 c 1
 404.463379373 324 l 1
EndSplineSet
Fore
SplineSet
172 237 m 1
 176 142 234 88 332 88 c 3
 373 88 414 95 450 110 c 0
 470 118 487 111 495 91 c 2
 501 77 505 67 505 67 c 0
 513 47 506 29 487 21 c 0
 449 5 374 -10 328 -10 c 3
 166 -10 65 90 65 250 c 3
 65 400 161 510 292 510 c 3
 416 510 510 412 510 283 c 2
 510 271 l 2
 510 250 497 237 475 237 c 2
 172 237 l 1
405 314 m 1
 404 370 355 414 293 414 c 3
 234 414 182 369 178 314 c 1
 405 314 l 1
EndSplineSet
PickledDataWithLists: "(dp0
Vcom.schriftgestaltung.Glyphs.lastChange\\u000d\\u000d\\u000d\\u000d\\u000d\\u000d
p1
V2016-06-09 18:35:33 +0000\\u000d\\u000d\\u000d\\u000d\\u000d\\u000d
p2
s."
EndChar

StartChar: e.hex
Encoding: 65550 -1 200
GlifName: e.hex
Width: 575
VWidth: 0
Flags: MW
AnchorPoint: "ogonek" 518 5 basechar 0
AnchorPoint: "bottom" 288 0 basechar 0
AnchorPoint: "top" 288 550 basechar 0
LayerCount: 2
Fore
SplineSet
112.299505596 892.614380323 m 0
 120.429383125 886.024900642 124 875.92286565 124 865 c 2
 124 819 l 2
 124 807.680679758 120.49077603 797.434582054 112.147103874 790.935300585 c 0
 105.638298075 785.865283436 97.5384556952 784 89 784 c 2
 54 784 l 2
 42.6806797579 784 32.4345820537 787.50922397 25.9353005852 795.852896126 c 0
 20.8652834364 802.361701925 19 810.461544305 19 819 c 2
 19 865 l 2
 19 875.92286565 22.5706168755 886.024900642 30.700494404 892.614380323 c 0
 37.0967468189 897.798711228 45.2466187476 900 54 900 c 2
 89 900 l 2
 97.7533812524 900 105.903253181 897.798711228 112.299505596 892.614380323 c 0
256.299505596 892.614380323 m 0
 264.429383125 886.024900642 268 875.92286565 268 865 c 2
 268 819 l 2
 268 807.680679758 264.49077603 797.434582054 256.147103874 790.935300585 c 0
 249.638298075 785.865283436 241.538455695 784 233 784 c 2
 198 784 l 2
 186.680679758 784 176.434582054 787.50922397 169.935300585 795.852896126 c 0
 164.865283436 802.361701925 163 810.461544305 163 819 c 2
 163 865 l 2
 163 875.92286565 166.570616875 886.024900642 174.700494404 892.614380323 c 0
 181.096746819 897.798711228 189.246618748 900 198 900 c 2
 233 900 l 2
 241.753381252 900 249.903253181 897.798711228 256.299505596 892.614380323 c 0
404.614380323 888.299505596 m 0
 409.798711228 881.903253181 412 873.753381252 412 865 c 2
 412 819 l 2
 412 807.680679758 408.49077603 797.434582054 400.147103874 790.935300585 c 0
 393.638298075 785.865283436 385.538455695 784 377 784 c 2
 342 784 l 2
 330.680679758 784 320.434582054 787.50922397 313.935300585 795.852896126 c 0
 308.865283436 802.361701925 307 810.461544305 307 819 c 2
 307 865 l 2
 307 873.753381252 309.201288772 881.903253181 314.385619677 888.299505596 c 0
 320.975099358 896.429383125 331.07713435 900 342 900 c 2
 377 900 l 2
 387.92286565 900 398.024900642 896.429383125 404.614380323 888.299505596 c 0
500.288869569 66.7080891091 m 0
 502.426800155 61.3632626423 503.673589889 55.9868201862 503.673589889 50.5607300001 c 0
 503.673589889 37.0422908181 495.133721787 26.1211968641 481.814288498 20.7537682649 c 0
 436.973260228 1.68746269276 334.16553885 -10.2149646269 327.703196734 -10.2149646269 c 1
 327.785774649 -10.1956361137 327.884611835 -10.0230708143 328 -10 c 1
 270.384933158 -10 213.978614648 3.92440880007 168.844631155 36.964167021 c 0
 112.211364311 78.421829273 75 149.124194012 75 255 c 0
 75 423.762095022 174.492798781 520 292 520 c 0
 398.615291844 520 500 435.993792747 500 285 c 2
 500 262 l 2
 500 253.246618748 497.798711228 245.096746819 492.614380323 238.700494404 c 0
 486.024900642 230.570616875 475.92286565 227 465 227 c 2
 181.500547738 227 l 1
 185.616615639 169.496796662 208.428096047 134.069094175 239.124031905 113.271393753 c 0
 265.19100362 95.6099980832 298.00696176 88 332 88 c 0
 363.523096061 88 401.393340589 94.7060286812 445.481035119 110.364117453 c 0
 450.469588286 112.338397836 455.46058462 113.475216587 460.49229045 113.475217796 c 0
 474.59206726 113.475217796 484.979745217 103.923089597 490.260993177 90.7776276658 c 2
 490.260993177 90.7776276658 500.235222386 66.8394775648 500.288869569 66.7080891091 c 0
394.531989835 324 m 1
 389.056874642 391.446307843 337.847241155 424 293 424 c 0
 247.867698359 424 199.707688 390.186525037 189.299936885 324 c 1
 394.531989835 324 l 1
EndSplineSet
PickledDataWithLists: "(dp0
Vcom.schriftgestaltung.Glyphs.lastChange\\u000d\\u000d\\u000d\\u000d\\u000d\\u000d
p1
V2016-06-09 18:35:34 +0000\\u000d\\u000d\\u000d\\u000d\\u000d\\u000d
p2
s."
EndChar

StartChar: eight
Encoding: 56 56 207
GlifName: eight
Width: 575
VWidth: 0
Flags: MW
LayerCount: 2
Fore
SplineSet
192 357 m 1
 127 393 70 444 70 536 c 3
 70 643 167 710 288 710 c 3
 409 710 506 645 506 543 c 3
 506 473 464 411 391 360 c 1
 463 320 529 267 529 174 c 3
 529 52 424 -10 288 -10 c 3
 162 -10 47 58 47 168 c 3
 47 240 98 302 192 357 c 1
400 533 m 3
 400 576 355 614 288 614 c 3
 220 614 175 576 175 530 c 3
 175 480 224 434 307 395 c 1
 371 440 400 498 400 533 c 3
278 325 m 1
 200 280 152 233 152 181 c 3
 152 122 207 87 288 87 c 3
 363 87 424 119 424 181 c 3
 424 245 358 289 278 325 c 1
EndSplineSet
EndChar

StartChar: eight.dnom
Encoding: 65551 -1 208
GlifName: eight.dnom
Width: 575
VWidth: 0
Flags: MW
LayerCount: 2
Fore
SplineSet
144 375 m 0
 178.17841834 375 206.65699566 368.298627295 228.18684714 354.587832358 c 0
 255.393280063 337.262035981 270 309.069730062 270 274 c 0
 270 239.032129986 252.076297084 207.581710051 222.837159366 181.876144171 c 1
 254.138940182 160.155023445 282 130.728134695 282 85 c 0
 282 47.1299438858 266.152098732 16.4950688548 236.499712689 -2.4702618586 c 0
 213.003313473 -17.4982930279 181.751403469 -25 144 -25 c 0
 106.714306935 -25 75.7284954452 -17.7081911218 52.3661790665 -2.91104998468 c 0
 22.8697395813 15.7713003025 7 46.1225002602 7 84 c 0
 7 123.691084928 29.6379710675 152.754667363 67.0470556731 179.036031155 c 1
 39.9507899866 199.086156254 18 228.466956101 18 273 c 0
 18 308.058491109 32.5705679748 336.513689969 59.7455490004 354.127388718 c 0
 81.2672757702 368.076881877 109.779015187 375 144 375 c 0
144 297 m 0
 129.882758626 297 120.241003916 294.655217261 114.54090011 291.384537008 c 0
 107.903961916 287.576307644 105 282.506861897 105 273 c 0
 105 251.085144563 121.021732179 237.810077406 150.738056252 221.124818722 c 1
 171.864653541 239.951992553 183 257.296449407 183 273 c 0
 183 282.506861897 180.096038084 287.576307644 173.45909989 291.384537008 c 0
 167.758996084 294.655217261 158.117241374 297 144 297 c 0
93 88 m 0
 93 74.4596324839 97.2779746761 66.7526632015 106.335438507 61.4282756238 c 0
 113.976542563 56.9364884881 126.334482999 54 144 54 c 0
 161.660715704 54 174.049636404 56.9316516833 181.721514003 61.3737111991 c 0
 190.830741796 66.6480044185 195 74.1377653454 195 87 c 0
 195 112.474213623 174.883744099 124.342069911 140.449556091 139.843644466 c 1
 106.491814368 120.976574929 93 106.838366752 93 88 c 0
EndSplineSet
EndChar

StartChar: eight.hex
Encoding: 65552 -1 209
GlifName: eight.hex
Width: 575
VWidth: 0
Flags: MW
LayerCount: 2
Fore
SplineSet
124 875 m 2
 124 829 l 2
 124 817.680679758 120.49077603 807.434582054 112.147103874 800.935300585 c 0
 105.638298075 795.865283436 97.5384556952 794 89 794 c 2
 54 794 l 2
 42.6806797579 794 32.4345820537 797.50922397 25.9353005852 805.852896126 c 0
 20.8652834364 812.361701925 19 820.461544305 19 829 c 2
 19 875 l 2
 19 885.92286565 22.5706168755 896.024900642 30.700494404 902.614380323 c 0
 37.0967468189 907.798711228 45.2466187476 910 54 910 c 2
 89 910 l 2
 97.7533812524 910 105.903253181 907.798711228 112.299505596 902.614380323 c 0
 120.429383125 896.024900642 124 885.92286565 124 875 c 2
EndSplineSet
Refer: 207 56 N 1 0 0 1 0 0 2
PickledDataWithLists: "(dp0
Vcom.schriftgestaltung.Glyphs.lastChange\\u000d\\u000d\\u000d\\u000d\\u000d\\u000d
p1
V2016-02-10 13:40:53 +0000\\u000d\\u000d\\u000d\\u000d\\u000d\\u000d
p2
s."
EndChar

StartChar: ellipsis
Encoding: 8230 8230 211
GlifName: ellipsis
Width: 575
VWidth: 0
Flags: MW
LayerCount: 2
Fore
SplineSet
431 110 m 2
 486 110 l 2
 508 110 521 97 521 75 c 2
 521 25 l 2
 521 3 508 -10 486 -10 c 2
 431 -10 l 2
 409 -10 396 3 396 25 c 2
 396 75 l 2
 396 97 409 110 431 110 c 2
260 110 m 2
 315 110 l 2
 337 110 350 97 350 75 c 2
 350 25 l 2
 350 3 337 -10 315 -10 c 2
 260 -10 l 2
 238 -10 225 3 225 25 c 2
 225 75 l 2
 225 97 238 110 260 110 c 2
89 110 m 2
 144 110 l 2
 166 110 179 97 179 75 c 2
 179 25 l 2
 179 3 166 -10 144 -10 c 2
 89 -10 l 2
 67 -10 54 3 54 25 c 2
 54 75 l 2
 54 97 67 110 89 110 c 2
EndSplineSet
PickledDataWithLists: "(dp0
Vcom.schriftgestaltung.Glyphs.lastChange\\u000d\\u000d\\u000d\\u000d\\u000d\\u000d
p1
V2015-12-22 13:42:15 +0000\\u000d\\u000d\\u000d\\u000d\\u000d\\u000d
p2
s."
EndChar

StartChar: emdash
Encoding: 8212 8212 213
GlifName: emdash
Width: 575
VWidth: 0
Flags: MW
LayerCount: 2
Fore
SplineSet
-10 297 m 2
 -10 324 l 2
 -10 346 3 359 25 359 c 2
 550 359 l 2
 572 359 585 346 585 324 c 2
 585 297 l 2
 585 275 572 262 550 262 c 2
 25 262 l 2
 3 262 -10 275 -10 297 c 2
EndSplineSet
PickledDataWithLists: "(dp0
Vcom.schriftgestaltung.Glyphs.lastChange\\u000d\\u000d\\u000d\\u000d\\u000d\\u000d
p1
V2016-05-22 17:00:36 +0000\\u000d\\u000d\\u000d\\u000d\\u000d\\u000d
p2
s."
EndChar

StartChar: emptyset
Encoding: 8709 8709 214
GlifName: emptyset
Width: 575
VWidth: 0
Flags: MW
LayerCount: 2
Fore
SplineSet
566 511 m 2
 488 432 l 1
 509 396 520 355 520 312 c 3
 520 181 418 77 288 77 c 3
 244 77 202 89 166 111 c 1
 92 37 l 2
 77 21 59 21 43 37 c 2
 15 65 l 2
 0 80 0 99 15 114 c 2
 89 188 l 1
 67 224 55 266 55 312 c 3
 55 444 158 547 288 547 c 3
 333 547 376 535 412 511 c 1
 489 588 l 2
 505 604 523 604 538 588 c 1
 566 560 l 2
 582 545 582 527 566 511 c 2
288 442 m 3
 216 442 159 384 159 312 c 3
 159 296 162 280 167 266 c 1
 334 433 l 1
 319 439 304 442 288 442 c 3
416 312 m 3
 416 326 414 340 409 354 c 1
 245 190 l 1
 258 186 272 183 288 183 c 3
 360 183 416 240 416 312 c 3
EndSplineSet
PickledDataWithLists: "(dp0
Vcom.schriftgestaltung.Glyphs.lastChange\\u000d\\u000d\\u000d\\u000d\\u000d\\u000d
p1
V2015-12-22 14:07:55 +0000\\u000d\\u000d\\u000d\\u000d\\u000d\\u000d
p2
s."
EndChar

StartChar: endash
Encoding: 8211 8211 215
GlifName: endash
Width: 575
VWidth: 0
Flags: MW
LayerCount: 2
Fore
SplineSet
140 297 m 2
 140 324 l 2
 140 346 153 359 175 359 c 2
 400 359 l 2
 422 359 435 346 435 324 c 2
 435 297 l 2
 435 275 422 262 400 262 c 2
 175 262 l 2
 153 262 140 275 140 297 c 2
EndSplineSet
PickledDataWithLists: "(dp0
Vcom.schriftgestaltung.Glyphs.lastChange\\u000d\\u000d\\u000d\\u000d\\u000d\\u000d
p1
V2016-05-22 12:19:24 +0000\\u000d\\u000d\\u000d\\u000d\\u000d\\u000d
p2
s."
EndChar

StartChar: epsilon
Encoding: 949 949 217
GlifName: epsilon
Width: 575
VWidth: 0
Flags: MW
AnchorPoint: "mark-top" 288 500 basechar 0
LayerCount: 2
Fore
SplineSet
508 38 m 2
 513 17 500 -1 479 -4 c 0
 443 -10 394 -13 342 -13 c 3
 166 -13 75 36 75 131 c 3
 75 185 112 226 182 249 c 1
 118 270 85 310 85 366 c 3
 85 456 181 510 342 510 c 3
 394 510 443 507 479 501 c 0
 501 498 514 479 508 458 c 2
 501 431 l 2
 496 411 479 401 459 405 c 0
 431 411 388 414 342 414 c 3
 249 414 190 395 190 364 c 3
 190 326 256 297 342 297 c 3
 364 297 377 284 377 262 c 2
 377 235 l 2
 377 213 364 200 342 200 c 3
 254 200 180 170 180 133 c 3
 180 101 237 83 342 83 c 3
 388 83 431 86 459 92 c 0
 481 95 496 86 501 66 c 2
 508 38 l 2
EndSplineSet
PickledDataWithLists: "(dp0
Vcom.schriftgestaltung.Glyphs.lastChange\\u000d\\u000d\\u000d\\u000d\\u000d\\u000d
p1
V2016-05-30 08:32:45 +0000\\u000d\\u000d\\u000d\\u000d\\u000d\\u000d
p2
s."
EndChar

StartChar: equal
Encoding: 61 61 218
GlifName: equal
Width: 575
VWidth: 0
Flags: MW
LayerCount: 2
Fore
SplineSet
41 412 m 2
 41 439 l 2
 41 461 54 474 76 474 c 2
 499 474 l 2
 521 474 534 461 534 439 c 2
 534 412 l 2
 534 390 521 377 499 377 c 2
 76 377 l 2
 54 377 41 390 41 412 c 2
41 182 m 2
 41 209 l 2
 41 231 54 244 76 244 c 2
 499 244 l 2
 521 244 534 231 534 209 c 2
 534 182 l 2
 534 160 521 147 499 147 c 2
 76 147 l 2
 54 147 41 160 41 182 c 2
EndSplineSet
EndChar

StartChar: equivalence
Encoding: 8801 8801 219
GlifName: equivalence
Width: 575
Flags: MW
LayerCount: 2
Fore
SplineSet
60 489 m 2
 60 516 l 2
 60 538 73 551 95 551 c 2
 480 551 l 2
 502 551 515 538 515 516 c 2
 515 489 l 2
 515 467 502 454 480 454 c 2
 95 454 l 2
 73 454 60 467 60 489 c 2
60 297 m 2
 60 324 l 2
 60 346 73 359 95 359 c 2
 480 359 l 2
 502 359 515 346 515 324 c 2
 515 297 l 2
 515 275 502 262 480 262 c 2
 95 262 l 2
 73 262 60 275 60 297 c 2
60 105 m 2
 60 132 l 2
 60 154 73 167 95 167 c 2
 480 167 l 2
 502 167 515 154 515 132 c 2
 515 105 l 2
 515 83 502 70 480 70 c 2
 95 70 l 2
 73 70 60 83 60 105 c 2
EndSplineSet
PickledDataWithLists: "(dp0
Vcom.schriftgestaltung.Glyphs.lastChange\\u000d\\u000d\\u000d\\u000d\\u000d\\u000d
p1
V2015-12-22 14:08:32 +0000\\u000d\\u000d\\u000d\\u000d\\u000d\\u000d
p2
s."
EndChar

StartChar: eta
Encoding: 951 951 220
GlifName: eta
Width: 575
VWidth: 0
Flags: MW
AnchorPoint: "mark-top" 288 500 basechar 0
LayerCount: 2
Back
SplineSet
89 25 m 258
 89 471 l 258
 89 486 96 495 112 498 c 264
 176 510 245 510 278 510 c 259
 426 510 486 454 486 308 c 258
 486 25 l 258
 486 9 477 0 461 0 c 258
 426 0 l 258
 410 0 401 9 401 25 c 258
 401 308 l 258
 401 402 369 434 278 434 c 259
 254 434 219 433 174 430 c 257
 174 25 l 258
 174 9 165 0 149 0 c 258
 114 0 l 258
 98 0 89 9 89 25 c 258
EndSplineSet
Fore
SplineSet
91 7 m 0
 83 13 79 23 79 34 c 2
 79 462 l 2
 79 481 92 495 111 498 c 0
 165 506 219 510 278 510 c 3
 433 510 496 450 496 304 c 2
 496 -200 l 2
 496 -209 494 -217 489 -223 c 0
 483 -231 473 -235 461 -235 c 2
 426 -235 l 2
 414 -235 404 -231 398 -223 c 0
 393 -217 391 -209 391 -200 c 2
 391 302 l 2
 391 387 364 414 278 414 c 3
 252 414 219 413 184 411 c 1
 184 33 l 2
 184 24 182 17 177 11 c 0
 171 4 161 0 149 0 c 2
 114 0 l 2
 105 0 97 2 91 7 c 0
EndSplineSet
PickledDataWithLists: "(dp0
Vcom.schriftgestaltung.Glyphs.lastChange\\u000d\\u000d\\u000d\\u000d\\u000d\\u000d
p1
V2016-05-30 08:32:52 +0000\\u000d\\u000d\\u000d\\u000d\\u000d\\u000d
p2
s."
EndChar

StartChar: eth
Encoding: 240 240 221
GlifName: eth
Width: 575
VWidth: 0
Flags: MW
LayerCount: 2
Fore
SplineSet
550 591 m 2
 557 571 549 554 529 547 c 2
 487 531 l 1
 516 465 532 385 532 295 c 3
 532 99 447 -10 292 -10 c 3
 161 -10 69 81 69 211 c 3
 69 337 164 432 290 432 c 3
 336 432 377 421 419 396 c 1
 414 435 406 468 394 497 c 1
 301 464 l 2
 281 456 263 465 256 485 c 2
 248 509 l 2
 241 531 248 547 268 554 c 2
 339 580 l 1
 318 597 293.2637943 609.701724081 266 611 c 0
 245 612 232.30078125 625.0234375 233 646 c 2
 234 675 l 2
 234.72327791 695.975059382 247 709 267 709 c 3
 322 709 393 670 437 616 c 1
 496 637 l 2
 516 645 534 636 541 616 c 2
 550 591 l 2
294 351 m 3
 223 351 175 298 175 220 c 3
 175 137 218 88 289 88 c 3
 374 88 425 168 426 302 c 1
 384 336 345 351 294 351 c 3
EndSplineSet
PickledDataWithLists: "(dp0
Vcom.schriftgestaltung.Glyphs.lastChange\\u000d\\u000d\\u000d\\u000d\\u000d\\u000d
p1
V2016-06-09 18:35:33 +0000\\u000d\\u000d\\u000d\\u000d\\u000d\\u000d
p2
s."
EndChar

StartChar: exclam
Encoding: 33 33 222
GlifName: exclam
Width: 575
VWidth: 0
Flags: MW
LayerCount: 2
Fore
SplineSet
260 710 m 2
 315 710 l 2
 337 710 350 697 350 675 c 2
 340 230 l 2
 340 209 326 195 305 195 c 2
 270 195 l 2
 249 195 235 209 235 230 c 2
 225 675 l 2
 225 697 238 710 260 710 c 2
340 72 m 2
 340 25 l 2
 340 3 327 -10 305 -10 c 2
 270 -10 l 2
 248 -10 235 3 235 25 c 2
 235 72 l 2
 235 94 248 107 270 107 c 2
 305 107 l 2
 327 107 340 94 340 72 c 2
EndSplineSet
PickledDataWithLists: "(dp0
Vcom.schriftgestaltung.Glyphs.lastChange\\u000d\\u000d\\u000d\\u000d\\u000d\\u000d
p1
V2016-02-14 11:57:10 +0000\\u000d\\u000d\\u000d\\u000d\\u000d\\u000d
p2
s."
EndChar

StartChar: f
Encoding: 102 102 225
GlifName: f
Width: 575
VWidth: 0
Flags: MW
AnchorPoint: "mark-bottom" 239 0 basechar 0
LayerCount: 2
Fore
SplineSet
495 671 m 2
 487 652 469 644 449 652 c 0
 424 661 403 665 378 665 c 3
 317 665 292 629 292 539 c 2
 292 500 l 1
 445 500 l 2
 467 500 480 487 480 465 c 2
 480 439 l 2
 480 417 467 404 445 404 c 2
 291 404 l 1
 291 33 l 2
 291 12 278 0 256 0 c 2
 221 0 l 2
 200 0 186 14 186 34 c 2
 186 404 l 1
 100 404 l 2
 78 404 65 417 65 439 c 2
 65 465 l 2
 65 487 78 500 100 500 c 2
 186 500 l 1
 186 539 l 2
 186 682 256 763 378 763 c 3
 410 763 438 758 486 743 c 0
 507 736 515 718 506 697 c 2
 495 671 l 2
EndSplineSet
EndChar

StartChar: f.hex
Encoding: 65557 -1 226
GlifName: f.hex
Width: 575
VWidth: 0
Flags: MW
AnchorPoint: "bottom" 520 266 basechar 0
LayerCount: 2
Fore
SplineSet
112.299505596 892.614380323 m 0
 120.429383125 886.024900642 124 875.92286565 124 865 c 2
 124 819 l 2
 124 807.680679758 120.49077603 797.434582054 112.147103874 790.935300585 c 0
 105.638298075 785.865283436 97.5384556952 784 89 784 c 2
 54 784 l 2
 42.6806797579 784 32.4345820537 787.50922397 25.9353005852 795.852896126 c 0
 20.8652834364 802.361701925 19 810.461544305 19 819 c 2
 19 865 l 2
 19 875.92286565 22.5706168755 886.024900642 30.700494404 892.614380323 c 0
 37.0967468189 897.798711228 45.2466187476 900 54 900 c 2
 89 900 l 2
 97.7533812524 900 105.903253181 897.798711228 112.299505596 892.614380323 c 0
256.299505596 892.614380323 m 0
 264.429383125 886.024900642 268 875.92286565 268 865 c 2
 268 819 l 2
 268 807.680679758 264.49077603 797.434582054 256.147103874 790.935300585 c 0
 249.638298075 785.865283436 241.538455695 784 233 784 c 2
 198 784 l 2
 186.680679758 784 176.434582054 787.50922397 169.935300585 795.852896126 c 0
 164.865283436 802.361701925 163 810.461544305 163 819 c 2
 163 865 l 2
 163 875.92286565 166.570616875 886.024900642 174.700494404 892.614380323 c 0
 181.096746819 897.798711228 189.246618748 900 198 900 c 2
 233 900 l 2
 241.753381252 900 249.903253181 897.798711228 256.299505596 892.614380323 c 0
404.614380323 888.299505596 m 0
 409.798711228 881.903253181 412 873.753381252 412 865 c 2
 412 819 l 2
 412 807.680679758 408.49077603 797.434582054 400.147103874 790.935300585 c 0
 393.638298075 785.865283436 385.538455695 784 377 784 c 2
 342 784 l 2
 330.680679758 784 320.434582054 787.50922397 313.935300585 795.852896126 c 0
 308.865283436 802.361701925 307 810.461544305 307 819 c 2
 307 865 l 2
 307 873.753381252 309.201288772 881.903253181 314.385619677 888.299505596 c 0
 320.975099358 896.429383125 331.07713435 900 342 900 c 2
 377 900 l 2
 387.92286565 900 398.024900642 896.429383125 404.614380323 888.299505596 c 0
548.614380323 888.299505596 m 0
 553.798711228 881.903253181 556 873.753381252 556 865 c 2
 556 819 l 2
 556 807.680679758 552.49077603 797.434582054 544.147103874 790.935300585 c 0
 537.638298075 785.865283436 529.538455695 784 521 784 c 2
 486 784 l 2
 474.680679758 784 464.434582054 787.50922397 457.935300585 795.852896126 c 0
 452.865283436 802.361701925 451 810.461544305 451 819 c 2
 451 865 l 2
 451 873.753381252 453.201288772 881.903253181 458.385619677 888.299505596 c 0
 464.975099358 896.429383125 475.07713435 900 486 900 c 2
 521 900 l 2
 531.92286565 900 542.024900642 896.429383125 548.614380323 888.299505596 c 0
495.067199185 670.779899666 m 0
 489.058294917 657.903676235 478.60708309 648.524782204 464.513359553 648.524782204 c 0
 459.447179909 648.524782204 454.42762042 649.67119234 449.41777044 651.660964587 c 0
 423.385163628 661.290340834 401.847240218 664.999999913 378 665 c 0
 347.478033621 665 325.772607893 657.726008887 311.363967839 636.604609165 c 0
 299.534456429 619.263913716 292 590.837601852 292 546.636363636 c 2
 292 510 l 1
 445 510 l 2
 455.92286565 510 466.024900642 506.429383125 472.614380323 498.299505596 c 0
 477.798711228 491.903253181 480 483.753381252 480 475 c 2
 480 449 l 2
 480 440.246618748 477.798711228 432.096746819 472.614380323 425.700494404 c 0
 466.024900642 417.570616875 455.92286565 414 445 414 c 2
 291 414 l 1
 291 25 l 2
 291 16.2466187476 288.798711228 8.09674681893 283.614380323 1.70049440398 c 0
 277.024900642 -6.42938312452 266.92286565 -10 256 -10 c 2
 221 -10 l 2
 209.680679758 -10 199.434582054 -6.49077602975 192.935300585 1.85289612578 c 0
 187.865283436 8.36170192496 186 16.4615443048 186 25 c 2
 186 414 l 1
 100 414 l 2
 91.4615443048 414 83.361701925 415.865283436 76.8528961258 420.935300585 c 0
 68.5092239702 427.434582054 65 437.680679758 65 449 c 2
 65 475 l 2
 65 485.92286565 68.5706168755 496.024900642 76.700494404 502.614380323 c 0
 83.0967468189 507.798711228 91.2466187476 510 100 510 c 2
 186 510 l 1
 186 547.517110266 l 2
 186 635.429451923 213.613469731 692.740101495 256.759928023 726.02989595 c 0
 291.139832592 752.555826509 334.163124194 763 378 763 c 0
 414.45866474 763 452.367136646 754.759786139 486.21187993 742.474563274 c 0
 500.433751118 737.945231697 509.648293678 727.064367057 509.648293678 713.25377367 c 0
 509.648293678 707.87059849 508.396526583 702.561053427 506.214255262 697.110585047 c 0
 502.509051815 688.352831444 499.086387727 679.392446542 495.067199185 670.779899666 c 0
EndSplineSet
PickledDataWithLists: "(dp0
Vcom.schriftgestaltung.Glyphs.lastChange\\u000d\\u000d\\u000d\\u000d\\u000d\\u000d
p1
V2016-06-09 18:35:34 +0000\\u000d\\u000d\\u000d\\u000d\\u000d\\u000d
p2
s."
EndChar

StartChar: five
Encoding: 53 53 227
GlifName: five
Width: 575
VWidth: 0
Flags: MW
LayerCount: 2
Fore
SplineSet
220.807792974 441 m 1
 263 441 l 2
 420.841831324 441 503 363.973004006 503 215.989154013 c 3
 503 67.3087679374 415.082712789 -10 246 -10 c 3
 203.779765905 -10 160.956751394 -5.03950193469 122.570239124 4.29775780658 c 0
 102.30945907 9.36295281991 92.4674701784 27.0437965695 98.383239969 47.7489908369 c 2
 106.360749129 75.6702728962 l 2
 111.62063688 95.2199728024 128.036191072 104.022258932 149.350412591 98.7220269806 c 0
 179.965001497 91.5848631033 212.279370831 88 246 88 c 3
 347.482033674 88 397 129.975494634 397 216 c 3
 397 301.759399316 352.779371159 344 263 344 c 2
 199 344 l 2
 188.152932288 344 167.475228531 346.782523457 147.035139729 350.99272242 c 0
 126.211841287 354.827062897 115.441423915 368.28939905 117.029332951 388.49807095 c 2
 139.022388982 668.394741299 l 2
 140.350954202 687.769031813 154.660977362 700 176 700 c 2
 431 700 l 2
 452.515456316 700 466 686.515456316 466 665 c 2
 466 639 l 2
 466 617.484543684 452.515456316 604 431 604 c 2
 234.253388829 604 l 1
 220.807792974 441 l 1
EndSplineSet
EndChar

StartChar: five.dnom
Encoding: 65558 -1 228
GlifName: five.dnom
Width: 575
VWidth: 0
Flags: MW
LayerCount: 2
Fore
SplineSet
127 226 m 2
 165.784915176 226 198.134601493 217.422178616 222.384668824 200.242031412 c 0
 252.929213391 178.602513271 269 144.053256412 269 101 c 0
 269 57.362214337 252.570455488 22.5125511134 221.199970008 0.784601799273 c 0
 196.308568264 -16.4557789975 163.063519509 -25 123 -25 c 0
 100.379573185 -25 76.6425229231 -23.003291631 57.2510091631 -17.616760031 c 0
 40.3612437163 -12.7911127605 31.625 2.06575600493 31.625 16.47265625 c 0
 31.625 24.9607145691 34.5479684572 31.3255405454 36.5226120855 38.2367932446 c 0
 41.8524340693 51.5613482041 55.9839859083 60.6386126715 71.3170256835 60.6386126715 c 0
 74.0146264218 60.6386126715 76.9285103031 60.3704953843 79.5798155243 59.6634806586 c 0
 93.8846599194 55.8488554866 106.803890093 54 123 54 c 0
 142.759790697 54 156.677984263 57.6608319429 165.583951841 63.589476053 c 0
 176.312231384 70.7312212671 182 82.0281456836 182 101 c 0
 182 120.112056157 176.487074574 131.114140281 166.573760873 137.900161206 c 0
 158.332060643 143.541902394 145.418378081 147 127 147 c 2
 95 147 l 2
 81.7375324139 147 69.7149338437 153.285447799 63.4723131055 160.4198715 c 2
 42.6830238631 184.179059206 l 2
 35.3639217693 191.584110014 29.8479374819 201.031676745 29.8479374819 212.27498914 c 0
 29.8479374819 213.551299729 29.9190918228 214.832572289 30.0615440444 216.114642283 c 0
 36.0764213046 257.970232816 42.1113320807 299.805789833 48.1338812835 341.653708423 c 0
 51.1246718789 359.598451995 68.1266162514 370 84 370 c 2
 221 370 l 2
 239.895815071 370 255 355.962284384 255 338 c 2
 255 325 l 2
 255 308.522112473 240.837969895 292 221 292 c 2
 128.603154058 292 l 1
 118.626409872 226 l 1
 127 226 l 2
EndSplineSet
EndChar

StartChar: five.hex
Encoding: 65559 -1 229
GlifName: five.hex
Width: 575
VWidth: 0
Flags: MW
LayerCount: 2
Fore
SplineSet
268 875 m 2
 268 829 l 2
 268 817.680679758 264.49077603 807.434582054 256.147103874 800.935300585 c 0
 249.638298075 795.865283436 241.538455695 794 233 794 c 2
 198 794 l 2
 186.680679758 794 176.434582054 797.50922397 169.935300585 805.852896126 c 0
 164.865283436 812.361701925 163 820.461544305 163 829 c 2
 163 875 l 2
 163 885.92286565 166.570616875 896.024900642 174.700494404 902.614380323 c 0
 181.096746819 907.798711228 189.246618748 910 198 910 c 2
 233 910 l 2
 241.753381252 910 249.903253181 907.798711228 256.299505596 902.614380323 c 0
 264.429383125 896.024900642 268 885.92286565 268 875 c 2
556 875 m 2
 556 829 l 2
 556 817.680679758 552.49077603 807.434582054 544.147103874 800.935300585 c 0
 537.638298075 795.865283436 529.538455695 794 521 794 c 2
 486 794 l 2
 474.680679758 794 464.434582054 797.50922397 457.935300585 805.852896126 c 0
 452.865283436 812.361701925 451 820.461544305 451 829 c 2
 451 875 l 2
 451 883.753381252 453.201288772 891.903253181 458.385619677 898.299505596 c 0
 464.975099358 906.429383125 475.07713435 910 486 910 c 2
 521 910 l 2
 531.92286565 910 542.024900642 906.429383125 548.614380323 898.299505596 c 0
 553.798711228 891.903253181 556 883.753381252 556 875 c 2
EndSplineSet
Refer: 227 53 N 1 0 0 1 0 0 2
PickledDataWithLists: "(dp0
Vcom.schriftgestaltung.Glyphs.lastChange\\u000d\\u000d\\u000d\\u000d\\u000d\\u000d
p1
V2016-02-10 13:20:16 +0000\\u000d\\u000d\\u000d\\u000d\\u000d\\u000d
p2
s."
EndChar

StartChar: florin
Encoding: 402 402 232
GlifName: florin
Width: 575
VWidth: 0
Flags: MW
LayerCount: 2
Fore
SplineSet
197 591 m 2
 217 710 278 760 401 760 c 3
 441 760 484 756 524 749 c 0
 546 745 554 727 545 705 c 2
 534 679 l 2
 527 661 509 651 490 654 c 0
 455 660 418 664 388 664 c 3
 332 664 313 647 302 587 c 2
 287 500 l 1
 439 500 l 2
 461 500 473 486 469 463 c 2
 464 435 l 2
 461 415 447 404 425 404 c 2
 269 404 l 1
 183 -66 l 2
 179 -87 165 -100 144 -100 c 2
 109 -100 l 2
 86 -100 74 -87 78 -64 c 2
 164 404 l 1
 81 404 l 2
 58 404 46 419 50 441 c 2
 55 467 l 2
 59 487 74 500 94 500 c 2
 182 500 l 1
 197 591 l 2
EndSplineSet
PickledDataWithLists: "(dp0
Vcom.schriftgestaltung.Glyphs.lastChange\\u000d\\u000d\\u000d\\u000d\\u000d\\u000d
p1
V2015-12-22 12:14:05 +0000\\u000d\\u000d\\u000d\\u000d\\u000d\\u000d
p2
s."
EndChar

StartChar: four
Encoding: 52 52 233
GlifName: four
Width: 575
VWidth: 0
Flags: MW
LayerCount: 2
Fore
SplineSet
181 231 m 1
 336 231 l 1
 336 392 l 2
 336 414 349 427 371 427 c 2
 406 427 l 2
 428 427 441 414 441 392 c 2
 441 231 l 1
 485 231 l 2
 507 231 520 218 520 196 c 2
 520 170 l 2
 520 148 507 135 485 135 c 2
 440 135 l 1
 440 35 l 2
 440 13 427 0 405 0 c 2
 370 0 l 2
 349 0 336 13 336 35 c 2
 336 135 l 1
 97 135 l 2
 75 135 63 147 63 168 c 2
 63 208 l 2
 63 221 65 232 71 243 c 2
 289 672 l 2
 299 692 312 700 335 700 c 2
 371 700 l 2
 398 700 411 680 399 656 c 2
 181 231 l 1
EndSplineSet
EndChar

StartChar: four.dnom
Encoding: 65561 -1 234
GlifName: four.dnom
Width: 575
VWidth: 0
Flags: MW
LayerCount: 2
Fore
SplineSet
151 131 m 1
 151 196 l 2
 151 196.981327889 151.046735076 197.95318714 151.138175181 198.91372325 c 1
 117.181313557 131 l 1
 151 131 l 1
186 229 m 2
 203 229 l 2
 222.078272935 229 238 214.112890075 238 196 c 2
 238 131 l 1
 243 131 l 2
 262.837969895 131 277 114.477887527 277 98 c 2
 277 85 l 2
 277 67.037715616 261.895815071 53 243 53 c 2
 237 53 l 1
 237 13 l 2
 237 -3.47788752662 222.837969895 -20 203 -20 c 2
 185 -20 l 2
 165.162030105 -20 151 -3.47788752662 151 13 c 2
 151 53 l 1
 49 53 l 2
 30.1041849295 53 15 67.037715616 15 85 c 2
 15 105 l 2
 15 112.955999901 16.2156526327 120.793895139 20.0417633798 128.446116633 c 2
 129.049896668 347.46242045 l 2
 135.89782151 361.158270133 150.634201042 370 168 370 c 2
 186 370 l 2
 204.319149333 370 218.258080811 356.166718248 218.258080811 339.818720778 c 0
 218.258080811 335.270242358 217.152975577 330.677153051 214.889460526 326.416293939 c 2
 161.311315462 219.260003812 l 1
 167.679381494 225.264818626 176.443701485 229 186 229 c 2
EndSplineSet
EndChar

StartChar: four.hex
Encoding: 65562 -1 235
GlifName: four.hex
Width: 575
VWidth: 0
Flags: MW
LayerCount: 2
Fore
SplineSet
268 875 m 2
 268 829 l 2
 268 817.680679758 264.49077603 807.434582054 256.147103874 800.935300585 c 0
 249.638298075 795.865283436 241.538455695 794 233 794 c 2
 198 794 l 2
 186.680679758 794 176.434582054 797.50922397 169.935300585 805.852896126 c 0
 164.865283436 812.361701925 163 820.461544305 163 829 c 2
 163 875 l 2
 163 885.92286565 166.570616875 896.024900642 174.700494404 902.614380323 c 0
 181.096746819 907.798711228 189.246618748 910 198 910 c 2
 233 910 l 2
 241.753381252 910 249.903253181 907.798711228 256.299505596 902.614380323 c 0
 264.429383125 896.024900642 268 885.92286565 268 875 c 2
EndSplineSet
Refer: 233 52 N 1 0 0 1 0 0 2
PickledDataWithLists: "(dp0
Vcom.schriftgestaltung.Glyphs.lastChange\\u000d\\u000d\\u000d\\u000d\\u000d\\u000d
p1
V2016-02-10 13:19:53 +0000\\u000d\\u000d\\u000d\\u000d\\u000d\\u000d
p2
s."
EndChar

StartChar: g
Encoding: 103 103 238
GlifName: g
Width: 575
VWidth: 0
Flags: MW
AnchorPoint: "mark-top" 288 500 basechar 0
LayerCount: 2
Fore
SplineSet
215 152 m 1
 195 143 182 128 182 113 c 3
 182 90 220 81 320 81 c 3
 488 81 585 23 585 -77 c 3
 585 -182 483 -248 320 -248 c 3
 141 -248 41 -196 41 -103 c 3
 41 -57 68 -11 112 17 c 1
 88 34 77 60 77 93 c 3
 77 132 102 171 141 193 c 1
 100 227 77 274 77 327 c 3
 77 433 165 510 288 510 c 3
 312 510 335 507 360 500 c 1
 510 500 l 2
 532 500 545 487 545 465 c 2
 545 449 l 2
 545 427 532 414 510 414 c 2
 474 414 l 1
 490 387 499 356 499 324 c 3
 499 218 411 142 288 142 c 3
 263 142 239 145 215 152 c 1
288 239 m 3
 349 239 394 276 394 326 c 3
 394 376 349 414 288 414 c 3
 227 414 182 376 182 326 c 3
 182 276 227 239 288 239 c 3
196 -9 m 1
 161 -23 140 -49 140 -78 c 3
 140 -124 203 -151 310 -151 c 3
 410 -151 480 -121 480 -77 c 3
 480 -39 417 -16 310 -16 c 3
 261 -16 225 -14 196 -9 c 1
EndSplineSet
EndChar

StartChar: gamma
Encoding: 947 947 239
GlifName: gamma
Width: 575
VWidth: 0
Flags: MW
AnchorPoint: "mark-top" 288 466 basechar 0
LayerCount: 2
Back
SplineSet
94.5 500 m 0
 101.044921875 500 107.549804688 497.305664062 112.177734375 492.677734375 c 0
 116.805664062 488.049804688 119.5 481.544921875 119.5 475 c 0
 119.5 468.455078125 116.805664062 461.950195312 112.177734375 457.322265625 c 0
 107.549804688 452.694335938 101.044921875 450 94.5 450 c 0
 87.955078125 450 81.4501953125 452.694335938 76.822265625 457.322265625 c 0
 72.1943359375 461.950195312 69.5 468.455078125 69.5 475 c 0
 69.5 481.544921875 72.1943359375 488.049804688 76.822265625 492.677734375 c 0
 81.4501953125 497.305664062 87.955078125 500 94.5 500 c 0
  Spiro
    94.5 500 c
    94.5 450 c
    0 0 z
  EndSpiro
292 274 m 1
 334 338 389 423 430 488 c 0
 434 495 440 500 451 500 c 2
 493 500 l 2
 519 500 525 484 514 467 c 0
 450 365 406 298 341 198 c 1
 379 139 417 78 438 4 c 0
 445 -19 449 -44 449 -72 c 3
 449 -159 405 -219 340 -241 c 0
 324 -246 308 -250 292 -250 c 0
 193 -250 135 -170 135 -72 c 3
 135 -2 160 49 184 97 c 0
 202 132 222 166 243 198 c 1
 178 298 133 362 71 466 c 0
 61 483 66 500 92 500 c 2
 133 500 l 2
 144 500 150 494 154 488 c 0
 194 423 250 338 292 274 c 1
221 -72 m 3
 221 -124 243 -173 295 -173 c 0
 341 -173 363 -123 363 -71 c 3
 363 -63 363 -55 362 -47 c 0
 353 19 321 72 292 120 c 1
 263 72 233 22 223 -43 c 0
 222 -53 221 -63 221 -72 c 3
-368.82421875 294.760742188 m 1
 -326.625 358.91015625 -272.024414062 444.061523438 -230.928710938 509.327148438 c 0
 -226.501953125 516.357421875 -220.7578125 521.032226562 -209.7578125 521.032226562 c 2
 -167.7578125 521.032226562 l 2
 -149.7578125 521.032226562 -135.756835938 504.784179688 -149.573242188 482.758789062 c 0
 -213.665039062 380.587890625 -254.282226562 319.356445312 -319.6796875 218.99609375 c 1
 -282.091796875 160.219726562 -243.96875 99.26171875 -223.141601562 24.841796875 c 0
 -216.629882812 1.5751953125 -212.120117188 -22.9931640625 -212.120117188 -51.3662109375 c 0
 -212.120117188 -138.4375 -255.44921875 -197.891601562 -320.41796875 -220.377929688 c 0
 -335.920898438 -225.743164062 -352.327148438 -228.467773438 -368.731445312 -228.467773438 c 0
 -467.541015625 -228.467773438 -525.3984375 -149.764648438 -525.3984375 -51.265625 c 0
 -525.3984375 18.2421875 -500.955078125 70.791015625 -476.831054688 118.323242188 c 0
 -459.07421875 153.30859375 -438.71484375 186.594726562 -418 219 c 1
 -483.19140625 318.986328125 -524.880859375 379.462890625 -587.206054688 483.188476562 c 0
 -600.596679688 505.474609375 -587.7578125 521.032226562 -568.7578125 521.032226562 c 2
 -527.7578125 521.032226562 l 2
 -516.7578125 521.032226562 -510.147460938 515.09375 -506.46875 509.137695312 c 0
 -466.076171875 443.736328125 -410.803710938 358.767578125 -368.82421875 294.760742188 c 1
641 472 m 258
 636 489 645 500 662 500 c 258
 698 500 l 258
 713 500 722 493 726 479 c 258
 830 63 l 257
 861 63 l 258
 882 63 896 74 900 93 c 258
 997 479 l 258
 1000 493 1009 500 1024 500 c 258
 1060 500 l 258
 1078 500 1086 490 1082 472 c 258
 984 80 l 258
 969 22 926 -10 861 -10 c 258
 848 -10 l 257
 866 -78 877 -158 880 -225 c 256
 880 -241 871 -250 855 -250 c 258
 827 -250 l 258
 811 -250 803 -242 802 -226 c 256
 798 -178 784 -103 764 -21 c 258
 641 472 l 258
  Spiro
    641 472 ]
    640.441 486.802 o
    647.9 496.525 o
    662 500 [
    698 500 ]
    711.026 497.671 o
    720.304 490.657 o
    726 479 [
    830 63 v
    861 63 ]
    879.54 66.5486 o
    892.788 76.7911 o
    900 93 [
    997 479 ]
    1006 494.75 o
    1024 500 [
    1060 500 ]
    1074.58 496.747 o
    1082.08 487.247 o
    1082 472 [
    984 80 ]
    959.922 30.9289 o
    918.395 0.423788 o
    861 -10 [
    848 -10 v
    863.616 -81.0009 o
    874.379 -154.665 o
    880 -225 o
    877.08 -238.581 o
    868.581 -247.08 o
    855 -250 [
    827 -250 ]
    813.64 -247.339 o
    805.365 -239.323 o
    802 -226 o
    794.825 -169.805 o
    781.836 -99.8508 o
    764 -21 [
    0 0 z
  EndSpiro
EndSplineSet
Fore
SplineSet
456 500 m 2
 485 500 l 2
 520 500 536 472 517 444 c 2
 353 199 l 1
 430 85 459 13 459 -62 c 3
 459 -173 390 -250 292 -250 c 3
 194 -250 125 -173 125 -62 c 3
 125 13 154 85 231 199 c 1
 68 444 l 2
 49 472 64 500 99 500 c 2
 128 500 l 2
 147 500 154 496 164 480 c 2
 292 282 l 1
 420 480 l 2
 430 496 437 500 456 500 c 2
292 111 m 1
 248 38 231 -9 231 -62 c 3
 231 -118 255 -153 292 -153 c 3
 329 -153 353 -118 353 -62 c 3
 353 -9 336 38 292 111 c 1
EndSplineSet
PickledDataWithLists: "(dp0
Vcom.schriftgestaltung.Glyphs.lastChange\\u000d\\u000d\\u000d\\u000d\\u000d\\u000d
p1
V2016-05-30 08:32:29 +0000\\u000d\\u000d\\u000d\\u000d\\u000d\\u000d
p2
s."
EndChar

StartChar: germandbls
Encoding: 223 223 241
GlifName: germandbls
Width: 575
VWidth: 0
Flags: MW
LayerCount: 2
Back
SplineSet
817 494 m 258
 817 25 l 258
 817 9 808 0 792 0 c 258
 757 0 l 258
 741 0 732 9 732 25 c 258
 732 494 l 258
 732 631 800 700 924 700 c 259
 1040 700 1103 644 1103 541 c 259
 1103 468.973632812 1032 407.612304688 1032 370 c 259
 1032 314.18359375 1143 301.200195312 1143 192 c 259
 1143 61.99609375 1046 7 920 1 c 256
 903 0 894 9 894 26 c 258
 894 52 l 258
 894 68 903 76 919 78 c 256
 1000 88 1062 115 1062 197 c 259
 1062 280.05859375 947 278.075195312 947 363 c 259
 947 431.405273438 1023 488.231445312 1023 533 c 259
 1023 592 988 624 924 624 c 259
 855 624 817 581 817 494 c 258
EndSplineSet
Fore
SplineSet
475 591 m 3
 475 497 370 417 370 368 c 3
 370 311 521 312 521 151 c 3
 521 60 445 -10 344 -10 c 3
 314 -10 305 -9 261 1 c 0
 239 6 228 22 233 43 c 2
 239 69 l 2
 243 91 259 102 280 97 c 0
 312 89 325 87 344 87 c 3
 380 87 416 119 416 151 c 3
 416 236 265 237 265 369 c 3
 265 456 375 530 375 583 c 3
 375 634 344 664 290 664 c 3
 227 664 197 626 197 544 c 2
 197 34 l 2
 197 13 183 0 162 0 c 2
 127 0 l 2
 106 0 92 13 92 34 c 2
 92 544 l 2
 92 686 160 760 290 760 c 3
 405 760 475 696 475 591 c 3
EndSplineSet
PickledDataWithLists: "(dp0
Vcom.schriftgestaltung.Glyphs.lastChange\\u000d\\u000d\\u000d\\u000d\\u000d\\u000d
p1
V2016-06-09 18:35:34 +0000\\u000d\\u000d\\u000d\\u000d\\u000d\\u000d
p2
s."
EndChar

StartChar: grave
Encoding: 96 96 242
GlifName: grave
Width: 575
VWidth: 0
GlyphClass: 2
Flags: MW
LayerCount: 2
Fore
SplineSet
355 521 m 2
 133 599 l 2
 112 606 104 624 113 644 c 2
 134 690 l 2
 142 710 160 717 180 707 c 2
 389 604 l 2
 409 595 416 577 408 558 c 2
 400 539 l 2
 392 519 377 513 355 521 c 2
EndSplineSet
PickledDataWithLists: "(dp0
Vcom.schriftgestaltung.Glyphs.lastChange\\u000d\\u000d\\u000d\\u000d\\u000d\\u000d
p1
V2015-12-22 16:32:42 +0000\\u000d\\u000d\\u000d\\u000d\\u000d\\u000d
p2
s."
EndChar

StartChar: greater
Encoding: 62 62 243
GlifName: greater
Width: 575
VWidth: 0
Flags: MW
LayerCount: 2
Fore
SplineSet
141 631 m 2
 466 387 l 2
 494 367 511 339 511 311 c 3
 511 283 494 255 466 235 c 2
 142 -9 l 2
 125 -22 105 -19 92 -3 c 2
 73 20 l 2
 59 37 62 56 79 69 c 2
 400 311 l 1
 79 553 l 2
 62 566 59 585 73 602 c 2
 92 625 l 2
 105 641 124 644 141 631 c 2
EndSplineSet
EndChar

StartChar: greaterequal
Encoding: 8805 8805 244
GlifName: greaterequal
Width: 575
VWidth: 0
Flags: MW
LayerCount: 2
Fore
SplineSet
41 25 m 2
 41 52 l 2
 41 74 54 87 76 87 c 2
 499 87 l 2
 521 87 534 74 534 52 c 2
 534 25 l 2
 534 3 521 -10 499 -10 c 2
 76 -10 l 2
 54 -10 41 3 41 25 c 2
529 400 m 3
 529 366 508 341 462 319 c 2
 117 146 l 2
 99 137 82 143 71 161 c 2
 57 185 l 2
 46 203 53 223 72 233 c 2
 406 400 l 1
 71 567 l 2
 52 576 46 597 57 615 c 2
 71 640 l 2
 80 658 98 664 117 654 c 2
 463 482 l 2
 510 459 529 435 529 400 c 3
EndSplineSet
PickledDataWithLists: "(dp0
Vcom.schriftgestaltung.Glyphs.lastChange\\u000d\\u000d\\u000d\\u000d\\u000d\\u000d
p1
V2015-12-22 14:10:07 +0000\\u000d\\u000d\\u000d\\u000d\\u000d\\u000d
p2
s."
EndChar

StartChar: guillemotleft
Encoding: 171 171 245
GlifName: guillemotleft
Width: 575
VWidth: 0
Flags: MW
LayerCount: 2
Fore
SplineSet
308 491 m 2
 128 311 l 1
 308 131 l 2
 323 116 323 97 307 82 c 2
 284 60 l 2
 268 46 249 47 234 62 c 2
 58 239 l 2
 30 267 20 286 20 311 c 3
 20 336 31 357 58 384 c 2
 234 560 l 2
 250 576 267 576 284 561 c 2
 307 541 l 2
 324 526 324 507 308 491 c 2
544 491 m 2
 364 311 l 1
 544 131 l 2
 560 116 560 96 543 81 c 2
 520 60 l 2
 505 46 486 47 471 62 c 2
 294 239 l 2
 266 267 256 286 256 311 c 3
 256 336 267 357 294 384 c 2
 471 560 l 2
 486 576 504 576 520 561 c 2
 543 542 l 2
 560 527 560 507 544 491 c 2
EndSplineSet
PickledDataWithLists: "(dp0
Vcom.schriftgestaltung.Glyphs.lastChange\\u000d\\u000d\\u000d\\u000d\\u000d\\u000d
p1
V2015-12-22 13:55:11 +0000\\u000d\\u000d\\u000d\\u000d\\u000d\\u000d
p2
s."
EndChar

StartChar: guilsinglleft
Encoding: 8249 8249 247
GlifName: guilsinglleft
Width: 575
VWidth: 0
Flags: MW
LayerCount: 2
Fore
SplineSet
426 491 m 2
 246 311 l 1
 426 131 l 2
 442 116 442 97 425 81 c 2
 402 60 l 2
 387 46 368 47 353 62 c 2
 176 239 l 2
 148 267 138 286 138 311 c 3
 138 336 149 357 176 384 c 2
 353 560 l 2
 368 576 386 576 402 561 c 2
 425 542 l 2
 442 527 442 507 426 491 c 2
EndSplineSet
PickledDataWithLists: "(dp0
Vcom.schriftgestaltung.Glyphs.lastChange\\u000d\\u000d\\u000d\\u000d\\u000d\\u000d
p1
V2015-12-22 13:57:17 +0000\\u000d\\u000d\\u000d\\u000d\\u000d\\u000d
p2
s."
EndChar

StartChar: h
Encoding: 104 104 249
GlifName: h
Width: 575
VWidth: 0
Flags: MW
AnchorPoint: "mark-top" 288 700 basechar 0
AnchorPoint: "mark-bottom" 288 0 basechar 0
LayerCount: 2
Fore
SplineSet
184 715 m 2
 184 506 l 1
 211 509 242 510 278 510 c 3
 433 510 496 451 496 306 c 2
 496 35 l 2
 496 13 483 0 461 0 c 2
 426 0 l 2
 404 0 391 13 391 35 c 2
 391 303 l 2
 391 387 364 414 278 414 c 3
 241 414 210 413 184 410 c 1
 184 35 l 2
 184 13 171 0 149 0 c 2
 114 0 l 2
 92 0 79 13 79 35 c 2
 79 715 l 2
 79 737 92 750 114 750 c 2
 149 750 l 2
 171 750 184 737 184 715 c 2
EndSplineSet
PickledDataWithLists: "(dp0
Vcom.schriftgestaltung.Glyphs.lastChange\\u000d\\u000d\\u000d\\u000d\\u000d\\u000d
p1
V2016-06-09 18:35:33 +0000\\u000d\\u000d\\u000d\\u000d\\u000d\\u000d
p2
s."
EndChar

StartChar: heart
Encoding: 9829 9829 251
GlifName: heart
Width: 575
VWidth: 0
Flags: MW
LayerCount: 2
Fore
SplineSet
400 540 m 3
 487.683069808 540 550 461.269277663 550 373 c 3
 550 245.804262392 452.063849875 112.903062052 294.651004271 -27.4650805247 c 2
 288.010564499 -33.3864917862 l 1
 281.360872883 -27.4756547942 l 2
 118.862692999 116.967171769 26 249.901704685 26 373 c 3
 26 466.368824766 89.5596317875 540 175 540 c 3
 223.470315765 540 264.221480062 514.199672288 288.015944405 479.460636035 c 1
 311.972507249 514.234084367 353.220441316 540 400 540 c 3
EndSplineSet
PickledDataWithLists: "(dp0
Vcom.schriftgestaltung.Glyphs.lastChange\\u000d\\u000d\\u000d\\u000d\\u000d\\u000d
p1
V2016-06-10 08:28:00 +0000\\u000d\\u000d\\u000d\\u000d\\u000d\\u000d
p2
s."
Comment: "+AAoA    heart+AAoA  "
EndChar

StartChar: hungarumlaut
Encoding: 733 733 252
GlifName: hungarumlaut
Width: 575
VWidth: 0
GlyphClass: 2
Flags: MW
LayerCount: 2
Fore
SplineSet
297 617 m 2
 194 525 l 2
 178 511 160 511 145 526 c 2
 125 546 l 2
 110 561 110 579 125 595 c 2
 217 697 l 2
 232 714 250 714 266 698 c 2
 298 666 l 2
 313 651 313 632 297 617 c 2
525 617 m 2
 423 525 l 2
 407 511 389 511 374 526 c 2
 354 546 l 2
 339 561 339 579 353 595 c 2
 446 697 l 2
 461 714 480 714 495 698 c 2
 526 666 l 1
 542 651 542 632 525 617 c 2
EndSplineSet
PickledDataWithLists: "(dp0
Vcom.schriftgestaltung.Glyphs.lastChange\\u000d\\u000d\\u000d\\u000d\\u000d\\u000d
p1
V2015-12-22 16:32:42 +0000\\u000d\\u000d\\u000d\\u000d\\u000d\\u000d
p2
s."
EndChar

StartChar: hyphen
Encoding: 45 45 253
GlifName: hyphen
Width: 575
VWidth: 0
Flags: MW
LayerCount: 2
Fore
SplineSet
76 262 m 2
 54 262 41 275 41 297 c 2
 41 324 l 2
 41 346 54 359 76 359 c 2
 499 359 l 2
 521 359 534 346 534 324 c 2
 534 297 l 2
 534 275 521 262 499 262 c 2
 76 262 l 2
EndSplineSet
PickledDataWithLists: "(dp0
Vcom.schriftgestaltung.Glyphs.lastChange\\u000d\\u000d\\u000d\\u000d\\u000d\\u000d
p1
V2015-12-22 16:32:53 +0000\\u000d\\u000d\\u000d\\u000d\\u000d\\u000d
p2
s."
EndChar

StartChar: i
Encoding: 105 105 254
GlifName: i
Width: 575
VWidth: 0
Flags: MW
AnchorPoint: "mark-ogonek" 460 25 basechar 0
AnchorPoint: "mark-bottom" 288 0 basechar 0
LayerCount: 2
Fore
SplineSet
220 760 m 2
 285 760 l 2
 307 760 320 747 320 725 c 2
 320 659 l 2
 320 637 307 624 285 624 c 2
 220 624 l 2
 198 624 185 637 185 659 c 2
 185 725 l 2
 185 747 198 760 220 760 c 2
EndSplineSet
Refer: 198 305 N 1 0 0 1 0 0 3
EndChar

StartChar: ij
Encoding: 307 307 259
GlifName: ij
Width: 575
VWidth: 0
Flags: MW
LayerCount: 2
Fore
SplineSet
255 634 m 2
 220 634 l 2
 198 634 185 647 185 669 c 2
 185 715 l 2
 185 737 198 750 220 750 c 2
 255 750 l 2
 277 750 290 737 290 715 c 2
 290 669 l 2
 290 646 278 634 255 634 c 2
430 750 m 2
 465 750 l 2
 487 750 500 737 500 715 c 2
 500 669 l 2
 500 647 487 634 465 634 c 2
 430 634 l 2
 408 634 395 647 395 669 c 2
 395 715 l 2
 395 737 408 750 430 750 c 2
115 500 m 2
 470 500 l 2
 489 500 500 487 500 466 c 2
 500 28 l 2
 500 -158 408 -248 219 -248 c 3
 180 -248 139 -244 99 -237 c 0
 78 -233 66 -215 72 -194 c 2
 79 -168 l 2
 84 -147 100 -138 121 -142 c 0
 153 -148 185 -151 219 -151 c 3
 342 -151 395 -96 395 29 c 2
 395 404 l 1
 290 404 l 1
 290 33 l 2
 290 12 277 0 255 0 c 2
 220 0 l 2
 199 0 185 14 185 34 c 2
 185 404 l 1
 115 404 l 2
 93 404 80 417 80 439 c 2
 80 465 l 2
 80 487 93 500 115 500 c 2
EndSplineSet
PickledDataWithLists: "(dp0
Vcom.schriftgestaltung.Glyphs.lastChange\\u000d\\u000d\\u000d\\u000d\\u000d\\u000d
p1
V2016-06-09 18:35:33 +0000\\u000d\\u000d\\u000d\\u000d\\u000d\\u000d
p2
s."
EndChar

StartChar: infinity
Encoding: 8734 8734 261
GlifName: infinity
Width: 575
VWidth: 0
Flags: MW
LayerCount: 2
Fore
SplineSet
161 147 m 3
 84 147 33 213 33 311 c 3
 33 408 83 475 156 475 c 3
 204 475 247 448 282 396 c 1
 318 454 358 480 409 480 c 3
 491 480 543 414 543 311 c 3
 543 215 487 142 413 142 c 3
 366 142 323 171 285 229 c 1
 254 173 215 147 161 147 c 3
124 311 m 3
 124 259 136 234 161 234 c 3
 191 234 219 264 242 323 c 1
 219 361 186 387 159 387 c 3
 135 387 124 363 124 311 c 3
452 311 m 3
 452 368 438 393 407 393 c 3
 376 393 348 366 321 305 c 1
 352 253 379 229 407 229 c 3
 437 229 452 256 452 311 c 3
EndSplineSet
EndChar

StartChar: integral
Encoding: 8747 8747 262
GlifName: integral
Width: 575
VWidth: 0
Flags: MW
LayerCount: 2
Fore
SplineSet
340 501 m 2
 340 -1 l 2
 340 -117 285 -170 167 -170 c 3
 134 -170 105 -167 76 -160 c 0
 55 -156 45 -137 52 -116 c 2
 61 -90 l 2
 67 -71 83 -62 103 -67 c 0
 124 -71 148 -74 167 -74 c 3
 218 -74 235 -56 235 -1 c 2
 235 501 l 2
 235 616 290 670 409 670 c 3
 442 670 470 667 499 660 c 0
 521 656 530 639 523 616 c 2
 515 590 l 2
 509 571 493 562 472 567 c 0
 451 571 427 574 409 574 c 3
 357 574 340 556 340 501 c 2
EndSplineSet
PickledDataWithLists: "(dp0
Vcom.schriftgestaltung.Glyphs.lastChange\\u000d\\u000d\\u000d\\u000d\\u000d\\u000d
p1
V2015-12-22 14:14:22 +0000\\u000d\\u000d\\u000d\\u000d\\u000d\\u000d
p2
s."
EndChar

StartChar: iota
Encoding: 953 953 264
GlifName: iota
Width: 575
VWidth: 0
Flags: MW
AnchorPoint: "mark-top" 218 500 basechar 0
LayerCount: 2
Fore
SplineSet
402 90 m 0
 423 94 439 86 445 68 c 2
 453 43 l 2
 460 21 451 5 429 0 c 0
 400 -7 372 -10 339 -10 c 3
 220 -10 165 41 165 153 c 2
 165 466 l 2
 165 487 179 500 200 500 c 2
 235 500 l 2
 256 500 270 487 270 466 c 2
 270 154 l 2
 270 101 287 84 339 84 c 3
 362 84 383 86 402 90 c 0
EndSplineSet
PickledDataWithLists: "(dp0
Vcom.schriftgestaltung.Glyphs.lastChange\\u000d\\u000d\\u000d\\u000d\\u000d\\u000d
p1
V2015-12-22 12:32:48 +0000\\u000d\\u000d\\u000d\\u000d\\u000d\\u000d
p2
s."
EndChar

StartChar: j
Encoding: 106 106 265
GlifName: j
Width: 575
VWidth: 0
Flags: MW
LayerCount: 2
Fore
SplineSet
400 760 m 2
 465 760 l 2
 487 760 500 747 500 725 c 2
 500 659 l 2
 500 637 487 624 465 624 c 2
 400 624 l 2
 378 624 365 637 365 659 c 2
 365 725 l 2
 365 747 378 760 400 760 c 2
130 -40 m 0
 173 -56 207 -62 247 -62 c 3
 347 -62 394 -3 394 122 c 2
 394 402 l 1
 125 402 l 2
 103 402 90 415 90 437 c 2
 90 465 l 2
 90 487 103 500 125 500 c 2
 465 500 l 2
 487 500 500 487 500 466 c 2
 500 122 l 2
 500 -56 407 -160 247 -160 c 3
 194 -160 140 -149 93 -129 c 0
 73 -121 67 -103 75 -83 c 2
 85 -59 l 2
 93 -39 110 -32 130 -40 c 0
EndSplineSet
EndChar

StartChar: k
Encoding: 107 107 267
GlifName: k
Width: 575
VWidth: 0
Flags: MW
AnchorPoint: "mark-top" 288 700 basechar 0
AnchorPoint: "mark-bottom" 288 0 basechar 0
LayerCount: 2
Fore
SplineSet
509 46 m 2
 531 24 521 0 489 0 c 2
 431 0 l 2
 416 0 404 5 393 16 c 2
 197 217 l 2
 190 224 187 227 184 229 c 1
 184 35 l 2
 184 13 171 0 149 0 c 2
 114 0 l 2
 92 0 79 12 79 34 c 2
 79 715 l 2
 79 737 92 750 114 750 c 2
 149 750 l 2
 171 750 184 737 184 715 c 2
 184 292 l 1
 187 294 190 297 197 304 c 2
 373 484 l 2
 384 495 396 500 411 500 c 2
 469 500 l 2
 501 500 511 476 489 454 c 2
 311 279 l 2
 303 271 296 266 284 260 c 1
 294 255 302 249 311 240 c 2
 509 46 l 2
EndSplineSet
EndChar

StartChar: kappa
Encoding: 954 954 268
GlifName: kappa
Width: 575
VWidth: 0
Flags: MW
AnchorPoint: "mark-top" 288 500 basechar 0
LayerCount: 2
Back
SplineSet
300 233 m 258
 502 31 l 258
 518 15 512 0 489 0 c 258
 431 0 l 258
 418 0 409 4 400 13 c 258
 200 214 l 258
 186 228 175 236 170 236 c 257
 170 25 l 258
 170 9 161 0 145 0 c 258
 110 0 l 258
 94 0 85 9 85 25 c 258
 85 476 l 258
 85 492 94 501 110 501 c 258
 145 501 l 258
 161 501 170 492 170 476 c 258
 170 285 l 257
 175 285 186 293 200 307 c 258
 380 487 l 258
 389 496 398 500 411 500 c 258
 469 500 l 258
 492 500 498 485 482 469 c 258
 300 287 l 258
 291 278 282 269 253 260 c 257
 282 251 291 242 300 233 c 258
EndSplineSet
Fore
SplineSet
333 449 m 2
 369 486 397 500 435 500 c 2
 464 500 l 2
 486 500 499 487 499 465 c 2
 499 439 l 2
 499 417 486 404 464 404 c 2
 449 404 l 2
 430 404 422 399 397 375 c 2
 297 278 l 2
 291 271 284 266 275 260 c 1
 288 254 296 248 307 238 c 2
 509 46 l 2
 531 25 521 0 489 0 c 2
 431 0 l 2
 416 0 404 5 393 16 c 2
 193 217 l 2
 189 221 184 226 180 229 c 1
 180 35 l 2
 180 13 167 0 145 0 c 2
 110 0 l 2
 89 0 75 13 75 34 c 2
 75 467 l 2
 75 488 89 501 110 501 c 2
 145 501 l 2
 167 501 180 488 180 466 c 2
 180 292 l 1
 183 295 188 299 193 304 c 2
 333 449 l 2
EndSplineSet
PickledDataWithLists: "(dp0
Vcom.schriftgestaltung.Glyphs.lastChange\\u000d\\u000d\\u000d\\u000d\\u000d\\u000d
p1
V2015-12-22 12:33:21 +0000\\u000d\\u000d\\u000d\\u000d\\u000d\\u000d
p2
s."
EndChar

StartChar: l
Encoding: 108 108 269
GlifName: l
Width: 575
VWidth: 0
Flags: MW
AnchorPoint: "mark-centerright" 445 400 basechar 0
AnchorPoint: "mark-topright" 390 700 basechar 0
AnchorPoint: "mark-top" 288 700 basechar 0
AnchorPoint: "mark-bottom" 288 0 basechar 0
LayerCount: 2
Fore
SplineSet
504 43 m 2
 511 22 501 5 479 0 c 0
 450 -7 422 -10 389 -10 c 3
 270 -10 215 42 215 155 c 2
 215 654 l 1
 113 654 l 2
 91 654 78 667 78 689 c 2
 78 715 l 2
 78 737 91 750 113 750 c 2
 285 750 l 2
 307 750 320 737 320 715 c 2
 320 156 l 2
 320 103 337 85 389 85 c 3
 412 85 433 87 452 91 c 0
 473 96 490 88 496 68 c 2
 504 43 l 2
EndSplineSet
PickledDataWithLists: "(dp0
Vcom.schriftgestaltung.Glyphs.lastChange\\u000d\\u000d\\u000d\\u000d\\u000d\\u000d
p1
V2016-06-09 18:35:33 +0000\\u000d\\u000d\\u000d\\u000d\\u000d\\u000d
p2
s."
EndChar

StartChar: lambda
Encoding: 955 955 271
GlifName: lambda
Width: 575
VWidth: 0
Flags: MW
AnchorPoint: "mark-top" 288 700 basechar 0
LayerCount: 2
Fore
SplineSet
83 628 m 2
 83 652 l 2
 83 674 96 687 118 687 c 3
 211 687 278 626 334 494 c 2
 532 41 l 2
 541 18 528 0 503 0 c 2
 466 0 l 2
 448 0 434 9 428 25 c 2
 286 375 l 1
 147 25 l 2
 141 9 127 0 109 0 c 2
 72 0 l 2
 47 0 33 19 43 41 c 2
 231 476 l 1
 194 557 160 593 118 593 c 3
 96 593 83 606 83 628 c 2
EndSplineSet
EndChar

StartChar: lfblock
Encoding: 9612 9612 276
GlifName: lfblock
Width: 575
Flags: MW
LayerCount: 2
Fore
SplineSet
-10 -330 m 1
 -10 920 l 1
 297 920 l 1
 297 -330 l 1
 -10 -330 l 1
EndSplineSet
PickledDataWithLists: "(dp0
Vcom.schriftgestaltung.Glyphs.lastChange\\u000d\\u000d\\u000d\\u000d\\u000d\\u000d
p1
V2016-06-10 08:26:49 +0000\\u000d\\u000d\\u000d\\u000d\\u000d\\u000d
p2
s."
EndChar

StartChar: logicalnot
Encoding: 172 172 277
GlifName: logicalnot
Width: 575
VWidth: 0
Flags: MW
LayerCount: 2
Fore
SplineSet
110 424 m 2
 465 424 l 2
 487 424 500 411 500 389 c 2
 500 150 l 2
 500 128 487 115 465 115 c 2
 430 115 l 2
 408 115 395 128 395 150 c 2
 395 327 l 1
 110 327 l 2
 88 327 75 340 75 362 c 2
 75 389 l 2
 75 411 88 424 110 424 c 2
EndSplineSet
PickledDataWithLists: "(dp0
Vcom.schriftgestaltung.Glyphs.lastChange\\u000d\\u000d\\u000d\\u000d\\u000d\\u000d
p1
V2015-12-22 14:15:53 +0000\\u000d\\u000d\\u000d\\u000d\\u000d\\u000d
p2
s."
EndChar

StartChar: lslash
Encoding: 322 322 278
GlifName: lslash
Width: 575
VWidth: 0
Flags: MW
LayerCount: 2
Fore
SplineSet
452 90 m 0
 474 94 489 87 495 68 c 2
 503 43 l 2
 510 22 500 5 479 0 c 0
 450 -7 422 -10 389 -10 c 3
 270 -10 215 42 215 155 c 2
 215 285 l 1
 182 261 l 2
 167 251 146 252 134 266 c 2
 114 289 l 2
 100 304 104 327 121 339 c 2
 215 408 l 1
 215 654 l 1
 113 654 l 2
 91 654 78 667 78 689 c 2
 78 715 l 2
 78 737 91 750 113 750 c 2
 285 750 l 2
 307 750 320 737 320 715 c 2
 320 480 l 1
 360 510 l 2
 375 521 396 517 408 503 c 2
 427 481 l 2
 441 465 438 443 421 431 c 2
 320 358 l 1
 320 154 l 2
 320 101 337 84 389 84 c 3
 412 84 433 86 452 90 c 0
EndSplineSet
PickledDataWithLists: "(dp0
Vcom.schriftgestaltung.Glyphs.lastChange\\u000d\\u000d\\u000d\\u000d\\u000d\\u000d
p1
V2016-06-09 18:35:33 +0000\\u000d\\u000d\\u000d\\u000d\\u000d\\u000d
p2
s."
EndChar

StartChar: ltshade
Encoding: 9617 9617 279
GlifName: ltshade
Width: 575
Flags: MW
LayerCount: 2
Fore
SplineSet
352 -330 m 1
 324 -330 l 1
 317.818686443 -330 l 1
 -10 325.637372887 l 1
 -10 426.362627113 l 1
 368.181313557 -330 l 1
 352 -330 l 1
84.1813135565 -330 m 1
 33.8186864435 -330 l 1
 -10 -242.362627113 l 1
 -10 -141.637372887 l 1
 84.1813135565 -330 l 1
585 386.362627113 m 1
 585 285.637372887 l 1
 267.818686443 920 l 1
 318.181313557 920 l 1
 585 386.362627113 l 1
585 -181.637372887 m 1
 585 -282.362627113 l 1
 -16.1813135565 920 l 1
 0 920 l 1
 28 920 l 1
 34.1813135565 920 l 1
 585 -181.637372887 l 1
EndSplineSet
PickledDataWithLists: "(dp0
Vcom.schriftgestaltung.Glyphs.lastChange\\u000d\\u000d\\u000d\\u000d\\u000d\\u000d
p1
V2016-06-10 08:26:49 +0000\\u000d\\u000d\\u000d\\u000d\\u000d\\u000d
p2
s."
EndChar

StartChar: m
Encoding: 109 109 280
GlifName: m
Width: 575
VWidth: 0
Flags: MW
AnchorPoint: "mark-top" 288 500 basechar 0
AnchorPoint: "mark-bottom" 288 0 basechar 0
LayerCount: 2
Fore
SplineSet
170 412 m 3
 159 412 153 412 146 411 c 1
 146 34 l 2
 146 14 132 0 111 0 c 2
 76 0 l 2
 55 0 41 13 41 34 c 2
 41 459 l 2
 41 478 52 491 72 495 c 0
 122 504 158 508 189 508 c 3
 231 508 262 501 285 486 c 1
 309 497 361 508 388 508 c 3
 489 508 534 458 534 348 c 2
 534 34 l 2
 534 13 521 0 499 0 c 2
 464 0 l 2
 442 0 429 12 429 33 c 2
 429 343 l 2
 429 395 413 412 364 412 c 3
 351 412 340 411 333 410 c 1
 338 390 340 371 340 340 c 2
 340 200 l 2
 340 178 327 165 305 165 c 2
 270 165 l 2
 248 165 235 178 235 200 c 2
 235 340 l 2
 235 394 219 412 170 412 c 3
EndSplineSet
EndChar

StartChar: macron
Encoding: 175 175 281
GlifName: macron
Width: 575
VWidth: 0
GlyphClass: 2
Flags: MW
LayerCount: 2
Fore
SplineSet
134 649 m 2
 134 675 l 2
 134 697 147 710 169 710 c 2
 407 710 l 2
 429 710 442 697 442 675 c 2
 442 649 l 2
 442 627 429 614 407 614 c 2
 169 614 l 2
 147 614 134 627 134 649 c 2
EndSplineSet
PickledDataWithLists: "(dp0
Vcom.schriftgestaltung.Glyphs.lastChange\\u000d\\u000d\\u000d\\u000d\\u000d\\u000d
p1
V2015-12-22 16:32:42 +0000\\u000d\\u000d\\u000d\\u000d\\u000d\\u000d
p2
s."
EndChar

StartChar: multiply
Encoding: 215 215 283
GlifName: multiply
Width: 575
VWidth: 0
Flags: MW
LayerCount: 2
Back
SplineSet
450 91 m 0
 441 91 432 95 425 102 c 2
 288 239 l 1
 150 102 l 2
 143 95 135 91 126 91 c 0
 117 91 108 95 101 102 c 2
 79 124 l 2
 72 131 68 139 68 148 c 0
 68 157 72 166 79 173 c 2
 216 310 l 1
 79 448 l 2
 72 455 68 463 68 472 c 0
 68 481 72 490 79 497 c 2
 101 519 l 2
 108 526 117 530 126 530 c 0
 135 530 143 526 150 519 c 2
 288 382 l 1
 425 519 l 2
 432 526 441 530 450 530 c 0
 459 530 467 526 474 519 c 2
 496 497 l 2
 503 490 507 481 507 472 c 0
 507 463 503 455 496 448 c 2
 359 310 l 1
 496 173 l 2
 503 166 507 157 507 148 c 0
 507 139 503 131 496 124 c 2
 474 102 l 2
 467 95 459 91 450 91 c 0
EndSplineSet
Fore
SplineSet
425 102 m 2
 288 239 l 1
 150 102 l 2
 134 86 117 86 101 102 c 2
 79 124 l 2
 63 140 63 157 79 173 c 2
 216 310 l 1
 79 448 l 2
 63 464 63 481 79 497 c 2
 101 519 l 2
 117 535 134 535 150 519 c 2
 288 382 l 1
 425 519 l 2
 441 535 458 535 474 519 c 2
 496 497 l 2
 512 481 512 464 496 448 c 2
 359 310 l 1
 496 173 l 2
 512 157 512 140 496 124 c 2
 474 102 l 2
 458 86 441 86 425 102 c 2
EndSplineSet
PickledDataWithLists: "(dp0
Vcom.schriftgestaltung.Glyphs.lastChange\\u000d\\u000d\\u000d\\u000d\\u000d\\u000d
p1
V2015-12-22 14:16:31 +0000\\u000d\\u000d\\u000d\\u000d\\u000d\\u000d
p2
s."
EndChar

StartChar: n
Encoding: 110 110 284
GlifName: n
Width: 575
VWidth: 0
Flags: MW
AnchorPoint: "mark-top" 288 500 basechar 0
AnchorPoint: "mark-bottom" 288 0 basechar 0
LayerCount: 2
Fore
SplineSet
79 34 m 2
 79 462 l 2
 79 481 90 494 110 498 c 0
 148 505 218 510 276 510 c 3
 433 510 496 452 496 306 c 2
 496 34 l 2
 496 13 483 0 461 0 c 2
 426 0 l 2
 404 0 391 12 391 33 c 2
 391 303 l 2
 391 387 364 414 278 414 c 3
 252 414 219 413 184 411 c 1
 184 34 l 2
 184 14 170 0 149 0 c 2
 114 0 l 2
 93 0 79 13 79 34 c 2
EndSplineSet
PickledDataWithLists: "(dp0
Vcom.schriftgestaltung.Glyphs.lastChange\\u000d\\u000d\\u000d\\u000d\\u000d\\u000d
p1
V2016-06-09 18:35:33 +0000\\u000d\\u000d\\u000d\\u000d\\u000d\\u000d
p2
s."
EndChar

StartChar: nine.dnom
Encoding: 65570 -1 288
GlifName: nine.dnom
Width: 575
VWidth: 0
Flags: MW
LayerCount: 2
Fore
SplineSet
6 250 m 0
 6 293.688410936 19.7623582205 328.595268478 47.4540596155 350.717903712 c 0
 69.4846606507 368.317940045 99.1927450374 377 135 377 c 0
 183.918611397 377 221.797614228 357.12002295 244.884046454 319.664379993 c 0
 263.179921214 289.980982147 272 250.301948499 272 202 c 0
 272 127.97734198 258.867103489 75.455047052 235.693387464 39.4513485734 c 0
 206.466033978 -5.95754575974 161.918427466 -23 114 -23 c 0
 98.4855067065 -23 80.8243396675 -21.9553381565 63.9462410428 -18.7906946644 c 0
 48.737547767 -15.2809962161 36.4208081871 -2.5887811503 36.4208081871 13.3151213596 c 0
 36.4208081871 15.6245219958 36.6938010865 17.950290252 37.253376927 20.2498397667 c 0
 38.2641936252 24.9669843583 39.1292477662 29.7557207148 40.2977578066 34.4297608764 c 0
 44.3351845044 50.5794676676 60.2555166439 60.3062874294 75.2353803635 60.3062874294 c 0
 77.2044500122 60.3062874294 79.3951315995 60.1734548238 81.2543520212 59.7444039573 c 0
 93.5300803231 56.9115435799 103.624416488 56 114 56 c 0
 133.586401007 56 148.822228068 61.3036875292 160.807708962 78.5212024761 c 0
 169.342185108 90.7812420937 176.442286754 110.049208144 180.438007997 139.005500416 c 1
 162.223855973 135.177774641 126.33609116 132.999759793 125 133 c 0
 53.9458703777 133.012774331 6 180.723012076 6 250 c 0
135 298 m 0
 114.870836227 298 105.541355909 293.915116686 100.358136615 286.548555019 c 0
 95.9026814762 280.216315695 93 268.779553408 93 250 c 0
 93 224.18112488 106.027679072 212 125 212 c 0
 143.763417799 212 161.684916515 215.025107692 183.702995289 222.104299314 c 1
 182.333887392 247.946612927 177.910125072 265.915190195 171.642042073 277.395273993 c 0
 163.400642748 292.489514912 152.258992424 298 135 298 c 0
EndSplineSet
EndChar

StartChar: nine.hex
Encoding: 65571 -1 289
GlifName: nine.hex
Width: 575
VWidth: 0
Flags: MW
LayerCount: 2
Fore
SplineSet
124 875 m 2
 124 829 l 2
 124 817.680679758 120.49077603 807.434582054 112.147103874 800.935300585 c 0
 105.638298075 795.865283436 97.5384556952 794 89 794 c 2
 54 794 l 2
 42.6806797579 794 32.4345820537 797.50922397 25.9353005852 805.852896126 c 0
 20.8652834364 812.361701925 19 820.461544305 19 829 c 2
 19 875 l 2
 19 885.92286565 22.5706168755 896.024900642 30.700494404 902.614380323 c 0
 37.0967468189 907.798711228 45.2466187476 910 54 910 c 2
 89 910 l 2
 97.7533812524 910 105.903253181 907.798711228 112.299505596 902.614380323 c 0
 120.429383125 896.024900642 124 885.92286565 124 875 c 2
556 875 m 2
 556 829 l 2
 556 817.680679758 552.49077603 807.434582054 544.147103874 800.935300585 c 0
 537.638298075 795.865283436 529.538455695 794 521 794 c 2
 486 794 l 2
 474.680679758 794 464.434582054 797.50922397 457.935300585 805.852896126 c 0
 452.865283436 812.361701925 451 820.461544305 451 829 c 2
 451 875 l 2
 451 883.753381252 453.201288772 891.903253181 458.385619677 898.299505596 c 0
 464.975099358 906.429383125 475.07713435 910 486 910 c 2
 521 910 l 2
 531.92286565 910 542.024900642 906.429383125 548.614380323 898.299505596 c 0
 553.798711228 891.903253181 556 883.753381252 556 875 c 2
EndSplineSet
Refer: 287 57 N 1 0 0 1 0 0 2
PickledDataWithLists: "(dp0
Vcom.schriftgestaltung.Glyphs.lastChange\\u000d\\u000d\\u000d\\u000d\\u000d\\u000d
p1
V2016-02-10 13:40:56 +0000\\u000d\\u000d\\u000d\\u000d\\u000d\\u000d
p2
s."
EndChar

StartChar: notequal
Encoding: 8800 8800 291
GlifName: notequal
Width: 575
VWidth: 0
Flags: MW
LayerCount: 2
Back
SplineSet
503 662 m 258
 510 676 505 688 491 695 c 258
 464 708 l 258
 450 715 438 711 431 697 c 258
 79 -25 l 258
 72 -39 77 -51 91 -58 c 258
 118 -71 l 258
 132 -78 144 -74 151 -60 c 258
 503 662 l 258
524 412 m 258
 524 396 516 387 499 387 c 258
 361 387 l 257
 285 234 l 257
 499 234 l 258
 516 234 524 225 524 209 c 258
 524 182 l 258
 524 166 516 157 499 157 c 258
 246 157 l 257
 167 -2 l 258
 161 -14 152 -20 138 -20 c 258
 96 -20 l 258
 77 -20 70 -8 78 9 c 258
 152 157 l 257
 76 157 l 258
 60 157 51 166 51 182 c 258
 51 208 l 258
 51 225 60 234 76 234 c 258
 190 234 l 257
 267 387 l 257
 76 387 l 258
 60 387 51 396 51 412 c 258
 51 438 l 258
 51 455 60 464 76 464 c 258
 305 464 l 257
 384 622 l 258
 390 634 400 640 414 640 c 258
 455 640 l 258
 475 640 482 628 473 611 c 258
 400 464 l 257
 499 464 l 258
 516 464 524 455 524 439 c 258
 524 412 l 258
EndSplineSet
Fore
Refer: 943 -1 N 1 0 0 1 0 0 2
Refer: 218 61 N 1 0 0 1 0 0 2
PickledDataWithLists: "(dp0
Vcom.schriftgestaltung.Glyphs.lastChange\\u000d\\u000d\\u000d\\u000d\\u000d\\u000d
p1
V2015-12-22 14:16:56 +0000\\u000d\\u000d\\u000d\\u000d\\u000d\\u000d
p2
s."
EndChar

StartChar: nu
Encoding: 957 957 293
GlifName: nu
Width: 575
VWidth: 0
Flags: MW
AnchorPoint: "mark-top" 288 500 basechar 0
LayerCount: 2
Back
SplineSet
288 66 m 259
 305 66 323 75 327 93 c 258
 424 478 l 258
 428 492 436 500 451 500 c 258
 486 500 l 258
 503 500 512 490 508 472 c 258
 410 79 l 258
 396 21 347 -10 288 -10 c 259
 229 -10 180 21 165 79 c 258
 67 472 l 258
 63 490 72 500 89 500 c 258
 125 500 l 258
 140 500 148 492 152 478 c 258
 249 93 l 258
 253 75 271 66 288 66 c 259
EndSplineSet
Fore
SplineSet
421 328 m 3
 421 370 414 396 400 408 c 0
 383 422 380 434 386 449 c 2
 398 479 l 2
 405 498 424 506 442 499 c 0
 500 477 526 423 526 327 c 3
 526 158 408 -10 288 -10 c 3
 222 -10 170 26 155 83 c 2
 57 461 l 2
 52 484 65 500 89 500 c 2
 125 500 l 2
 144 500 157 490 162 472 c 2
 259 104 l 2
 262 93 273 86 288 86 c 3
 342 86 421 229 421 328 c 3
EndSplineSet
PickledDataWithLists: "(dp0
Vcom.schriftgestaltung.Glyphs.lastChange\\u000d\\u000d\\u000d\\u000d\\u000d\\u000d
p1
V2015-12-22 12:42:54 +0000\\u000d\\u000d\\u000d\\u000d\\u000d\\u000d
p2
s."
EndChar

StartChar: numbersign
Encoding: 35 35 294
GlifName: numbersign
Width: 575
VWidth: 0
Flags: MW
LayerCount: 2
Fore
SplineSet
442 414 m 1
 442 280 l 1
 499 280 l 2
 521 280 534 267 534 245 c 2
 534 218 l 2
 534 196 521 183 499 183 c 2
 442 183 l 1
 442 25 l 2
 442 3 429 -10 407 -10 c 2
 372 -10 l 2
 350 -10 337 3 337 25 c 2
 337 183 l 1
 238 183 l 1
 238 25 l 2
 238 3 225 -10 203 -10 c 2
 168 -10 l 2
 146 -10 133 3 133 25 c 2
 133 183 l 1
 76 183 l 2
 54 183 41 196 41 218 c 2
 41 245 l 2
 41 267 54 280 76 280 c 2
 133 280 l 1
 133 414 l 1
 76 414 l 2
 54 414 41 427 41 449 c 2
 41 476 l 2
 41 498 54 511 76 511 c 2
 133 511 l 1
 133 675 l 2
 133 697 146 710 168 710 c 2
 203 710 l 2
 225 710 238 697 238 675 c 2
 238 511 l 1
 337 511 l 1
 337 675 l 2
 337 697 350 710 372 710 c 2
 407 710 l 2
 429 710 442 697 442 675 c 2
 442 511 l 1
 499 511 l 2
 521 511 534 498 534 476 c 2
 534 449 l 2
 534 427 521 414 499 414 c 2
 442 414 l 1
337 414 m 1
 238 414 l 1
 238 280 l 1
 337 280 l 1
 337 414 l 1
EndSplineSet
PickledDataWithLists: "(dp0
Vcom.schriftgestaltung.Glyphs.lastChange\\u000d\\u000d\\u000d\\u000d\\u000d\\u000d
p1
V2015-12-23 09:14:39 +0000\\u000d\\u000d\\u000d\\u000d\\u000d\\u000d
p2
s."
EndChar

StartChar: o
Encoding: 111 111 295
GlifName: o
Width: 575
VWidth: 0
Flags: MW
AnchorPoint: "mark-horn" 380 470 basechar 0
AnchorPoint: "mark-top" 288 500 basechar 0
AnchorPoint: "mark-bottom" 288 0 basechar 0
LayerCount: 2
Fore
SplineSet
291 -10 m 3
 175.361049652 -10 65 72.2041133804 65 250 c 3
 65 427.79588662 175.361049652 510 291 510 c 3
 406.930864574 510 510 427.409041733 510 250 c 3
 510 72.5909582671 406.930864574 -10 291 -10 c 3
288 414 m 3
 225.658228435 414 170 358.633732418 170 250 c 3
 170 141.366267582 225.658228435 86 288 86 c 3
 350.276750761 86 405 141.276051332 405 250 c 3
 405 358.723948668 350.276750761 414 288 414 c 3
EndSplineSet
PickledDataWithLists: "(dp0
Vcom.schriftgestaltung.Glyphs.lastChange\\u000d\\u000d\\u000d\\u000d\\u000d\\u000d
p1
V2016-06-09 18:35:33 +0000\\u000d\\u000d\\u000d\\u000d\\u000d\\u000d
p2
s."
EndChar

StartChar: oe
Encoding: 339 339 299
GlifName: oe
Width: 575
VWidth: 0
Flags: MW
LayerCount: 2
Fore
SplineSet
503 43 m 2
 508 22 497 5 475 1 c 0
 430 -7 404 -10 391 -10 c 3
 349 -10 320 10 299 52 c 1
 278 9 249 -12 210 -12 c 3
 123 -12 75 80 75 250 c 3
 75 420 125 512 216 512 c 3
 251 512 279 494 299 456 c 1
 319 492 346 510 383 510 c 3
 471 510 520 424 520 268 c 2
 520 246 l 2
 520 225 507 212 485 212 c 2
 350 212 l 1
 352 134 368 87 391 87 c 3
 396 87 428 92 455 96 c 0
 476 100 492 90 497 69 c 2
 503 43 l 2
180 250 m 3
 180 153 193 85 212 85 c 3
 232 85 245 151 245 250 c 3
 245 348 232 415 213 415 c 3
 193 415 180 349 180 250 c 3
383 414 m 3
 369 414 357 372 352 309 c 1
 414 309 l 1
 410 371 398 414 383 414 c 3
EndSplineSet
PickledDataWithLists: "(dp0
Vcom.schriftgestaltung.Glyphs.lastChange\\u000d\\u000d\\u000d\\u000d\\u000d\\u000d
p1
V2016-06-09 18:35:34 +0000\\u000d\\u000d\\u000d\\u000d\\u000d\\u000d
p2
s."
EndChar

StartChar: ogonek
Encoding: 731 731 300
GlifName: ogonek
Width: 575
VWidth: 0
GlyphClass: 2
Flags: MW
LayerCount: 2
Fore
SplineSet
307.185185185 45.5555555556 m 0
 311.824149633 45.5555555556 317.186276099 44.8618539984 321.053459877 43.1431056522 c 0
 331.125117472 38.6668133881 336.738353925 28.8779280282 336.738353925 17.6230589875 c 0
 336.738353925 11.4206101658 334.826994994 4.11647096336 333.590379668 -2.00685813054 c 0
 329.872137094 -20.4184287385 326 -40.3256614397 326 -53 c 0
 326 -103.797599235 336.32647169 -126.517648407 352.768289689 -145.699769405 c 0
 358.595596498 -153.275268258 362.879459237 -161.478552455 362.879459237 -170.793724767 c 0
 362.879459237 -179.663828417 358.834017464 -187.704447969 352.385783164 -194.738885387 c 2
 331.530148635 -217.580770824 l 2
 325.038785599 -225.289606304 316.392877228 -230.515606962 306.500035982 -230.515606962 c 0
 297.378735393 -230.515606962 288.966952101 -226.106314601 281.827833822 -218.965700278 c 0
 246.490746341 -182.589286695 221 -134.387963861 221 -83 c 0
 221 -51.8850449104 224.196618732 -7.16898139764 280.168949905 36.1303691324 c 0
 289.232781274 42.1729233786 298.103298332 45.5555555556 307.185185185 45.5555555556 c 0
EndSplineSet
PickledDataWithLists: "(dp0
Vcom.schriftgestaltung.Glyphs.lastChange\\u000d\\u000d\\u000d\\u000d\\u000d\\u000d
p1
V2015-12-22 16:32:43 +0000\\u000d\\u000d\\u000d\\u000d\\u000d\\u000d
p2
s."
EndChar

StartChar: omega
Encoding: 969 969 304
GlifName: omega
Width: 575
VWidth: 0
Flags: MW
AnchorPoint: "mark-top" 288 500 basechar 0
LayerCount: 2
Fore
SplineSet
160 449 m 2
 166 434 163 422 146 408 c 0
 132 396 125 370 125 328 c 2
 125 176 l 2
 125 112 140 87 180 87 c 3
 220 87 235 113 235 180 c 2
 235 315 l 2
 235 337 248 350 270 350 c 2
 305 350 l 2
 327 350 340 337 340 315 c 2
 340 180 l 2
 340 113 355 87 395 87 c 3
 435 87 450 112 450 176 c 2
 450 328 l 2
 450 370 443 396 429 408 c 0
 412 422 409 434 415 449 c 2
 427 479 l 2
 434 498 453 506 471 499 c 0
 529 477 555 423 555 327 c 2
 555 173 l 2
 555 45 507 -10 395 -10 c 3
 344 -10 309 7 288 43 c 1
 266 7 231 -10 180 -10 c 3
 68 -10 20 45 20 173 c 2
 20 327 l 2
 20 423 47 477 105 499 c 0
 124 505 140 498 148 479 c 2
 160 449 l 2
EndSplineSet
PickledDataWithLists: "(dp0
Vcom.schriftgestaltung.Glyphs.lastChange\\u000d\\u000d\\u000d\\u000d\\u000d\\u000d
p1
V2015-12-22 12:55:46 +0000\\u000d\\u000d\\u000d\\u000d\\u000d\\u000d
p2
s."
EndChar

StartChar: one
Encoding: 49 49 306
GlifName: one
Width: 575
VWidth: 0
Flags: MW
LayerCount: 2
Fore
SplineSet
267 97 m 1
 267 510 l 1
 110 510 l 2
 88 510 75 523 75 545 c 2
 75 572 l 2
 75 594 88 607 110 607 c 3
 207 607 255 625 280 676 c 0
 287 691 300 700 318 700 c 2
 337 700 l 2
 359 700 372 687 372 665 c 2
 372 97 l 1
 465 97 l 2
 487 97 500 84 500 62 c 2
 500 35 l 2
 500 13 487 0 465 0 c 2
 110 0 l 2
 88 0 75 13 75 35 c 2
 75 62 l 2
 75 84 88 97 110 97 c 2
 267 97 l 1
EndSplineSet
EndChar

StartChar: one.dnom
Encoding: 65573 -1 307
GlifName: one.dnom
Width: 575
VWidth: 0
Flags: MW
LayerCount: 2
Fore
SplineSet
117 240 m 1
 55 240 l 2
 35.1620301054 240 21 256.522112473 21 273 c 2
 21 286 l 2
 21 302.477887527 35.1620301054 319 55 319 c 0
 75.4753777297 319 90.0714082374 320.472697086 100.151973027 323.859245848 c 0
 112.381474546 327.967726285 118.950765047 334.274735284 124.856894348 348.053459877 c 0
 130.332041182 360.372540255 142.865973249 370 159 370 c 2
 169 370 l 2
 187.895815071 370 203 355.962284384 203 338 c 2
 203 59 l 1
 233 59 l 2
 252.837969895 59 267 42.4778875266 267 26 c 2
 267 13 l 2
 267 -3.47788752662 252.837969895 -20 233 -20 c 2
 55 -20 l 2
 35.1620301054 -20 21 -3.47788752662 21 13 c 2
 21 26 l 2
 21 42.4778875266 35.1620301054 59 55 59 c 2
 117 59 l 1
 117 240 l 1
EndSplineSet
EndChar

StartChar: one.hex
Encoding: 65574 -1 308
GlifName: one.hex
Width: 575
VWidth: 0
Flags: MW
LayerCount: 2
Fore
SplineSet
556 875 m 2
 556 829 l 2
 556 817.680679758 552.49077603 807.434582054 544.147103874 800.935300585 c 0
 537.638298075 795.865283436 529.538455695 794 521 794 c 2
 486 794 l 2
 474.680679758 794 464.434582054 797.50922397 457.935300585 805.852896126 c 0
 452.865283436 812.361701925 451 820.461544305 451 829 c 2
 451 875 l 2
 451 883.753381252 453.201288772 891.903253181 458.385619677 898.299505596 c 0
 464.975099358 906.429383125 475.07713435 910 486 910 c 2
 521 910 l 2
 531.92286565 910 542.024900642 906.429383125 548.614380323 898.299505596 c 0
 553.798711228 891.903253181 556 883.753381252 556 875 c 2
EndSplineSet
Refer: 306 49 N 1 0 0 1 0 0 2
PickledDataWithLists: "(dp0
Vcom.schriftgestaltung.Glyphs.lastChange\\u000d\\u000d\\u000d\\u000d\\u000d\\u000d
p1
V2016-02-10 13:18:28 +0000\\u000d\\u000d\\u000d\\u000d\\u000d\\u000d
p2
s."
EndChar

StartChar: ordfeminine
Encoding: 170 170 314
GlifName: ordfeminine
Width: 575
GlyphClass: 2
Flags: MW
AnchorPoint: "mark-numerator" 270 740 mark 0
LayerCount: 2
Fore
SplineSet
279 551 m 0
 218 551 192 541 192 517 c 3
 192 492 228 480 300 480 c 3
 317 480 339 481 375 484 c 1
 375 550 l 1
 320 551 280 551 279 551 c 0
160 809 m 0
 207 816 241 819 277 819 c 3
 420 819 480 767 480 642 c 2
 480 428 l 2
 480 407 467 393 447 392 c 0
 407 387 328 382 302 382 c 3
 166 382 87 431 87 517 c 3
 87 600 158 648 282 648 c 2
 375 648 l 1
 374 706 353 721 277 721 c 3
 251 721 226 719 173 711 c 0
 150 708 136 719 133 741 c 2
 129 776 l 2
 127 794 141 807 160 809 c 0
EndSplineSet
PickledDataWithLists: "(dp0
Vcom.schriftgestaltung.Glyphs.lastChange\\u000d\\u000d\\u000d\\u000d\\u000d\\u000d
p1
V2016-06-09 18:35:34 +0000\\u000d\\u000d\\u000d\\u000d\\u000d\\u000d
p2
s."
EndChar

